<svg width="36" height="38" viewBox="0 0 36 38" fill="none" xmlns="http://www.w3.org/2000/svg">
<path d="M15 12C14.7348 12 14.4804 12.1054 14.2929 12.2929C14.1054 12.4804 14 12.7348 14 13C14 13.2652 14.1054 13.5196 14.2929 13.7071C14.4804 13.8947 14.7348 14 15 14C15.2652 14 15.5196 13.8947 15.7071 13.7071C15.8946 13.5196 16 13.2652 16 13C16 12.7348 15.8946 12.4804 15.7071 12.2929C15.5196 12.1054 15.2652 12 15 12ZM12.17 12C12.3766 11.4145 12.7597 10.9074 13.2666 10.5488C13.7735 10.1902 14.3791 9.99756 15 9.99756C15.6209 9.99756 16.2265 10.1902 16.7334 10.5488C17.2403 10.9074 17.6234 11.4145 17.83 12H25C25.2652 12 25.5196 12.1054 25.7071 12.2929C25.8946 12.4804 26 12.7348 26 13C26 13.2652 25.8946 13.5196 25.7071 13.7071C25.5196 13.8947 25.2652 14 25 14H17.83C17.6234 14.5855 17.2403 15.0926 16.7334 15.4512C16.2265 15.8099 15.6209 16.0025 15 16.0025C14.3791 16.0025 13.7735 15.8099 13.2666 15.4512C12.7597 15.0926 12.3766 14.5855 12.17 14H11C10.7348 14 10.4804 13.8947 10.2929 13.7071C10.1054 13.5196 10 13.2652 10 13C10 12.7348 10.1054 12.4804 10.2929 12.2929C10.4804 12.1054 10.7348 12 11 12H12.17ZM21 18C20.7348 18 20.4804 18.1054 20.2929 18.2929C20.1054 18.4804 20 18.7348 20 19C20 19.2652 20.1054 19.5196 20.2929 19.7071C20.4804 19.8947 20.7348 20 21 20C21.2652 20 21.5196 19.8947 21.7071 19.7071C21.8946 19.5196 22 19.2652 22 19C22 18.7348 21.8946 18.4804 21.7071 18.2929C21.5196 18.1054 21.2652 18 21 18ZM18.17 18C18.3766 17.4145 18.7597 16.9074 19.2666 16.5488C19.7735 16.1902 20.3791 15.9976 21 15.9976C21.6209 15.9976 22.2265 16.1902 22.7334 16.5488C23.2403 16.9074 23.6234 17.4145 23.83 18H25C25.2652 18 25.5196 18.1054 25.7071 18.2929C25.8946 18.4804 26 18.7348 26 19C26 19.2652 25.8946 19.5196 25.7071 19.7071C25.5196 19.8947 25.2652 20 25 20H23.83C23.6234 20.5855 23.2403 21.0926 22.7334 21.4512C22.2265 21.8099 21.6209 22.0025 21 22.0025C20.3791 22.0025 19.7735 21.8099 19.2666 21.4512C18.7597 21.0926 18.3766 20.5855 18.17 20H11C10.7348 20 10.4804 19.8947 10.2929 19.7071C10.1054 19.5196 10 19.2652 10 19C10 18.7348 10.1054 18.4804 10.2929 18.2929C10.4804 18.1054 10.7348 18 11 18H18.17ZM15 24C14.7348 24 14.4804 24.1054 14.2929 24.2929C14.1054 24.4804 14 24.7348 14 25C14 25.2652 14.1054 25.5196 14.2929 25.7071C14.4804 25.8947 14.7348 26 15 26C15.2652 26 15.5196 25.8947 15.7071 25.7071C15.8946 25.5196 16 25.2652 16 25C16 24.7348 15.8946 24.4804 15.7071 24.2929C15.5196 24.1054 15.2652 24 15 24ZM12.17 24C12.3766 23.4145 12.7597 22.9074 13.2666 22.5488C13.7735 22.1902 14.3791 21.9976 15 21.9976C15.6209 21.9976 16.2265 22.1902 16.7334 22.5488C17.2403 22.9074 17.6234 23.4145 17.83 24H25C25.2652 24 25.5196 24.1054 25.7071 24.2929C25.8946 24.4804 26 24.7348 26 25C26 25.2652 25.8946 25.5196 25.7071 25.7071C25.5196 25.8947 25.2652 26 25 26H17.83C17.6234 26.5855 17.2403 27.0926 16.7334 27.4512C16.2265 27.8099 15.6209 28.0025 15 28.0025C14.3791 28.0025 13.7735 27.8099 13.2666 27.4512C12.7597 27.0926 12.3766 26.5855 12.17 26H11C10.7348 26 10.4804 25.8947 10.2929 25.7071C10.1054 25.5196 10 25.2652 10 25C10 24.7348 10.1054 24.4804 10.2929 24.2929C10.4804 24.1054 10.7348 24 11 24H12.17Z" fill="black"/>
</svg>
