<svg width="251" height="297" viewBox="0 0 251 297" fill="none" xmlns="http://www.w3.org/2000/svg">
<g filter="url(#filter0_d_68_307)">
<path d="M22.0957 205.438H24.3712L26.7747 211.301H26.8769L29.2803 205.438H31.5559V214.165H29.7661V208.485H29.6937L27.4352 214.122H26.2164L23.9579 208.463H23.8855V214.165H22.0957V205.438Z" fill="#767676"/>
<path d="M57.1182 206.959V205.438H64.2858V206.959H61.6139V214.165H59.79V206.959H57.1182Z" fill="#767676"/>
<path d="M91.7699 214.165L89.2727 205.438H91.2884L92.733 211.502H92.8054L94.3991 205.438H96.125L97.7145 211.514H97.7912L99.2358 205.438H101.251L98.7543 214.165H96.956L95.294 208.459H95.2259L93.5682 214.165H91.7699Z" fill="#767676"/>
<path d="M125.828 206.959V205.438H132.995V206.959H130.324V214.165H128.5V206.959H125.828Z" fill="#767676"/>
<path d="M161.015 214.165V205.438H166.794V206.959H162.86V209.039H166.41V210.56H162.86V214.165H161.015Z" fill="#767676"/>
<path d="M200.104 207.948C200.07 207.604 199.924 207.337 199.665 207.147C199.407 206.956 199.056 206.861 198.613 206.861C198.312 206.861 198.057 206.904 197.85 206.989C197.643 207.071 197.484 207.186 197.373 207.334C197.265 207.482 197.211 207.649 197.211 207.837C197.205 207.993 197.238 208.13 197.309 208.246C197.383 208.362 197.484 208.463 197.611 208.549C197.739 208.631 197.887 208.703 198.055 208.766C198.222 208.826 198.401 208.877 198.592 208.919L199.376 209.107C199.756 209.192 200.106 209.306 200.424 209.448C200.742 209.59 201.018 209.764 201.251 209.972C201.484 210.179 201.664 210.424 201.792 210.705C201.923 210.986 201.989 211.309 201.992 211.672C201.989 212.206 201.853 212.669 201.583 213.061C201.316 213.451 200.93 213.753 200.424 213.969C199.921 214.182 199.315 214.289 198.604 214.289C197.9 214.289 197.286 214.181 196.763 213.965C196.244 213.749 195.837 213.429 195.545 213.006C195.255 212.58 195.103 212.053 195.089 211.425H196.874C196.894 211.718 196.978 211.962 197.126 212.158C197.276 212.351 197.477 212.497 197.727 212.597C197.979 212.693 198.265 212.742 198.583 212.742C198.896 212.742 199.167 212.696 199.397 212.605C199.63 212.514 199.81 212.388 199.938 212.226C200.066 212.064 200.13 211.878 200.13 211.668C200.13 211.472 200.072 211.307 199.955 211.174C199.842 211.04 199.674 210.926 199.452 210.833C199.234 210.739 198.965 210.654 198.647 210.577L197.697 210.338C196.961 210.159 196.38 209.88 195.954 209.499C195.528 209.118 195.316 208.605 195.319 207.96C195.316 207.432 195.457 206.97 195.741 206.576C196.028 206.181 196.421 205.872 196.921 205.651C197.421 205.429 197.989 205.318 198.626 205.318C199.273 205.318 199.839 205.429 200.322 205.651C200.807 205.872 201.185 206.181 201.455 206.576C201.725 206.97 201.864 207.428 201.873 207.948H200.104Z" fill="#767676"/>
<path d="M234.459 207.948C234.425 207.604 234.279 207.337 234.02 207.147C233.762 206.956 233.411 206.861 232.968 206.861C232.667 206.861 232.412 206.904 232.205 206.989C231.998 207.071 231.838 207.186 231.728 207.334C231.62 207.482 231.566 207.649 231.566 207.837C231.56 207.993 231.593 208.13 231.664 208.246C231.738 208.362 231.838 208.463 231.966 208.549C232.094 208.631 232.242 208.703 232.409 208.766C232.577 208.826 232.756 208.877 232.946 208.919L233.731 209.107C234.111 209.192 234.461 209.306 234.779 209.448C235.097 209.59 235.373 209.764 235.606 209.972C235.838 210.179 236.019 210.424 236.147 210.705C236.277 210.986 236.344 211.309 236.347 211.672C236.344 212.206 236.208 212.669 235.938 213.061C235.671 213.451 235.284 213.753 234.779 213.969C234.276 214.182 233.669 214.289 232.959 214.289C232.255 214.289 231.641 214.181 231.118 213.965C230.598 213.749 230.192 213.429 229.9 213.006C229.61 212.58 229.458 212.053 229.444 211.425H231.229C231.249 211.718 231.333 211.962 231.481 212.158C231.631 212.351 231.831 212.497 232.081 212.597C232.334 212.693 232.62 212.742 232.938 212.742C233.25 212.742 233.522 212.696 233.752 212.605C233.985 212.514 234.165 212.388 234.293 212.226C234.421 212.064 234.485 211.878 234.485 211.668C234.485 211.472 234.427 211.307 234.31 211.174C234.196 211.04 234.029 210.926 233.807 210.833C233.588 210.739 233.32 210.654 233.002 210.577L232.052 210.338C231.316 210.159 230.735 209.88 230.309 209.499C229.883 209.118 229.671 208.605 229.674 207.96C229.671 207.432 229.811 206.97 230.096 206.576C230.383 206.181 230.776 205.872 231.276 205.651C231.776 205.429 232.344 205.318 232.981 205.318C233.628 205.318 234.194 205.429 234.677 205.651C235.162 205.872 235.54 206.181 235.81 206.576C236.08 206.97 236.219 207.428 236.228 207.948H234.459Z" fill="#767676"/>
<line opacity="0.5" x1="4.38629" y1="239.915" x2="246.897" y2="239.915" stroke="#B1B1B1" stroke-width="0.5"/>
<rect x="18.8372" y="123.821" width="16" height="68.1967" rx="8" fill="#344BFD"/>
<rect x="53.192" y="75.1943" width="16" height="116.823" rx="8" fill="#344BFD"/>
<rect x="87.5469" y="150.599" width="16" height="41.4194" rx="8" fill="#344BFD"/>
<rect x="121.902" y="51.6914" width="16" height="140.327" rx="8" fill="#344BFD"/>
<path d="M129.902 56.6646L131.008 60.0683H134.587L131.691 62.1719L132.797 65.5756L129.902 63.472L127.006 65.5756L128.112 62.1719L125.217 60.0683H128.796L129.902 56.6646Z" fill="white"/>
<rect x="156.257" y="90.1943" width="16" height="101.824" rx="8" fill="#FF955A"/>
<rect x="190.611" y="90.1943" width="16" height="101.824" rx="8" fill="#344BFD"/>
<rect x="224.966" y="90.1943" width="16" height="101.824" rx="8" fill="#344BFD"/>
<path d="M68.8184 15L65.905 4.81818H68.2566L69.942 11.8928H70.0265L71.8859 4.81818H73.8994L75.7538 11.9077H75.8432L77.5286 4.81818H79.8802L76.9668 15H74.8688L72.9299 8.34304H72.8503L70.9164 15H68.8184ZM83.6524 15.1491C82.8669 15.1491 82.1907 14.9901 81.624 14.6719C81.0605 14.3504 80.6263 13.8963 80.3214 13.3097C80.0165 12.7197 79.864 12.022 79.864 11.2166C79.864 10.4311 80.0165 9.74171 80.3214 9.14844C80.6263 8.55516 81.0555 8.0928 81.609 7.76136C82.1659 7.42992 82.8188 7.2642 83.5679 7.2642C84.0716 7.2642 84.5406 7.34541 84.9748 7.50781C85.4123 7.6669 85.7935 7.9072 86.1183 8.22869C86.4464 8.55019 86.7016 8.95455 86.8839 9.44176C87.0662 9.92566 87.1573 10.4924 87.1573 11.142V11.7237H80.7092V10.4112H85.1637C85.1637 10.1063 85.0974 9.83617 84.9649 9.60085C84.8323 9.36553 84.6483 9.18158 84.413 9.04901C84.181 8.91312 83.9109 8.84517 83.6027 8.84517C83.2812 8.84517 82.9961 8.91974 82.7475 9.06889C82.5023 9.21473 82.31 9.41193 82.1708 9.66051C82.0316 9.90578 81.9604 10.1792 81.9571 10.4808V11.7287C81.9571 12.1065 82.0267 12.433 82.1659 12.7081C82.3084 12.9832 82.5089 13.1953 82.7674 13.3445C83.026 13.4936 83.3325 13.5682 83.6872 13.5682C83.9225 13.5682 84.1379 13.535 84.3335 13.4688C84.529 13.4025 84.6964 13.303 84.8356 13.1705C84.9748 13.0379 85.0809 12.8755 85.1538 12.6832L87.1126 12.8125C87.0132 13.2831 86.8093 13.6941 86.5011 14.0455C86.1962 14.3935 85.8018 14.6652 85.3179 14.8608C84.8373 15.053 84.2821 15.1491 83.6524 15.1491ZM92.0196 15.1491C91.234 15.1491 90.5579 14.9901 89.9911 14.6719C89.4277 14.3504 88.9935 13.8963 88.6886 13.3097C88.3837 12.7197 88.2312 12.022 88.2312 11.2166C88.2312 10.4311 88.3837 9.74171 88.6886 9.14844C88.9935 8.55516 89.4227 8.0928 89.9762 7.76136C90.5331 7.42992 91.186 7.2642 91.935 7.2642C92.4388 7.2642 92.9078 7.34541 93.342 7.50781C93.7795 7.6669 94.1607 7.9072 94.4855 8.22869C94.8136 8.55019 95.0688 8.95455 95.2511 9.44176C95.4334 9.92566 95.5245 10.4924 95.5245 11.142V11.7237H89.0764V10.4112H93.5309C93.5309 10.1063 93.4646 9.83617 93.3321 9.60085C93.1995 9.36553 93.0155 9.18158 92.7802 9.04901C92.5482 8.91312 92.2781 8.84517 91.9698 8.84517C91.6483 8.84517 91.3633 8.91974 91.1147 9.06889C90.8695 9.21473 90.6772 9.41193 90.538 9.66051C90.3988 9.90578 90.3276 10.1792 90.3242 10.4808V11.7287C90.3242 12.1065 90.3938 12.433 90.5331 12.7081C90.6756 12.9832 90.8761 13.1953 91.1346 13.3445C91.3931 13.4936 91.6997 13.5682 92.0544 13.5682C92.2897 13.5682 92.5051 13.535 92.7007 13.4688C92.8962 13.4025 93.0636 13.303 93.2028 13.1705C93.342 13.0379 93.4481 12.8755 93.521 12.6832L95.4798 12.8125C95.3804 13.2831 95.1765 13.6941 94.8683 14.0455C94.5634 14.3935 94.1689 14.6652 93.685 14.8608C93.2045 15.053 92.6493 15.1491 92.0196 15.1491ZM98.8257 12.8026L98.8306 10.2621H99.1389L101.585 7.36364H104.016L100.73 11.2017H100.228L98.8257 12.8026ZM96.9066 15V4.81818H99.0245V15H96.9066ZM101.679 15L99.4322 11.674L100.844 10.1776L104.16 15H101.679ZM107.173 4.81818V15H105.055V4.81818H107.173ZM110.177 17.8636C109.909 17.8636 109.657 17.8421 109.421 17.799C109.189 17.7592 108.997 17.7079 108.845 17.6449L109.322 16.0639C109.571 16.1402 109.794 16.1816 109.993 16.1882C110.195 16.1948 110.369 16.1484 110.515 16.049C110.664 15.9496 110.785 15.7805 110.878 15.5419L111.002 15.2188L108.263 7.36364H110.49L112.071 12.9716H112.151L113.747 7.36364H115.989L113.021 15.8253C112.878 16.2363 112.684 16.5942 112.439 16.8991C112.197 17.2074 111.891 17.4444 111.519 17.6101C111.148 17.7791 110.701 17.8636 110.177 17.8636ZM129.709 9.90909C129.709 11.0194 129.499 11.964 129.078 12.7429C128.66 13.5218 128.09 14.1167 127.368 14.5277C126.648 14.9354 125.84 15.1392 124.941 15.1392C124.037 15.1392 123.225 14.9337 122.505 14.5227C121.786 14.1117 121.218 13.5168 120.8 12.7379C120.382 11.959 120.174 11.0161 120.174 9.90909C120.174 8.79877 120.382 7.85417 120.8 7.07528C121.218 6.2964 121.786 5.70312 122.505 5.29545C123.225 4.88447 124.037 4.67898 124.941 4.67898C125.84 4.67898 126.648 4.88447 127.368 5.29545C128.09 5.70312 128.66 6.2964 129.078 7.07528C129.499 7.85417 129.709 8.79877 129.709 9.90909ZM127.527 9.90909C127.527 9.18987 127.419 8.58333 127.204 8.08949C126.991 7.59564 126.691 7.22112 126.304 6.96591C125.916 6.7107 125.462 6.5831 124.941 6.5831C124.421 6.5831 123.967 6.7107 123.579 6.96591C123.191 7.22112 122.89 7.59564 122.674 8.08949C122.462 8.58333 122.356 9.18987 122.356 9.90909C122.356 10.6283 122.462 11.2348 122.674 11.7287C122.89 12.2225 123.191 12.5971 123.579 12.8523C123.967 13.1075 124.421 13.2351 124.941 13.2351C125.462 13.2351 125.916 13.1075 126.304 12.8523C126.691 12.5971 126.991 12.2225 127.204 11.7287C127.419 11.2348 127.527 10.6283 127.527 9.90909ZM138.383 7.36364L135.714 15H133.327L130.658 7.36364H132.895L134.481 12.8274H134.56L136.141 7.36364H138.383ZM142.701 15.1491C141.916 15.1491 141.24 14.9901 140.673 14.6719C140.109 14.3504 139.675 13.8963 139.37 13.3097C139.065 12.7197 138.913 12.022 138.913 11.2166C138.913 10.4311 139.065 9.74171 139.37 9.14844C139.675 8.55516 140.104 8.0928 140.658 7.76136C141.215 7.42992 141.868 7.2642 142.617 7.2642C143.12 7.2642 143.589 7.34541 144.024 7.50781C144.461 7.6669 144.842 7.9072 145.167 8.22869C145.495 8.55019 145.75 8.95455 145.933 9.44176C146.115 9.92566 146.206 10.4924 146.206 11.142V11.7237H139.758V10.4112H144.213C144.213 10.1063 144.146 9.83617 144.014 9.60085C143.881 9.36553 143.697 9.18158 143.462 9.04901C143.23 8.91312 142.96 8.84517 142.651 8.84517C142.33 8.84517 142.045 8.91974 141.796 9.06889C141.551 9.21473 141.359 9.41193 141.22 9.66051C141.08 9.90578 141.009 10.1792 141.006 10.4808V11.7287C141.006 12.1065 141.075 12.433 141.215 12.7081C141.357 12.9832 141.558 13.1953 141.816 13.3445C142.075 13.4936 142.381 13.5682 142.736 13.5682C142.971 13.5682 143.187 13.535 143.382 13.4688C143.578 13.4025 143.745 13.303 143.884 13.1705C144.024 13.0379 144.13 12.8755 144.203 12.6832L146.161 12.8125C146.062 13.2831 145.858 13.6941 145.55 14.0455C145.245 14.3935 144.851 14.6652 144.367 14.8608C143.886 15.053 143.331 15.1491 142.701 15.1491ZM147.588 15V7.36364H149.642V8.69602H149.721C149.86 8.22206 150.094 7.86411 150.422 7.62216C150.75 7.37689 151.128 7.25426 151.556 7.25426C151.662 7.25426 151.776 7.26089 151.899 7.27415C152.021 7.28741 152.129 7.30563 152.222 7.32883V9.2081C152.122 9.17827 151.985 9.15175 151.809 9.12855C151.633 9.10535 151.473 9.09375 151.327 9.09375C151.015 9.09375 150.737 9.1617 150.492 9.29759C150.25 9.43016 150.057 9.61577 149.915 9.8544C149.776 10.093 149.706 10.3681 149.706 10.6797V15H147.588ZM160.669 7.36364L157.999 15H155.612L152.943 7.36364H155.18L156.766 12.8274H156.845L158.426 7.36364H160.669ZM161.752 15V7.36364H163.87V15H161.752ZM162.816 6.37926C162.501 6.37926 162.231 6.27486 162.006 6.06605C161.784 5.85393 161.673 5.60038 161.673 5.3054C161.673 5.01373 161.784 4.76349 162.006 4.55469C162.231 4.34257 162.501 4.23651 162.816 4.23651C163.131 4.23651 163.4 4.34257 163.622 4.55469C163.847 4.76349 163.96 5.01373 163.96 5.3054C163.96 5.60038 163.847 5.85393 163.622 6.06605C163.4 6.27486 163.131 6.37926 162.816 6.37926ZM169.047 15.1491C168.261 15.1491 167.585 14.9901 167.018 14.6719C166.455 14.3504 166.021 13.8963 165.716 13.3097C165.411 12.7197 165.259 12.022 165.259 11.2166C165.259 10.4311 165.411 9.74171 165.716 9.14844C166.021 8.55516 166.45 8.0928 167.004 7.76136C167.56 7.42992 168.213 7.2642 168.962 7.2642C169.466 7.2642 169.935 7.34541 170.369 7.50781C170.807 7.6669 171.188 7.9072 171.513 8.22869C171.841 8.55019 172.096 8.95455 172.278 9.44176C172.461 9.92566 172.552 10.4924 172.552 11.142V11.7237H166.104V10.4112H170.558C170.558 10.1063 170.492 9.83617 170.359 9.60085C170.227 9.36553 170.043 9.18158 169.808 9.04901C169.576 8.91312 169.305 8.84517 168.997 8.84517C168.676 8.84517 168.391 8.91974 168.142 9.06889C167.897 9.21473 167.705 9.41193 167.565 9.66051C167.426 9.90578 167.355 10.1792 167.352 10.4808V11.7287C167.352 12.1065 167.421 12.433 167.56 12.7081C167.703 12.9832 167.903 13.1953 168.162 13.3445C168.42 13.4936 168.727 13.5682 169.082 13.5682C169.317 13.5682 169.532 13.535 169.728 13.4688C169.924 13.4025 170.091 13.303 170.23 13.1705C170.369 13.0379 170.475 12.8755 170.548 12.6832L172.507 12.8125C172.408 13.2831 172.204 13.6941 171.896 14.0455C171.591 14.3935 171.196 14.6652 170.712 14.8608C170.232 15.053 169.677 15.1491 169.047 15.1491ZM175.386 15L173.308 7.36364H175.45L176.634 12.4943H176.703L177.936 7.36364H180.039L181.292 12.4645H181.357L182.52 7.36364H184.658L182.585 15H180.342L179.03 10.1974H178.935L177.623 15H175.386Z" fill="#2E2E30"/>
<path d="M91.3205 29.54H90.3972L93.0677 22.2673H93.9768L96.6472 29.54H95.7239L93.5506 23.4179H93.4938L91.3205 29.54ZM91.6614 26.6991H95.383V27.4804H91.6614V26.6991ZM97.6664 31.5855V24.0855H98.4761V24.952H98.5755C98.637 24.8573 98.7223 24.7365 98.8312 24.5898C98.9424 24.4406 99.1011 24.308 99.307 24.192C99.5154 24.0737 99.7971 24.0145 100.152 24.0145C100.611 24.0145 101.016 24.1293 101.367 24.3589C101.717 24.5886 101.99 24.9141 102.187 25.3355C102.383 25.7569 102.482 26.2541 102.482 26.827C102.482 27.4046 102.383 27.9053 102.187 28.3291C101.99 28.7505 101.718 29.0772 101.37 29.3092C101.022 29.5389 100.621 29.6537 100.166 29.6537C99.816 29.6537 99.5355 29.5957 99.3248 29.4797C99.1141 29.3613 98.9519 29.2275 98.8383 29.0784C98.7246 28.9269 98.637 28.8014 98.5755 28.702H98.5045V31.5855H97.6664ZM98.4903 26.8128C98.4903 27.2247 98.5506 27.5881 98.6714 27.903C98.7921 28.2155 98.9685 28.4605 99.2005 28.6381C99.4325 28.8132 99.7166 28.9008 100.053 28.9008C100.403 28.9008 100.696 28.8085 100.93 28.6238C101.167 28.4368 101.344 28.1859 101.463 27.871C101.583 27.5538 101.644 27.201 101.644 26.8128C101.644 26.4292 101.584 26.0836 101.466 25.7758C101.35 25.4657 101.174 25.2207 100.937 25.0407C100.703 24.8585 100.408 24.7673 100.053 24.7673C99.7119 24.7673 99.4254 24.8537 99.1934 25.0265C98.9614 25.197 98.7862 25.4361 98.6678 25.7439C98.5494 26.0493 98.4903 26.4056 98.4903 26.8128ZM103.76 29.54V24.0855H104.57V24.9094H104.627C104.726 24.6395 104.906 24.4205 105.166 24.2524C105.427 24.0843 105.72 24.0003 106.047 24.0003C106.109 24.0003 106.186 24.0014 106.278 24.0038C106.37 24.0062 106.44 24.0097 106.487 24.0145V24.8667C106.459 24.8596 106.394 24.849 106.292 24.8348C106.193 24.8182 106.087 24.8099 105.976 24.8099C105.711 24.8099 105.474 24.8656 105.266 24.9768C105.06 25.0857 104.897 25.2372 104.776 25.4314C104.657 25.6231 104.598 25.8421 104.598 26.0883V29.54H103.76ZM112.836 22.2673V29.54H111.955V23.1906H111.913L110.137 24.3696V23.4747L111.955 22.2673H112.836ZM117.3 29.6395C116.765 29.6395 116.309 29.4939 115.933 29.2027C115.556 28.9091 115.268 28.4842 115.07 27.9278C114.871 27.3691 114.771 26.6944 114.771 25.9037C114.771 25.1177 114.871 24.4465 115.07 23.8902C115.271 23.3315 115.56 22.9053 115.936 22.6118C116.315 22.3158 116.769 22.1679 117.3 22.1679C117.83 22.1679 118.283 22.3158 118.66 22.6118C119.039 22.9053 119.327 23.3315 119.526 23.8902C119.728 24.4465 119.828 25.1177 119.828 25.9037C119.828 26.6944 119.729 27.3691 119.53 27.9278C119.331 28.4842 119.043 28.9091 118.667 29.2027C118.291 29.4939 117.835 29.6395 117.3 29.6395ZM117.3 28.8582C117.83 28.8582 118.242 28.6025 118.536 28.0912C118.829 27.5798 118.976 26.8506 118.976 25.9037C118.976 25.2739 118.908 24.7377 118.773 24.295C118.641 23.8523 118.449 23.5149 118.198 23.2829C117.95 23.0509 117.65 22.9349 117.3 22.9349C116.774 22.9349 116.363 23.1942 116.067 23.7126C115.772 24.2287 115.624 24.9591 115.624 25.9037C115.624 26.5334 115.69 27.0684 115.822 27.5088C115.955 27.9491 116.146 28.2841 116.394 28.5138C116.645 28.7434 116.947 28.8582 117.3 28.8582ZM127.129 25.5131V26.2943H123.947V25.5131H127.129ZM131.828 29.54H130.905L133.575 22.2673H134.485L137.155 29.54H136.232L134.058 23.4179H134.002L131.828 29.54ZM132.169 26.6991H135.891V27.4804H132.169V26.6991ZM138.174 31.5855V24.0855H138.984V24.952H139.083C139.145 24.8573 139.23 24.7365 139.339 24.5898C139.45 24.4406 139.609 24.308 139.815 24.192C140.023 24.0737 140.305 24.0145 140.66 24.0145C141.119 24.0145 141.524 24.1293 141.874 24.3589C142.225 24.5886 142.498 24.9141 142.695 25.3355C142.891 25.7569 142.99 26.2541 142.99 26.827C142.99 27.4046 142.891 27.9053 142.695 28.3291C142.498 28.7505 142.226 29.0772 141.878 29.3092C141.53 29.5389 141.129 29.6537 140.674 29.6537C140.324 29.6537 140.043 29.5957 139.833 29.4797C139.622 29.3613 139.46 29.2275 139.346 29.0784C139.232 28.9269 139.145 28.8014 139.083 28.702H139.012V31.5855H138.174ZM138.998 26.8128C138.998 27.2247 139.058 27.5881 139.179 27.903C139.3 28.2155 139.476 28.4605 139.708 28.6381C139.94 28.8132 140.224 28.9008 140.561 28.9008C140.911 28.9008 141.203 28.8085 141.438 28.6238C141.674 28.4368 141.852 28.1859 141.97 27.871C142.091 27.5538 142.151 27.201 142.151 26.8128C142.151 26.4292 142.092 26.0836 141.974 25.7758C141.858 25.4657 141.682 25.2207 141.445 25.0407C141.21 24.8585 140.916 24.7673 140.561 24.7673C140.22 24.7673 139.933 24.8537 139.701 25.0265C139.469 25.197 139.294 25.4361 139.176 25.7439C139.057 26.0493 138.998 26.4056 138.998 26.8128ZM144.268 29.54V24.0855H145.078V24.9094H145.134C145.234 24.6395 145.414 24.4205 145.674 24.2524C145.935 24.0843 146.228 24.0003 146.555 24.0003C146.616 24.0003 146.693 24.0014 146.786 24.0038C146.878 24.0062 146.948 24.0097 146.995 24.0145V24.8667C146.967 24.8596 146.902 24.849 146.8 24.8348C146.7 24.8182 146.595 24.8099 146.484 24.8099C146.219 24.8099 145.982 24.8656 145.774 24.9768C145.568 25.0857 145.404 25.2372 145.284 25.4314C145.165 25.6231 145.106 25.8421 145.106 26.0883V29.54H144.268ZM153.344 22.2673V29.54H152.463V23.1906H152.42L150.645 24.3696V23.4747L152.463 22.2673H153.344ZM155.663 29.54L158.916 23.1054V23.0486H155.166V22.2673H159.825V23.0912L156.586 29.54H155.663Z" fill="#2E2E30"/>
<path d="M45.6912 263.337H47.758L49.748 267.096H49.8332L51.8233 263.337H53.8901L50.7068 268.979V272.064H48.8744V268.979L45.6912 263.337ZM56.4501 272.192C55.7881 272.192 55.2157 272.052 54.7327 271.77C54.2526 271.486 53.8819 271.091 53.6205 270.586C53.3592 270.077 53.2285 269.488 53.2285 268.817C53.2285 268.141 53.3592 267.55 53.6205 267.045C53.8819 266.536 54.2526 266.141 54.7327 265.86C55.2157 265.576 55.7881 265.434 56.4501 265.434C57.112 265.434 57.683 265.576 58.1631 265.86C58.6461 266.141 59.0182 266.536 59.2796 267.045C59.541 267.55 59.6717 268.141 59.6717 268.817C59.6717 269.488 59.541 270.077 59.2796 270.586C59.0182 271.091 58.6461 271.486 58.1631 271.77C57.683 272.052 57.112 272.192 56.4501 272.192ZM56.4586 270.786C56.7597 270.786 57.0111 270.701 57.2129 270.53C57.4146 270.357 57.5665 270.121 57.6688 269.823C57.7739 269.525 57.8265 269.185 57.8265 268.805C57.8265 268.424 57.7739 268.084 57.6688 267.786C57.5665 267.488 57.4146 267.252 57.2129 267.079C57.0111 266.905 56.7597 266.819 56.4586 266.819C56.1546 266.819 55.8989 266.905 55.6915 267.079C55.487 267.252 55.3322 267.488 55.2271 267.786C55.1248 268.084 55.0736 268.424 55.0736 268.805C55.0736 269.185 55.1248 269.525 55.2271 269.823C55.3322 270.121 55.487 270.357 55.6915 270.53C55.8989 270.701 56.1546 270.786 56.4586 270.786ZM65.0495 269.278V265.519H66.8648V272.064H65.1219V270.876H65.0538C64.906 271.259 64.6603 271.567 64.3165 271.8C63.9756 272.033 63.5594 272.15 63.068 272.15C62.6305 272.15 62.2455 272.05 61.9131 271.851C61.5807 271.653 61.3208 271.37 61.1333 271.003C60.9486 270.637 60.8549 270.198 60.8521 269.687V265.519H62.6674V269.363C62.6702 269.749 62.7739 270.055 62.9785 270.279C63.183 270.503 63.4572 270.616 63.8009 270.616C64.0197 270.616 64.2242 270.566 64.4146 270.466C64.6049 270.364 64.7583 270.214 64.8748 270.015C64.9941 269.816 65.0523 269.57 65.0495 269.278ZM72.9607 272.188C72.5431 272.188 72.1709 272.116 71.8442 271.971C71.5175 271.823 71.259 271.606 71.0687 271.319C70.8812 271.029 70.7874 270.668 70.7874 270.236C70.7874 269.873 70.8542 269.567 70.9877 269.32C71.1212 269.073 71.3031 268.874 71.5332 268.724C71.7633 268.573 72.0246 268.459 72.3173 268.383C72.6127 268.306 72.9224 268.252 73.2462 268.221C73.6269 268.181 73.9337 268.144 74.1667 268.11C74.3996 268.073 74.5687 268.019 74.6738 267.948C74.7789 267.877 74.8315 267.772 74.8315 267.633V267.607C74.8315 267.337 74.7462 267.128 74.5758 266.981C74.4082 266.833 74.1695 266.759 73.8599 266.759C73.5332 266.759 73.2732 266.831 73.08 266.976C72.8869 267.118 72.759 267.297 72.6965 267.513L71.0175 267.377C71.1028 266.979 71.2704 266.635 71.5204 266.346C71.7704 266.053 72.0928 265.829 72.4877 265.672C72.8854 265.513 73.3457 265.434 73.8684 265.434C74.232 265.434 74.58 265.476 74.9124 265.562C75.2477 265.647 75.5445 265.779 75.8031 265.958C76.0644 266.137 76.2704 266.367 76.4209 266.648C76.5715 266.927 76.6468 267.26 76.6468 267.65V272.064H74.9252V271.157H74.8741C74.769 271.361 74.6283 271.542 74.4522 271.698C74.2761 271.851 74.0644 271.972 73.8173 272.06C73.5701 272.145 73.2846 272.188 72.9607 272.188ZM73.4806 270.935C73.7477 270.935 73.9834 270.883 74.188 270.778C74.3925 270.67 74.5531 270.525 74.6695 270.343C74.786 270.161 74.8442 269.955 74.8442 269.725V269.03C74.7874 269.067 74.7093 269.101 74.6099 269.133C74.5133 269.161 74.4039 269.188 74.2817 269.214C74.1596 269.236 74.0374 269.258 73.9153 269.278C73.7931 269.295 73.6823 269.31 73.5829 269.324C73.3698 269.356 73.1837 269.405 73.0246 269.474C72.8656 269.542 72.742 269.634 72.6539 269.751C72.5658 269.864 72.5218 270.006 72.5218 270.177C72.5218 270.424 72.6113 270.613 72.7903 270.743C72.9721 270.871 73.2022 270.935 73.4806 270.935ZM78.0552 272.064V265.519H79.8151V266.661H79.8833C80.0026 266.255 80.2029 265.948 80.4842 265.741C80.7654 265.53 81.0893 265.425 81.4557 265.425C81.5467 265.425 81.6447 265.431 81.7498 265.442C81.8549 265.454 81.9472 265.469 82.0268 265.489V267.1C81.9415 267.074 81.8236 267.052 81.6731 267.032C81.5225 267.012 81.3847 267.002 81.2597 267.002C80.9927 267.002 80.754 267.06 80.5438 267.177C80.3364 267.29 80.1717 267.449 80.0495 267.654C79.9302 267.858 79.8705 268.094 79.8705 268.361V272.064H78.0552ZM85.6436 272.192C84.9703 272.192 84.3908 272.056 83.905 271.783C83.422 271.508 83.0499 271.118 82.7885 270.616C82.5271 270.11 82.3964 269.512 82.3964 268.822C82.3964 268.148 82.5271 267.557 82.7885 267.049C83.0499 266.54 83.4178 266.144 83.8922 265.86C84.3695 265.576 84.9291 265.434 85.5712 265.434C86.003 265.434 86.405 265.503 86.7771 265.643C87.1521 265.779 87.4788 265.985 87.7572 266.26C88.0385 266.536 88.2572 266.883 88.4135 267.3C88.5697 267.715 88.6479 268.201 88.6479 268.758V269.256H83.1209V268.131H86.9391C86.9391 267.87 86.8822 267.638 86.7686 267.437C86.655 267.235 86.4973 267.077 86.2956 266.964C86.0967 266.847 85.8652 266.789 85.601 266.789C85.3254 266.789 85.0811 266.853 84.868 266.981C84.6578 267.106 84.493 267.275 84.3737 267.488C84.2544 267.698 84.1933 267.932 84.1905 268.191V269.26C84.1905 269.584 84.2501 269.864 84.3695 270.1C84.4916 270.336 84.6635 270.518 84.8851 270.645C85.1067 270.773 85.3695 270.837 85.6734 270.837C85.8751 270.837 86.0598 270.809 86.2274 270.752C86.395 270.695 86.5385 270.61 86.6578 270.496C86.7771 270.383 86.868 270.243 86.9305 270.079L88.6095 270.189C88.5243 270.593 88.3496 270.945 88.0854 271.246C87.824 271.545 87.4859 271.778 87.0712 271.945C86.6592 272.11 86.1834 272.192 85.6436 272.192ZM95.0218 272.171C94.5246 272.171 94.0744 272.043 93.6709 271.787C93.2704 271.529 92.9522 271.15 92.7164 270.65C92.4834 270.147 92.367 269.53 92.367 268.8C92.367 268.05 92.4877 267.427 92.7292 266.93C92.9707 266.43 93.2917 266.056 93.6923 265.809C94.0957 265.559 94.5374 265.434 95.0175 265.434C95.384 265.434 95.6894 265.496 95.9337 265.621C96.1809 265.743 96.3798 265.897 96.5303 266.081C96.6837 266.263 96.8002 266.442 96.8798 266.618H96.9352V263.337H98.7462V272.064H96.9565V271.016H96.8798C96.7945 271.198 96.6738 271.378 96.5175 271.557C96.3641 271.733 96.1638 271.88 95.9167 271.996C95.6724 272.113 95.3741 272.171 95.0218 272.171ZM95.5971 270.726C95.8897 270.726 96.1369 270.647 96.3386 270.488C96.5431 270.326 96.6994 270.1 96.8073 269.81C96.9181 269.52 96.9735 269.181 96.9735 268.792C96.9735 268.403 96.9195 268.064 96.8116 267.778C96.7036 267.491 96.5474 267.269 96.3428 267.113C96.1383 266.956 95.8897 266.878 95.5971 266.878C95.2988 266.878 95.0474 266.959 94.8428 267.121C94.6383 267.283 94.4834 267.508 94.3783 267.795C94.2732 268.081 94.2207 268.414 94.2207 268.792C94.2207 269.172 94.2732 269.509 94.3783 269.802C94.4863 270.091 94.6411 270.319 94.8428 270.483C95.0474 270.645 95.2988 270.726 95.5971 270.726ZM103.196 272.192C102.534 272.192 101.962 272.052 101.479 271.77C100.999 271.486 100.628 271.091 100.367 270.586C100.105 270.077 99.9746 269.488 99.9746 268.817C99.9746 268.141 100.105 267.55 100.367 267.045C100.628 266.536 100.999 266.141 101.479 265.86C101.962 265.576 102.534 265.434 103.196 265.434C103.858 265.434 104.429 265.576 104.909 265.86C105.392 266.141 105.764 266.536 106.026 267.045C106.287 267.55 106.418 268.141 106.418 268.817C106.418 269.488 106.287 270.077 106.026 270.586C105.764 271.091 105.392 271.486 104.909 271.77C104.429 272.052 103.858 272.192 103.196 272.192ZM103.205 270.786C103.506 270.786 103.757 270.701 103.959 270.53C104.161 270.357 104.313 270.121 104.415 269.823C104.52 269.525 104.573 269.185 104.573 268.805C104.573 268.424 104.52 268.084 104.415 267.786C104.313 267.488 104.161 267.252 103.959 267.079C103.757 266.905 103.506 266.819 103.205 266.819C102.901 266.819 102.645 266.905 102.438 267.079C102.233 267.252 102.078 267.488 101.973 267.786C101.871 268.084 101.82 268.424 101.82 268.805C101.82 269.185 101.871 269.525 101.973 269.823C102.078 270.121 102.233 270.357 102.438 270.53C102.645 270.701 102.901 270.786 103.205 270.786ZM107.598 272.064V265.519H109.413V272.064H107.598ZM108.51 264.675C108.24 264.675 108.009 264.586 107.815 264.407C107.625 264.225 107.53 264.008 107.53 263.755C107.53 263.505 107.625 263.29 107.815 263.111C108.009 262.93 108.24 262.839 108.51 262.839C108.78 262.839 109.01 262.93 109.2 263.111C109.394 263.29 109.49 263.505 109.49 263.755C109.49 264.008 109.394 264.225 109.2 264.407C109.01 264.586 108.78 264.675 108.51 264.675ZM112.683 268.28V272.064H110.868V265.519H112.598V266.674H112.674C112.819 266.293 113.062 265.992 113.403 265.77C113.744 265.546 114.157 265.434 114.643 265.434C115.098 265.434 115.494 265.533 115.832 265.732C116.17 265.931 116.433 266.215 116.621 266.584C116.808 266.951 116.902 267.388 116.902 267.897V272.064H115.086V268.221C115.089 267.82 114.987 267.508 114.78 267.283C114.572 267.056 114.287 266.942 113.923 266.942C113.679 266.942 113.463 266.995 113.275 267.1C113.091 267.205 112.946 267.358 112.841 267.56C112.738 267.759 112.686 267.999 112.683 268.28ZM121.281 274.655C120.693 274.655 120.189 274.574 119.769 274.412C119.351 274.253 119.019 274.036 118.771 273.76C118.524 273.485 118.364 273.175 118.29 272.831L119.969 272.606C120.02 272.736 120.101 272.858 120.212 272.972C120.323 273.086 120.469 273.177 120.651 273.245C120.835 273.316 121.06 273.351 121.324 273.351C121.719 273.351 122.044 273.255 122.3 273.062C122.558 272.871 122.688 272.552 122.688 272.103V270.905H122.611C122.531 271.087 122.412 271.259 122.253 271.421C122.094 271.583 121.889 271.715 121.639 271.817C121.389 271.92 121.091 271.971 120.744 271.971C120.253 271.971 119.806 271.857 119.402 271.63C119.002 271.4 118.682 271.049 118.443 270.577C118.208 270.103 118.09 269.503 118.09 268.779C118.09 268.037 118.21 267.418 118.452 266.921C118.693 266.424 119.014 266.052 119.415 265.805C119.818 265.557 120.26 265.434 120.74 265.434C121.107 265.434 121.413 265.496 121.661 265.621C121.908 265.743 122.107 265.897 122.257 266.081C122.411 266.263 122.529 266.442 122.611 266.618H122.679V265.519H124.482V272.128C124.482 272.685 124.345 273.151 124.073 273.526C123.8 273.901 123.422 274.182 122.939 274.37C122.459 274.56 121.906 274.655 121.281 274.655ZM121.32 270.607C121.612 270.607 121.86 270.535 122.061 270.39C122.266 270.242 122.422 270.032 122.53 269.759C122.641 269.483 122.696 269.154 122.696 268.77C122.696 268.387 122.642 268.055 122.534 267.773C122.426 267.489 122.27 267.269 122.065 267.113C121.861 266.956 121.612 266.878 121.32 266.878C121.021 266.878 120.77 266.959 120.565 267.121C120.361 267.28 120.206 267.502 120.101 267.786C119.996 268.07 119.943 268.398 119.943 268.77C119.943 269.148 119.996 269.475 120.101 269.751C120.209 270.023 120.364 270.235 120.565 270.385C120.77 270.533 121.021 270.607 121.32 270.607ZM131.652 274.655C131.064 274.655 130.56 274.574 130.14 274.412C129.722 274.253 129.39 274.036 129.143 273.76C128.895 273.485 128.735 273.175 128.661 272.831L130.34 272.606C130.391 272.736 130.472 272.858 130.583 272.972C130.694 273.086 130.84 273.177 131.022 273.245C131.206 273.316 131.431 273.351 131.695 273.351C132.09 273.351 132.415 273.255 132.671 273.062C132.929 272.871 133.059 272.552 133.059 272.103V270.905H132.982C132.902 271.087 132.783 271.259 132.624 271.421C132.465 271.583 132.26 271.715 132.01 271.817C131.76 271.92 131.462 271.971 131.116 271.971C130.624 271.971 130.177 271.857 129.773 271.63C129.373 271.4 129.053 271.049 128.814 270.577C128.579 270.103 128.461 269.503 128.461 268.779C128.461 268.037 128.581 267.418 128.823 266.921C129.064 266.424 129.385 266.052 129.786 265.805C130.189 265.557 130.631 265.434 131.111 265.434C131.478 265.434 131.785 265.496 132.032 265.621C132.279 265.743 132.478 265.897 132.628 266.081C132.782 266.263 132.9 266.442 132.982 266.618H133.05V265.519H134.853V272.128C134.853 272.685 134.716 273.151 134.444 273.526C134.171 273.901 133.793 274.182 133.31 274.37C132.83 274.56 132.277 274.655 131.652 274.655ZM131.691 270.607C131.983 270.607 132.231 270.535 132.432 270.39C132.637 270.242 132.793 270.032 132.901 269.759C133.012 269.483 133.067 269.154 133.067 268.77C133.067 268.387 133.013 268.055 132.905 267.773C132.797 267.489 132.641 267.269 132.437 267.113C132.232 266.956 131.983 266.878 131.691 266.878C131.393 266.878 131.141 266.959 130.937 267.121C130.732 267.28 130.577 267.502 130.472 267.786C130.367 268.07 130.314 268.398 130.314 268.77C130.314 269.148 130.367 269.475 130.472 269.751C130.58 270.023 130.735 270.235 130.937 270.385C131.141 270.533 131.393 270.607 131.691 270.607ZM139.255 272.192C138.593 272.192 138.02 272.052 137.537 271.77C137.057 271.486 136.687 271.091 136.425 270.586C136.164 270.077 136.033 269.488 136.033 268.817C136.033 268.141 136.164 267.55 136.425 267.045C136.687 266.536 137.057 266.141 137.537 265.86C138.02 265.576 138.593 265.434 139.255 265.434C139.917 265.434 140.488 265.576 140.968 265.86C141.451 266.141 141.823 266.536 142.084 267.045C142.346 267.55 142.476 268.141 142.476 268.817C142.476 269.488 142.346 270.077 142.084 270.586C141.823 271.091 141.451 271.486 140.968 271.77C140.488 272.052 139.917 272.192 139.255 272.192ZM139.263 270.786C139.564 270.786 139.816 270.701 140.018 270.53C140.219 270.357 140.371 270.121 140.474 269.823C140.579 269.525 140.631 269.185 140.631 268.805C140.631 268.424 140.579 268.084 140.474 267.786C140.371 267.488 140.219 267.252 140.018 267.079C139.816 266.905 139.564 266.819 139.263 266.819C138.959 266.819 138.704 266.905 138.496 267.079C138.292 267.252 138.137 267.488 138.032 267.786C137.929 268.084 137.878 268.424 137.878 268.805C137.878 269.185 137.929 269.525 138.032 269.823C138.137 270.121 138.292 270.357 138.496 270.53C138.704 270.701 138.959 270.786 139.263 270.786ZM146.614 272.192C145.952 272.192 145.38 272.052 144.897 271.77C144.417 271.486 144.046 271.091 143.785 270.586C143.523 270.077 143.393 269.488 143.393 268.817C143.393 268.141 143.523 267.55 143.785 267.045C144.046 266.536 144.417 266.141 144.897 265.86C145.38 265.576 145.952 265.434 146.614 265.434C147.276 265.434 147.847 265.576 148.327 265.86C148.81 266.141 149.182 266.536 149.444 267.045C149.705 267.55 149.836 268.141 149.836 268.817C149.836 269.488 149.705 270.077 149.444 270.586C149.182 271.091 148.81 271.486 148.327 271.77C147.847 272.052 147.276 272.192 146.614 272.192ZM146.623 270.786C146.924 270.786 147.175 270.701 147.377 270.53C147.579 270.357 147.731 270.121 147.833 269.823C147.938 269.525 147.991 269.185 147.991 268.805C147.991 268.424 147.938 268.084 147.833 267.786C147.731 267.488 147.579 267.252 147.377 267.079C147.175 266.905 146.924 266.819 146.623 266.819C146.319 266.819 146.063 266.905 145.856 267.079C145.651 267.252 145.496 267.488 145.391 267.786C145.289 268.084 145.238 268.424 145.238 268.805C145.238 269.185 145.289 269.525 145.391 269.823C145.496 270.121 145.651 270.357 145.856 270.53C146.063 270.701 146.319 270.786 146.623 270.786ZM153.428 272.171C152.931 272.171 152.481 272.043 152.077 271.787C151.677 271.529 151.358 271.15 151.123 270.65C150.89 270.147 150.773 269.53 150.773 268.8C150.773 268.05 150.894 267.427 151.135 266.93C151.377 266.43 151.698 266.056 152.099 265.809C152.502 265.559 152.944 265.434 153.424 265.434C153.79 265.434 154.096 265.496 154.34 265.621C154.587 265.743 154.786 265.897 154.937 266.081C155.09 266.263 155.206 266.442 155.286 266.618H155.341V263.337H157.152V272.064H155.363V271.016H155.286C155.201 271.198 155.08 271.378 154.924 271.557C154.77 271.733 154.57 271.88 154.323 271.996C154.079 272.113 153.78 272.171 153.428 272.171ZM154.003 270.726C154.296 270.726 154.543 270.647 154.745 270.488C154.949 270.326 155.106 270.1 155.214 269.81C155.324 269.52 155.38 269.181 155.38 268.792C155.38 268.403 155.326 268.064 155.218 267.778C155.11 267.491 154.954 267.269 154.749 267.113C154.545 266.956 154.296 266.878 154.003 266.878C153.705 266.878 153.454 266.959 153.249 267.121C153.045 267.283 152.89 267.508 152.785 267.795C152.679 268.081 152.627 268.414 152.627 268.792C152.627 269.172 152.679 269.509 152.785 269.802C152.893 270.091 153.047 270.319 153.249 270.483C153.454 270.645 153.705 270.726 154.003 270.726ZM160.814 263.337L160.648 269.448H159.088L158.918 263.337H160.814ZM159.868 272.175C159.587 272.175 159.345 272.076 159.144 271.877C158.942 271.675 158.842 271.434 158.845 271.153C158.842 270.874 158.942 270.635 159.144 270.437C159.345 270.238 159.587 270.138 159.868 270.138C160.138 270.138 160.375 270.238 160.58 270.437C160.784 270.635 160.888 270.874 160.891 271.153C160.888 271.34 160.838 271.512 160.742 271.668C160.648 271.822 160.524 271.945 160.371 272.039C160.217 272.13 160.05 272.175 159.868 272.175Z" fill="#767676"/>
<path d="M45.6997 279.034H46.7082L48.7253 282.429H48.8105L50.8276 279.034H51.8361L49.2082 283.31V286.307H48.3276V283.31L45.6997 279.034ZM54.3059 286.421C53.8135 286.421 53.3814 286.304 53.0097 286.069C52.6404 285.835 52.3516 285.507 52.1432 285.086C51.9373 284.664 51.8343 284.172 51.8343 283.608C51.8343 283.04 51.9373 282.544 52.1432 282.12C52.3516 281.697 52.6404 281.367 53.0097 281.133C53.3814 280.899 53.8135 280.782 54.3059 280.782C54.7983 280.782 55.2292 280.899 55.5985 281.133C55.9702 281.367 56.259 281.697 56.465 282.12C56.6733 282.544 56.7775 283.04 56.7775 283.608C56.7775 284.172 56.6733 284.664 56.465 285.086C56.259 285.507 55.9702 285.835 55.5985 286.069C55.2292 286.304 54.7983 286.421 54.3059 286.421ZM54.3059 285.668C54.6799 285.668 54.9877 285.572 55.2292 285.38C55.4707 285.189 55.6494 284.936 55.7654 284.624C55.8814 284.311 55.9394 283.973 55.9394 283.608C55.9394 283.244 55.8814 282.904 55.7654 282.589C55.6494 282.274 55.4707 282.02 55.2292 281.826C54.9877 281.631 54.6799 281.534 54.3059 281.534C53.9318 281.534 53.6241 281.631 53.3826 281.826C53.1411 282.02 52.9624 282.274 52.8464 282.589C52.7304 282.904 52.6724 283.244 52.6724 283.608C52.6724 283.973 52.7304 284.311 52.8464 284.624C52.9624 284.936 53.1411 285.189 53.3826 285.38C53.6241 285.572 53.9318 285.668 54.3059 285.668ZM61.4943 284.077V280.853H62.3323V286.307H61.4943V285.384H61.4375C61.3096 285.661 61.1108 285.896 60.8409 286.091C60.571 286.282 60.2301 286.378 59.8181 286.378C59.4772 286.378 59.1742 286.304 58.9091 286.154C58.6439 286.003 58.4356 285.776 58.2841 285.473C58.1325 285.167 58.0568 284.783 58.0568 284.318V280.853H58.8948V284.262C58.8948 284.659 59.0061 284.977 59.2287 285.213C59.4536 285.45 59.74 285.568 60.088 285.568C60.2964 285.568 60.5082 285.515 60.7237 285.409C60.9415 285.302 61.1238 285.139 61.2706 284.919C61.4197 284.698 61.4943 284.418 61.4943 284.077ZM68.2849 286.435C67.9393 286.435 67.6256 286.37 67.3439 286.24C67.0622 286.107 66.8384 285.917 66.6727 285.668C66.507 285.417 66.4241 285.114 66.4241 284.759C66.4241 284.446 66.4857 284.193 66.6088 283.999C66.7319 283.802 66.8964 283.649 67.1024 283.537C67.3084 283.426 67.5357 283.343 67.7842 283.289C68.0352 283.232 68.2873 283.187 68.5406 283.154C68.8721 283.111 69.1408 283.079 69.3467 283.058C69.5551 283.034 69.7066 282.995 69.8013 282.941C69.8983 282.886 69.9469 282.792 69.9469 282.657V282.628C69.9469 282.278 69.851 282.006 69.6592 281.811C69.4698 281.617 69.1822 281.52 68.7963 281.52C68.3962 281.52 68.0825 281.608 67.8553 281.783C67.628 281.958 67.4682 282.145 67.3758 282.344L66.5804 282.06C66.7224 281.729 66.9118 281.47 67.1486 281.286C67.3877 281.099 67.6481 280.969 67.9298 280.895C68.2139 280.819 68.4933 280.782 68.7679 280.782C68.9431 280.782 69.1443 280.803 69.3716 280.845C69.6012 280.886 69.8226 280.97 70.0357 281.098C70.2511 281.225 70.4298 281.418 70.5719 281.676C70.7139 281.934 70.7849 282.28 70.7849 282.713V286.307H69.9469V285.568H69.9043C69.8474 285.687 69.7527 285.814 69.6202 285.948C69.4876 286.083 69.3112 286.198 69.091 286.293C68.8709 286.388 68.6022 286.435 68.2849 286.435ZM68.4128 285.682C68.7442 285.682 69.0236 285.617 69.2508 285.487C69.4805 285.357 69.6533 285.189 69.7693 284.983C69.8877 284.777 69.9469 284.56 69.9469 284.333V283.566C69.9114 283.608 69.8332 283.647 69.7125 283.683C69.5941 283.716 69.4568 283.746 69.3006 283.772C69.1467 283.795 68.9964 283.817 68.8496 283.836C68.7052 283.852 68.588 283.866 68.498 283.878C68.2802 283.907 68.0766 283.953 67.8872 284.017C67.7002 284.078 67.5487 284.172 67.4327 284.297C67.319 284.42 67.2622 284.588 67.2622 284.801C67.2622 285.093 67.3699 285.313 67.5854 285.462C67.8032 285.609 68.079 285.682 68.4128 285.682ZM73.1527 279.034V286.307H72.3146V279.034H73.1527ZM74.6876 286.307V280.853H75.4973V281.705H75.5683C75.682 281.414 75.8654 281.188 76.1187 281.027C76.3721 280.863 76.6763 280.782 77.0314 280.782C77.3912 280.782 77.6907 280.863 77.9298 281.027C78.1713 281.188 78.3595 281.414 78.4945 281.705H78.5513C78.691 281.423 78.9005 281.199 79.1798 281.034C79.4592 280.866 79.7942 280.782 80.1848 280.782C80.6725 280.782 81.0714 280.934 81.3815 281.24C81.6917 281.543 81.8467 282.015 81.8467 282.657V286.307H81.0087V282.657C81.0087 282.254 80.8986 281.966 80.6784 281.794C80.4582 281.621 80.199 281.534 79.9007 281.534C79.5172 281.534 79.2201 281.65 79.0094 281.882C78.7987 282.112 78.6933 282.403 78.6933 282.756V286.307H77.841V282.571C77.841 282.261 77.7404 282.011 77.5392 281.822C77.338 281.63 77.0787 281.534 76.7615 281.534C76.5437 281.534 76.3401 281.592 76.1507 281.708C75.9637 281.824 75.8122 281.985 75.6962 282.191C75.5825 282.395 75.5257 282.631 75.5257 282.898V286.307H74.6876ZM85.595 286.421C85.1025 286.421 84.6705 286.304 84.2988 286.069C83.9295 285.835 83.6406 285.507 83.4323 285.086C83.2263 284.664 83.1234 284.172 83.1234 283.608C83.1234 283.04 83.2263 282.544 83.4323 282.12C83.6406 281.697 83.9295 281.367 84.2988 281.133C84.6705 280.899 85.1025 280.782 85.595 280.782C86.0874 280.782 86.5182 280.899 86.8876 281.133C87.2593 281.367 87.5481 281.697 87.754 282.12C87.9624 282.544 88.0665 283.04 88.0665 283.608C88.0665 284.172 87.9624 284.664 87.754 285.086C87.5481 285.507 87.2593 285.835 86.8876 286.069C86.5182 286.304 86.0874 286.421 85.595 286.421ZM85.595 285.668C85.969 285.668 86.2768 285.572 86.5182 285.38C86.7597 285.189 86.9385 284.936 87.0545 284.624C87.1705 284.311 87.2285 283.973 87.2285 283.608C87.2285 283.244 87.1705 282.904 87.0545 282.589C86.9385 282.274 86.7597 282.02 86.5182 281.826C86.2768 281.631 85.969 281.534 85.595 281.534C85.2209 281.534 84.9131 281.631 84.6717 281.826C84.4302 282.02 84.2514 282.274 84.1354 282.589C84.0194 282.904 83.9614 283.244 83.9614 283.608C83.9614 283.973 84.0194 284.311 84.1354 284.624C84.2514 284.936 84.4302 285.189 84.6717 285.38C84.9131 285.572 85.2209 285.668 85.595 285.668ZM93.2095 282.074L92.4566 282.287C92.4093 282.162 92.3395 282.04 92.2471 281.921C92.1572 281.801 92.0341 281.701 91.8778 281.623C91.7216 281.545 91.5215 281.506 91.2777 281.506C90.9439 281.506 90.6657 281.583 90.4431 281.737C90.223 281.888 90.1129 282.081 90.1129 282.316C90.1129 282.524 90.1886 282.689 90.3402 282.809C90.4917 282.93 90.7284 283.031 91.0504 283.111L91.86 283.31C92.3477 283.428 92.7111 283.609 92.9502 283.853C93.1894 284.095 93.3089 284.406 93.3089 284.787C93.3089 285.1 93.2189 285.379 93.039 285.625C92.8615 285.872 92.6129 286.066 92.2933 286.208C91.9737 286.35 91.602 286.421 91.1782 286.421C90.6219 286.421 90.1614 286.3 89.7968 286.059C89.4323 285.817 89.2014 285.464 89.1044 285L89.8998 284.801C89.9756 285.095 90.1188 285.315 90.3295 285.462C90.5426 285.609 90.8207 285.682 91.164 285.682C91.5546 285.682 91.8648 285.599 92.0944 285.434C92.3264 285.265 92.4424 285.064 92.4424 284.83C92.4424 284.64 92.3761 284.482 92.2436 284.354C92.111 284.224 91.9074 284.127 91.6328 284.063L90.7237 283.85C90.2242 283.731 89.8572 283.548 89.6228 283.299C89.3908 283.048 89.2748 282.735 89.2748 282.358C89.2748 282.05 89.3612 281.778 89.5341 281.542C89.7092 281.305 89.9472 281.119 90.2478 280.984C90.5509 280.849 90.8941 280.782 91.2777 280.782C91.8174 280.782 92.2412 280.9 92.549 281.137C92.8591 281.373 93.0793 281.686 93.2095 282.074ZM96.9426 280.853V281.563H94.1159V280.853H96.9426ZM94.9398 279.546H95.7778V284.745C95.7778 284.981 95.8122 285.159 95.8808 285.277C95.9518 285.393 96.0418 285.471 96.1507 285.512C96.262 285.55 96.3792 285.568 96.5023 285.568C96.5946 285.568 96.6704 285.564 96.7295 285.554C96.7887 285.542 96.8361 285.533 96.8716 285.526L97.042 286.279C96.9852 286.3 96.9059 286.321 96.8041 286.343C96.7023 286.366 96.5733 286.378 96.417 286.378C96.1803 286.378 95.9483 286.327 95.721 286.225C95.4961 286.124 95.3091 285.969 95.1599 285.76C95.0132 285.552 94.9398 285.289 94.9398 284.972V279.546ZM101.016 286.307V280.853H101.825V281.676H101.882C101.982 281.407 102.162 281.188 102.422 281.019C102.682 280.851 102.976 280.767 103.303 280.767C103.364 280.767 103.441 280.769 103.534 280.771C103.626 280.773 103.696 280.777 103.743 280.782V281.634C103.715 281.627 103.65 281.616 103.548 281.602C103.448 281.585 103.343 281.577 103.232 281.577C102.967 281.577 102.73 281.633 102.521 281.744C102.315 281.853 102.152 282.004 102.031 282.198C101.913 282.39 101.854 282.609 101.854 282.855V286.307H101.016ZM106.857 286.421C106.332 286.421 105.878 286.305 105.497 286.073C105.119 285.838 104.826 285.512 104.62 285.093C104.417 284.671 104.315 284.181 104.315 283.622C104.315 283.064 104.417 282.571 104.62 282.145C104.826 281.717 105.113 281.383 105.48 281.144C105.849 280.902 106.28 280.782 106.772 280.782C107.056 280.782 107.337 280.829 107.614 280.924C107.891 281.018 108.143 281.172 108.37 281.385C108.597 281.596 108.779 281.875 108.913 282.223C109.048 282.571 109.116 283 109.116 283.509V283.864H104.911V283.14H108.264C108.264 282.832 108.202 282.557 108.079 282.316C107.958 282.074 107.785 281.884 107.561 281.744C107.338 281.604 107.075 281.534 106.772 281.534C106.438 281.534 106.15 281.617 105.906 281.783C105.664 281.946 105.478 282.159 105.348 282.422C105.218 282.685 105.153 282.967 105.153 283.267V283.75C105.153 284.162 105.224 284.511 105.366 284.798C105.51 285.082 105.71 285.299 105.966 285.448C106.222 285.595 106.519 285.668 106.857 285.668C107.078 285.668 107.276 285.637 107.454 285.576C107.634 285.512 107.789 285.417 107.919 285.292C108.049 285.164 108.15 285.005 108.221 284.816L109.031 285.043C108.945 285.318 108.802 285.559 108.601 285.767C108.4 285.973 108.151 286.134 107.855 286.25C107.559 286.364 107.227 286.421 106.857 286.421ZM111.996 286.435C111.65 286.435 111.337 286.37 111.055 286.24C110.773 286.107 110.549 285.917 110.384 285.668C110.218 285.417 110.135 285.114 110.135 284.759C110.135 284.446 110.197 284.193 110.32 283.999C110.443 283.802 110.607 283.649 110.813 283.537C111.019 283.426 111.247 283.343 111.495 283.289C111.746 283.232 111.998 283.187 112.252 283.154C112.583 283.111 112.852 283.079 113.058 283.058C113.266 283.034 113.418 282.995 113.512 282.941C113.609 282.886 113.658 282.792 113.658 282.657V282.628C113.658 282.278 113.562 282.006 113.37 281.811C113.181 281.617 112.893 281.52 112.507 281.52C112.107 281.52 111.793 281.608 111.566 281.783C111.339 281.958 111.179 282.145 111.087 282.344L110.291 282.06C110.433 281.729 110.623 281.47 110.86 281.286C111.099 281.099 111.359 280.969 111.641 280.895C111.925 280.819 112.204 280.782 112.479 280.782C112.654 280.782 112.855 280.803 113.083 280.845C113.312 280.886 113.534 280.97 113.747 281.098C113.962 281.225 114.141 281.418 114.283 281.676C114.425 281.934 114.496 282.28 114.496 282.713V286.307H113.658V285.568H113.615C113.558 285.687 113.464 285.814 113.331 285.948C113.199 286.083 113.022 286.198 112.802 286.293C112.582 286.388 112.313 286.435 111.996 286.435ZM112.124 285.682C112.455 285.682 112.735 285.617 112.962 285.487C113.191 285.357 113.364 285.189 113.48 284.983C113.599 284.777 113.658 284.56 113.658 284.333V283.566C113.622 283.608 113.544 283.647 113.423 283.683C113.305 283.716 113.168 283.746 113.012 283.772C112.858 283.795 112.707 283.817 112.561 283.836C112.416 283.852 112.299 283.866 112.209 283.878C111.991 283.907 111.788 283.953 111.598 284.017C111.411 284.078 111.26 284.172 111.144 284.297C111.03 284.42 110.973 284.588 110.973 284.801C110.973 285.093 111.081 285.313 111.296 285.462C111.514 285.609 111.79 285.682 112.124 285.682ZM118.241 286.421C117.73 286.421 117.29 286.3 116.92 286.059C116.551 285.817 116.267 285.484 116.068 285.061C115.869 284.637 115.77 284.153 115.77 283.608C115.77 283.054 115.872 282.565 116.075 282.142C116.281 281.716 116.568 281.383 116.935 281.144C117.304 280.902 117.735 280.782 118.227 280.782C118.611 280.782 118.956 280.853 119.264 280.995C119.572 281.137 119.824 281.336 120.021 281.591C120.217 281.847 120.339 282.145 120.386 282.486H119.548C119.484 282.238 119.342 282.017 119.122 281.826C118.904 281.631 118.611 281.534 118.241 281.534C117.915 281.534 117.628 281.62 117.382 281.79C117.138 281.958 116.948 282.196 116.81 282.504C116.675 282.809 116.608 283.168 116.608 283.58C116.608 284.001 116.674 284.368 116.807 284.681C116.942 284.993 117.131 285.236 117.375 285.409C117.621 285.582 117.91 285.668 118.241 285.668C118.459 285.668 118.657 285.63 118.834 285.554C119.012 285.479 119.162 285.37 119.285 285.228C119.409 285.086 119.496 284.915 119.548 284.716H120.386C120.339 285.038 120.222 285.328 120.035 285.586C119.85 285.842 119.605 286.046 119.3 286.197C118.997 286.346 118.644 286.421 118.241 286.421ZM122.45 283.026V286.307H121.611V279.034H122.45V281.705H122.521C122.648 281.423 122.84 281.199 123.096 281.034C123.354 280.866 123.697 280.782 124.126 280.782C124.497 280.782 124.823 280.856 125.102 281.005C125.382 281.152 125.598 281.378 125.752 281.684C125.908 281.987 125.986 282.372 125.986 282.841V286.307H125.148V282.898C125.148 282.465 125.036 282.13 124.811 281.893C124.589 281.654 124.28 281.534 123.884 281.534C123.61 281.534 123.363 281.592 123.146 281.708C122.93 281.824 122.76 281.994 122.634 282.216C122.511 282.439 122.45 282.709 122.45 283.026ZM129.807 286.421C129.281 286.421 128.828 286.305 128.447 286.073C128.068 285.838 127.775 285.512 127.569 285.093C127.366 284.671 127.264 284.181 127.264 283.622C127.264 283.064 127.366 282.571 127.569 282.145C127.775 281.717 128.062 281.383 128.429 281.144C128.798 280.902 129.229 280.782 129.721 280.782C130.005 280.782 130.286 280.829 130.563 280.924C130.84 281.018 131.092 281.172 131.319 281.385C131.547 281.596 131.728 281.875 131.863 282.223C131.998 282.571 132.065 283 132.065 283.509V283.864H127.861V283.14H131.213C131.213 282.832 131.151 282.557 131.028 282.316C130.907 282.074 130.735 281.884 130.51 281.744C130.287 281.604 130.024 281.534 129.721 281.534C129.388 281.534 129.099 281.617 128.855 281.783C128.613 281.946 128.428 282.159 128.297 282.422C128.167 282.685 128.102 282.967 128.102 283.267V283.75C128.102 284.162 128.173 284.511 128.315 284.798C128.46 285.082 128.66 285.299 128.915 285.448C129.171 285.595 129.468 285.668 129.807 285.668C130.027 285.668 130.226 285.637 130.403 285.576C130.583 285.512 130.738 285.417 130.868 285.292C130.999 285.164 131.099 285.005 131.17 284.816L131.98 285.043C131.895 285.318 131.751 285.559 131.55 285.767C131.349 285.973 131.1 286.134 130.804 286.25C130.509 286.364 130.176 286.421 129.807 286.421ZM135.4 286.421C134.945 286.421 134.544 286.306 134.196 286.076C133.848 285.844 133.576 285.518 133.379 285.096C133.183 284.672 133.084 284.172 133.084 283.594C133.084 283.021 133.183 282.524 133.379 282.103C133.576 281.681 133.849 281.356 134.199 281.126C134.55 280.896 134.955 280.782 135.414 280.782C135.769 280.782 136.049 280.841 136.255 280.959C136.464 281.075 136.622 281.208 136.731 281.357C136.843 281.504 136.929 281.624 136.991 281.719H137.062V279.034H137.9V286.307H137.09V285.469H136.991C136.929 285.568 136.841 285.694 136.728 285.845C136.614 285.995 136.452 286.128 136.241 286.247C136.031 286.363 135.75 286.421 135.4 286.421ZM135.513 285.668C135.849 285.668 136.134 285.58 136.366 285.405C136.598 285.228 136.774 284.983 136.895 284.67C137.015 284.355 137.076 283.992 137.076 283.58C137.076 283.173 137.017 282.816 136.898 282.511C136.78 282.203 136.605 281.964 136.373 281.794C136.141 281.621 135.854 281.534 135.513 281.534C135.158 281.534 134.862 281.626 134.625 281.808C134.391 281.988 134.215 282.233 134.096 282.543C133.98 282.851 133.922 283.196 133.922 283.58C133.922 283.968 133.982 284.321 134.1 284.638C134.221 284.953 134.398 285.204 134.633 285.391C134.869 285.576 135.163 285.668 135.513 285.668ZM142.903 288.353C142.761 288.353 142.634 288.341 142.523 288.317C142.412 288.296 142.335 288.274 142.292 288.253L142.505 287.515C142.709 287.567 142.889 287.586 143.045 287.571C143.201 287.557 143.34 287.487 143.461 287.362C143.584 287.239 143.696 287.039 143.798 286.762L143.954 286.336L141.937 280.853H142.846L144.352 285.199H144.409L145.915 280.853H146.824L144.508 287.103C144.404 287.384 144.275 287.617 144.121 287.802C143.967 287.989 143.789 288.128 143.585 288.218C143.384 288.308 143.157 288.353 142.903 288.353ZM149.95 286.421C149.458 286.421 149.026 286.304 148.654 286.069C148.285 285.835 147.996 285.507 147.788 285.086C147.582 284.664 147.479 284.172 147.479 283.608C147.479 283.04 147.582 282.544 147.788 282.12C147.996 281.697 148.285 281.367 148.654 281.133C149.026 280.899 149.458 280.782 149.95 280.782C150.443 280.782 150.874 280.899 151.243 281.133C151.615 281.367 151.904 281.697 152.11 282.12C152.318 282.544 152.422 283.04 152.422 283.608C152.422 284.172 152.318 284.664 152.11 285.086C151.904 285.507 151.615 285.835 151.243 286.069C150.874 286.304 150.443 286.421 149.95 286.421ZM149.95 285.668C150.324 285.668 150.632 285.572 150.874 285.38C151.115 285.189 151.294 284.936 151.41 284.624C151.526 284.311 151.584 283.973 151.584 283.608C151.584 283.244 151.526 282.904 151.41 282.589C151.294 282.274 151.115 282.02 150.874 281.826C150.632 281.631 150.324 281.534 149.95 281.534C149.576 281.534 149.269 281.631 149.027 281.826C148.786 282.02 148.607 282.274 148.491 282.589C148.375 282.904 148.317 283.244 148.317 283.608C148.317 283.973 148.375 284.311 148.491 284.624C148.607 284.936 148.786 285.189 149.027 285.38C149.269 285.572 149.576 285.668 149.95 285.668ZM157.139 284.077V280.853H157.977V286.307H157.139V285.384H157.082C156.954 285.661 156.755 285.896 156.485 286.091C156.216 286.282 155.875 286.378 155.463 286.378C155.122 286.378 154.819 286.304 154.554 286.154C154.288 286.003 154.08 285.776 153.929 285.473C153.777 285.167 153.701 284.783 153.701 284.318V280.853H154.539V284.262C154.539 284.659 154.651 284.977 154.873 285.213C155.098 285.45 155.385 285.568 155.733 285.568C155.941 285.568 156.153 285.515 156.368 285.409C156.586 285.302 156.768 285.139 156.915 284.919C157.064 284.698 157.139 284.418 157.139 284.077ZM159.512 286.307V280.853H160.322V281.676H160.378C160.478 281.407 160.658 281.188 160.918 281.019C161.179 280.851 161.472 280.767 161.799 280.767C161.86 280.767 161.937 280.769 162.03 280.771C162.122 280.773 162.192 280.777 162.239 280.782V281.634C162.211 281.627 162.146 281.616 162.044 281.602C161.944 281.585 161.839 281.577 161.728 281.577C161.463 281.577 161.226 281.633 161.018 281.744C160.812 281.853 160.648 282.004 160.527 282.198C160.409 282.39 160.35 282.609 160.35 282.855V286.307H159.512ZM168.247 288.466C167.842 288.466 167.494 288.414 167.203 288.31C166.912 288.208 166.669 288.073 166.475 287.905C166.283 287.739 166.13 287.562 166.017 287.372L166.684 286.904C166.76 287.003 166.856 287.117 166.972 287.245C167.088 287.375 167.247 287.487 167.448 287.582C167.651 287.679 167.918 287.728 168.247 287.728C168.687 287.728 169.051 287.621 169.337 287.408C169.623 287.195 169.767 286.861 169.767 286.407V285.299H169.696C169.634 285.398 169.546 285.521 169.433 285.668C169.322 285.812 169.161 285.941 168.95 286.055C168.742 286.166 168.46 286.222 168.105 286.222C167.664 286.222 167.269 286.118 166.919 285.909C166.571 285.701 166.295 285.398 166.091 285C165.89 284.603 165.789 284.12 165.789 283.551C165.789 282.993 165.888 282.506 166.084 282.092C166.281 281.675 166.554 281.353 166.904 281.126C167.255 280.896 167.66 280.782 168.119 280.782C168.474 280.782 168.756 280.841 168.964 280.959C169.175 281.075 169.336 281.208 169.447 281.357C169.561 281.504 169.648 281.624 169.71 281.719H169.795V280.853H170.605V286.463C170.605 286.932 170.498 287.313 170.285 287.607C170.074 287.903 169.79 288.119 169.433 288.257C169.078 288.396 168.682 288.466 168.247 288.466ZM168.218 285.469C168.555 285.469 168.839 285.392 169.071 285.238C169.303 285.084 169.479 284.863 169.6 284.574C169.72 284.285 169.781 283.94 169.781 283.537C169.781 283.144 169.722 282.797 169.603 282.497C169.485 282.196 169.31 281.961 169.078 281.79C168.846 281.62 168.559 281.534 168.218 281.534C167.863 281.534 167.567 281.624 167.331 281.804C167.096 281.984 166.92 282.226 166.801 282.529C166.685 282.832 166.627 283.168 166.627 283.537C166.627 283.916 166.687 284.251 166.805 284.542C166.926 284.831 167.103 285.058 167.338 285.224C167.574 285.387 167.868 285.469 168.218 285.469ZM174.355 286.421C173.862 286.421 173.43 286.304 173.059 286.069C172.689 285.835 172.4 285.507 172.192 285.086C171.986 284.664 171.883 284.172 171.883 283.608C171.883 283.04 171.986 282.544 172.192 282.12C172.4 281.697 172.689 281.367 173.059 281.133C173.43 280.899 173.862 280.782 174.355 280.782C174.847 280.782 175.278 280.899 175.647 281.133C176.019 281.367 176.308 281.697 176.514 282.12C176.722 282.544 176.826 283.04 176.826 283.608C176.826 284.172 176.722 284.664 176.514 285.086C176.308 285.507 176.019 285.835 175.647 286.069C175.278 286.304 174.847 286.421 174.355 286.421ZM174.355 285.668C174.729 285.668 175.037 285.572 175.278 285.38C175.519 285.189 175.698 284.936 175.814 284.624C175.93 284.311 175.988 283.973 175.988 283.608C175.988 283.244 175.93 282.904 175.814 282.589C175.698 282.274 175.519 282.02 175.278 281.826C175.037 281.631 174.729 281.534 174.355 281.534C173.981 281.534 173.673 281.631 173.431 281.826C173.19 282.02 173.011 282.274 172.895 282.589C172.779 282.904 172.721 283.244 172.721 283.608C172.721 283.973 172.779 284.311 172.895 284.624C173.011 284.936 173.19 285.189 173.431 285.38C173.673 285.572 173.981 285.668 174.355 285.668ZM179.711 286.435C179.365 286.435 179.051 286.37 178.77 286.24C178.488 286.107 178.264 285.917 178.099 285.668C177.933 285.417 177.85 285.114 177.85 284.759C177.85 284.446 177.911 284.193 178.035 283.999C178.158 283.802 178.322 283.649 178.528 283.537C178.734 283.426 178.961 283.343 179.21 283.289C179.461 283.232 179.713 283.187 179.966 283.154C180.298 283.111 180.567 283.079 180.773 283.058C180.981 283.034 181.132 282.995 181.227 282.941C181.324 282.886 181.373 282.792 181.373 282.657V282.628C181.373 282.278 181.277 282.006 181.085 281.811C180.896 281.617 180.608 281.52 180.222 281.52C179.822 281.52 179.508 281.608 179.281 281.783C179.054 281.958 178.894 282.145 178.802 282.344L178.006 282.06C178.148 281.729 178.338 281.47 178.574 281.286C178.813 281.099 179.074 280.969 179.356 280.895C179.64 280.819 179.919 280.782 180.194 280.782C180.369 280.782 180.57 280.803 180.797 280.845C181.027 280.886 181.248 280.97 181.461 281.098C181.677 281.225 181.856 281.418 181.998 281.676C182.14 281.934 182.211 282.28 182.211 282.713V286.307H181.373V285.568H181.33C181.273 285.687 181.179 285.814 181.046 285.948C180.913 286.083 180.737 286.198 180.517 286.293C180.297 286.388 180.028 286.435 179.711 286.435ZM179.839 285.682C180.17 285.682 180.449 285.617 180.677 285.487C180.906 285.357 181.079 285.189 181.195 284.983C181.313 284.777 181.373 284.56 181.373 284.333V283.566C181.337 283.608 181.259 283.647 181.138 283.683C181.02 283.716 180.883 283.746 180.726 283.772C180.572 283.795 180.422 283.817 180.275 283.836C180.131 283.852 180.014 283.866 179.924 283.878C179.706 283.907 179.502 283.953 179.313 284.017C179.126 284.078 178.974 284.172 178.858 284.297C178.745 284.42 178.688 284.588 178.688 284.801C178.688 285.093 178.796 285.313 179.011 285.462C179.229 285.609 179.505 285.682 179.839 285.682ZM184.578 279.034V286.307H183.74V279.034H184.578Z" fill="#767676"/>
<rect x="152.783" y="69.8096" width="24.028" height="12.2712" rx="2" fill="#FCE4D7"/>
<path d="M158.51 72.1628V79.4355H156.973V73.6223H156.93L155.264 74.6664V73.3027L157.065 72.1628H158.51ZM163.09 79.5953C162.479 79.593 161.954 79.4426 161.514 79.1444C161.076 78.8461 160.738 78.414 160.501 77.8482C160.267 77.2824 160.151 76.6017 160.153 75.8063C160.153 75.0132 160.271 74.3373 160.505 73.7786C160.742 73.2199 161.079 72.7949 161.517 72.5037C161.957 72.2102 162.482 72.0634 163.09 72.0634C163.699 72.0634 164.222 72.2102 164.66 72.5037C165.1 72.7973 165.439 73.2234 165.675 73.7821C165.912 74.3385 166.029 75.0132 166.027 75.8063C166.027 76.6041 165.909 77.2859 165.672 77.8517C165.438 78.4176 165.101 78.8496 164.663 79.1479C164.225 79.4462 163.701 79.5953 163.09 79.5953ZM163.09 78.3205C163.507 78.3205 163.84 78.111 164.088 77.6919C164.337 77.2729 164.46 76.6444 164.457 75.8063C164.457 75.2547 164.401 74.7954 164.287 74.4284C164.176 74.0615 164.017 73.7857 163.811 73.601C163.608 73.4164 163.367 73.324 163.09 73.324C162.676 73.324 162.344 73.5312 162.096 73.9455C161.847 74.3598 161.722 74.9801 161.719 75.8063C161.719 76.365 161.775 76.8314 161.886 77.2054C162 77.5771 162.16 77.8565 162.366 78.0435C162.572 78.2282 162.813 78.3205 163.09 78.3205ZM169.975 79.5953C169.364 79.593 168.839 79.4426 168.398 79.1444C167.96 78.8461 167.623 78.414 167.386 77.8482C167.152 77.2824 167.036 76.6017 167.038 75.8063C167.038 75.0132 167.155 74.3373 167.39 73.7786C167.627 73.2199 167.964 72.7949 168.402 72.5037C168.842 72.2102 169.367 72.0634 169.975 72.0634C170.583 72.0634 171.107 72.2102 171.545 72.5037C171.985 72.7973 172.323 73.2234 172.56 73.7821C172.797 74.3385 172.914 75.0132 172.912 75.8063C172.912 76.6041 172.793 77.2859 172.557 77.8517C172.322 78.4176 171.986 78.8496 171.548 79.1479C171.11 79.4462 170.586 79.5953 169.975 79.5953ZM169.975 78.3205C170.392 78.3205 170.724 78.111 170.973 77.6919C171.221 77.2729 171.345 76.6444 171.342 75.8063C171.342 75.2547 171.285 74.7954 171.172 74.4284C171.06 74.0615 170.902 73.7857 170.696 73.601C170.492 73.4164 170.252 73.324 169.975 73.324C169.561 73.324 169.229 73.5312 168.981 73.9455C168.732 74.3598 168.607 74.9801 168.604 75.8063C168.604 76.365 168.66 76.8314 168.771 77.2054C168.885 77.5771 169.045 77.8565 169.251 78.0435C169.457 78.2282 169.698 78.3205 169.975 78.3205Z" fill="#FF955A"/>
<path d="M61.192 79.4355L62.298 82.8393H65.8769L62.9815 84.9429L64.0874 88.3466L61.192 86.243L58.2967 88.3466L59.4026 84.9429L56.5072 82.8393H60.0861L61.192 79.4355Z" fill="white"/>
<circle cx="21.3372" cy="275.402" r="17.3372" fill="#ECEAF8"/>
<path d="M21.3372 284.152C26.1619 284.152 30.0872 280.227 30.0872 275.402C30.0872 270.577 26.1619 266.652 21.3372 266.652C16.5124 266.652 12.5872 270.577 12.5872 275.402C12.5872 280.227 16.5124 284.152 21.3372 284.152ZM24.3935 272.777C24.568 272.772 24.7416 272.803 24.9041 272.867C25.0665 272.93 25.2146 273.026 25.3396 273.148C25.4645 273.27 25.5638 273.415 25.6316 273.576C25.6993 273.737 25.7342 273.91 25.7342 274.084C25.7341 274.259 25.6991 274.431 25.6312 274.592C25.5633 274.753 25.464 274.898 25.3389 275.02C25.2139 275.142 25.0658 275.237 24.9032 275.301C24.7407 275.365 24.5671 275.395 24.3927 275.39C24.0519 275.382 23.7282 275.24 23.4904 274.996C23.2526 274.752 23.1195 274.424 23.1197 274.083C23.1198 273.742 23.253 273.415 23.491 273.171C23.7289 272.927 24.0528 272.786 24.3935 272.777ZM20.6302 278.831C21.0968 278.925 21.5775 278.925 22.0442 278.831C22.2655 278.785 22.486 278.716 22.7004 278.627C22.9052 278.54 23.1064 278.431 23.2945 278.305C23.4765 278.181 23.6507 278.037 23.8117 277.877C23.9718 277.718 24.1153 277.544 24.2395 277.359L25.6903 278.337C25.3131 278.896 24.8322 279.377 24.2737 279.755C23.7046 280.139 23.0657 280.408 22.3933 280.546C21.6961 280.686 20.9781 280.686 20.281 280.545C19.6084 280.409 18.9695 280.14 18.4015 279.755C17.843 279.376 17.3616 278.895 16.9832 278.336L18.4339 277.358C18.559 277.543 18.7025 277.717 18.8609 277.875C19.344 278.36 19.9593 278.693 20.6302 278.831ZM18.2747 272.777C18.4471 272.777 18.6178 272.811 18.7771 272.877C18.9363 272.943 19.081 273.04 19.2029 273.162C19.3248 273.284 19.4215 273.428 19.4874 273.588C19.5533 273.747 19.5872 273.918 19.5872 274.09C19.5871 274.263 19.5531 274.433 19.487 274.593C19.421 274.752 19.3243 274.897 19.2023 275.018C19.0803 275.14 18.9356 275.237 18.7763 275.303C18.6169 275.369 18.4462 275.403 18.2738 275.403C17.9256 275.403 17.5917 275.264 17.3455 275.018C17.0994 274.772 16.9612 274.438 16.9613 274.089C16.9614 273.741 17.0998 273.407 17.3461 273.161C17.5924 272.915 17.9264 272.777 18.2747 272.777Z" fill="#344BFD"/>
</g>
<defs>
<filter id="filter0_d_68_307" x="0" y="0.236328" width="250.897" height="296.502" filterUnits="userSpaceOnUse" color-interpolation-filters="sRGB">
<feFlood flood-opacity="0" result="BackgroundImageFix"/>
<feColorMatrix in="SourceAlpha" type="matrix" values="0 0 0 0 0 0 0 0 0 0 0 0 0 0 0 0 0 0 127 0" result="hardAlpha"/>
<feOffset/>
<feGaussianBlur stdDeviation="2"/>
<feComposite in2="hardAlpha" operator="out"/>
<feColorMatrix type="matrix" values="0 0 0 0 0 0 0 0 0 0 0 0 0 0 0 0 0 0 0.25 0"/>
<feBlend mode="normal" in2="BackgroundImageFix" result="effect1_dropShadow_68_307"/>
<feBlend mode="normal" in="SourceGraphic" in2="effect1_dropShadow_68_307" result="shape"/>
</filter>
</defs>
</svg>
