<svg width="112" height="102" viewBox="0 0 112 102" fill="none" xmlns="http://www.w3.org/2000/svg">
<path d="M80.4518 47.5689L108.815 27.2233C110.515 26.0061 111.521 24.0409 111.521 21.9533V6.34047C111.521 3.73607 108.57 2.21967 106.455 3.74287L46.241 46.9365C43.9018 48.6093 43.9018 52.0909 46.241 53.7637L106.455 96.9573C108.57 98.4737 111.521 96.9641 111.521 94.3597V78.7537C111.521 76.6661 110.515 74.7009 108.815 73.4837L80.4518 53.1381C78.5478 51.7713 78.5478 48.9357 80.4518 47.5689Z" fill="#0039CA"/>
<path d="M15.5324 0.837646H5.44804C2.89805 0.837646 0.837646 2.90485 0.837646 5.44805V96.7108C0.837646 99.2608 2.90485 101.321 5.44804 101.321H15.5324C18.0824 101.321 20.1428 99.254 20.1428 96.7108V5.44805C20.1428 2.90485 18.0756 0.837646 15.5324 0.837646Z" fill="#0039CA"/>
</svg>
