<svg width="569" height="541" viewBox="0 0 569 541" fill="none" xmlns="http://www.w3.org/2000/svg">
<path d="M387.236 540.855C426.686 540.855 458.666 525.613 458.666 506.812C458.666 488.011 426.686 472.77 387.236 472.77C347.787 472.77 315.806 488.011 315.806 506.812C315.806 525.613 347.787 540.855 387.236 540.855Z" fill="#EBEBEB"/>
<path d="M513.775 463.217C544.211 463.217 568.884 451.459 568.884 436.954C568.884 422.449 544.211 410.691 513.775 410.691C483.339 410.691 458.666 422.449 458.666 436.954C458.666 451.459 483.339 463.217 513.775 463.217Z" fill="#EBEBEB"/>
<path d="M120.996 429.595C117.884 413.165 106.495 389.749 92.6013 376.695C79.2364 364.155 59.399 359.783 51.4952 365.571C43.5914 371.358 48.7725 383.868 64.1133 399.115C81.4302 416.307 114.679 464.01 120.996 491.036V429.595Z" fill="#0039CA"/>
<g opacity="0.2">
<path d="M120.996 429.595C117.884 413.165 106.495 389.749 92.6013 376.695C79.2364 364.155 59.399 359.783 51.4952 365.571C43.5914 371.358 48.7725 383.868 64.1133 399.115C81.4302 416.307 114.679 464.01 120.996 491.036V429.595Z" fill="black"/>
</g>
<path d="M120.996 469.129C120.801 469.126 120.614 469.052 120.47 468.92C120.327 468.788 120.237 468.607 120.218 468.413C116.297 427.027 87.358 380.507 59.5391 370.814C59.3448 370.743 59.1858 370.6 59.0957 370.414C59.0056 370.228 58.9917 370.014 59.0567 369.818C59.1273 369.624 59.2707 369.465 59.4567 369.375C59.6426 369.285 59.8564 369.271 60.0525 369.336C88.8983 379.371 117.76 425.611 121.805 468.273C121.822 468.479 121.759 468.683 121.628 468.843C121.498 469.003 121.31 469.106 121.105 469.129H120.996Z" fill="white"/>
<path d="M120.996 510.904C120.996 510.904 115.613 515.198 97.658 513.518C79.7032 511.838 70.4458 499.002 70.4458 493.494C70.4458 487.986 86.9536 487.037 90.5321 473.377C86.892 477.278 82.0496 479.847 76.7782 480.674C67.443 482.432 59.9437 479.445 57.8122 462.439C62.4132 463.112 67.1071 462.723 71.5349 461.303C78.9253 458.923 80.6834 454.862 78.7542 453.991C76.8249 453.119 66.525 453.991 59.9281 451.486C53.3312 448.981 58.3723 414.627 62.6976 412.184C67.0229 409.742 87.4826 415.498 91.4656 418.579C95.013 421.317 99.9918 426.063 97.6891 436.098C100.417 433.548 102.543 430.423 103.913 426.95C105.842 422.282 107.242 423.371 110.136 425.16C111.874 426.14 113.382 427.48 114.56 429.09C115.738 430.7 116.558 432.543 116.966 434.496C117.666 438.852 116.531 453.882 110.401 458.767C110.401 458.767 116.282 459.514 121.089 449.587C121.089 449.587 130.425 453.353 132.541 459.452C134.657 465.551 136.959 495.408 120.996 510.904Z" fill="#0039CA"/>
<path d="M122.583 514.296C122.393 514.294 122.209 514.224 122.067 514.098C121.924 513.973 121.831 513.8 121.805 513.611C117.697 479.989 92.1345 435.818 67.0695 419.232C66.8961 419.117 66.7758 418.937 66.735 418.733C66.6941 418.529 66.7361 418.317 66.8516 418.143C66.9672 417.97 67.1468 417.85 67.3511 417.809C67.5553 417.768 67.7674 417.81 67.9407 417.925C93.317 434.807 119.284 479.429 123.345 513.425C123.372 513.629 123.316 513.835 123.191 513.999C123.065 514.162 122.88 514.269 122.676 514.296H122.583Z" fill="white"/>
<path d="M124.155 518.995C123.226 518.352 122.461 517.501 121.921 516.509C121.381 515.518 121.08 514.413 121.043 513.285V141.572C121.106 140.402 121.445 139.264 122.032 138.25C122.619 137.236 123.437 136.375 124.419 135.738L357.8 0.968143C358.775 0.356295 359.899 0.0219357 361.05 0.00104294C362.201 -0.0198498 363.336 0.27351 364.333 0.849564C365.33 1.42562 366.151 2.26257 366.708 3.27038C367.264 4.27819 367.536 5.41871 367.493 6.56927L130.689 518.87C129.687 519.404 128.572 519.693 127.437 519.714C126.301 519.736 125.177 519.49 124.155 518.995Z" fill="#E0E0E0"/>
<path d="M127.313 148.636L222.112 86.6032L215.795 82.9469L124.372 135.738C123.39 136.375 122.572 137.236 121.985 138.25C121.399 139.264 121.06 140.402 120.996 141.572V144.979L127.313 148.636Z" fill="#37474F"/>
<path opacity="0.2" d="M127.313 148.636L222.112 86.6032L215.795 82.9469L124.372 135.738C123.39 136.375 122.572 137.236 121.985 138.25C121.399 139.264 121.06 140.402 120.996 141.572V144.979L127.313 148.636Z" fill="#37474F"/>
<path d="M158.975 159.573L121.976 138.289C121.373 139.293 121.036 140.433 120.996 141.603V513.254C120.956 514.403 121.23 515.541 121.787 516.547C122.345 517.552 123.167 518.387 124.163 518.961C125.159 519.535 126.293 519.827 127.443 519.806C128.593 519.784 129.715 519.45 130.689 518.839L158.975 502.58V159.573Z" fill="#263238"/>
<path opacity="0.4" d="M158.975 159.573L121.976 138.289C121.373 139.293 121.036 140.433 120.996 141.603V513.254C120.956 514.403 121.23 515.541 121.787 516.547C122.345 517.552 123.167 518.387 124.163 518.961C125.159 519.535 126.293 519.827 127.443 519.806C128.593 519.784 129.715 519.45 130.689 518.839L158.975 502.58V159.573Z" fill="#263238"/>
<path d="M130.689 518.87L364.07 384.101C365.052 383.463 365.87 382.602 366.457 381.588C367.043 380.574 367.382 379.436 367.446 378.266V6.56926C367.446 4.42216 365.89 3.55087 364.07 4.62442L130.689 139.394C129.707 140.032 128.889 140.893 128.302 141.907C127.715 142.92 127.376 144.059 127.313 145.228V516.925C127.313 519.073 128.822 519.944 130.689 518.87Z" fill="#455A64"/>
<path opacity="0.1" d="M130.689 518.87L364.07 384.101C365.052 383.463 365.87 382.602 366.457 381.588C367.043 380.574 367.382 379.436 367.446 378.266V6.56926C367.446 4.42216 365.89 3.55087 364.07 4.62442L130.689 139.394C129.707 140.032 128.889 140.893 128.302 141.907C127.715 142.92 127.376 144.059 127.313 145.228V516.925C127.313 519.073 128.822 519.944 130.689 518.87Z" fill="#455A64"/>
<path d="M146.699 231.081L202.71 198.719C206.429 196.572 209.447 198.097 209.447 202.126C209.281 204.389 208.585 206.581 207.414 208.524C206.244 210.467 204.632 212.108 202.71 213.313L146.699 245.675C142.965 247.822 139.962 246.298 139.962 242.268C140.125 240.004 140.82 237.811 141.99 235.867C143.161 233.923 144.774 232.284 146.699 231.081Z" fill="#0039CA"/>
<path d="M146.699 254.046L183.775 232.637C187.494 230.49 190.512 232.015 190.512 236.044C190.346 238.307 189.65 240.499 188.479 242.442C187.309 244.385 185.697 246.026 183.775 247.231L146.699 268.64C142.965 270.787 139.962 269.262 139.962 265.233C140.125 262.969 140.82 260.776 141.99 258.832C143.161 256.888 144.774 255.248 146.699 254.046Z" fill="#0039CA"/>
<path d="M142.654 293.347L149.904 289.162C151.46 288.306 152.596 289.006 152.596 290.718V299.088C152.545 300.023 152.275 300.933 151.808 301.744C151.34 302.555 150.688 303.244 149.904 303.756L142.654 307.879C141.098 308.75 139.962 308.05 139.962 306.323V297.953C140.023 297.029 140.298 296.132 140.765 295.333C141.233 294.534 141.879 293.854 142.654 293.347Z" fill="#0039CA"/>
<path opacity="0.2" d="M142.654 293.347L149.904 289.162C151.46 288.306 152.596 289.006 152.596 290.718V299.088C152.545 300.023 152.275 300.933 151.808 301.744C151.34 302.555 150.688 303.244 149.904 303.756L142.654 307.879C141.098 308.75 139.962 308.05 139.962 306.323V297.953C140.023 297.029 140.298 296.132 140.765 295.333C141.233 294.534 141.879 293.854 142.654 293.347Z" fill="black"/>
<path d="M142.654 322.551L149.904 318.365C151.46 317.494 152.596 318.194 152.596 319.921V328.292C152.542 329.226 152.27 330.134 151.803 330.944C151.336 331.755 150.685 332.445 149.904 332.96L142.654 337.145C141.098 338.001 139.962 337.3 139.962 335.589V327.218C140.01 326.283 140.279 325.372 140.747 324.561C141.215 323.75 141.868 323.061 142.654 322.551Z" fill="#0039CA"/>
<g opacity="0.2">
<path d="M142.654 322.551L149.904 318.365C151.46 317.494 152.596 318.194 152.596 319.921V328.292C152.542 329.226 152.27 330.134 151.803 330.944C151.336 331.755 150.685 332.445 149.904 332.96L142.654 337.145C141.098 338.001 139.962 337.3 139.962 335.589V327.218C140.01 326.283 140.279 325.372 140.747 324.561C141.215 323.75 141.868 323.061 142.654 322.551Z" fill="black"/>
</g>
<path d="M162.289 314.865L206.102 289.551C207.969 288.477 209.478 289.24 209.478 291.262C209.394 292.393 209.044 293.488 208.457 294.458C207.871 295.429 207.064 296.247 206.102 296.848L162.289 322.162C160.422 323.235 158.913 322.473 158.913 320.45C158.997 319.32 159.347 318.225 159.933 317.254C160.52 316.284 161.327 315.465 162.289 314.865Z" fill="#0039CA"/>
<path opacity="0.2" d="M162.289 314.865L206.102 289.551C207.969 288.477 209.478 289.24 209.478 291.262C209.394 292.393 209.044 293.488 208.457 294.458C207.871 295.429 207.064 296.247 206.102 296.848L162.289 322.162C160.422 323.235 158.913 322.473 158.913 320.45C158.997 319.32 159.347 318.225 159.933 317.254C160.52 316.284 161.327 315.465 162.289 314.865Z" fill="black"/>
<path d="M142.654 351.739L149.904 347.554C151.46 346.682 152.596 347.382 152.596 349.109V357.48C152.543 358.414 152.272 359.323 151.804 360.134C151.337 360.944 150.686 361.634 149.904 362.148L142.654 366.333C141.098 367.189 139.962 366.488 139.962 364.777V356.406C140.01 355.471 140.279 354.56 140.747 353.749C141.215 352.938 141.868 352.249 142.654 351.739Z" fill="#E0E0E0"/>
<path d="M162.289 344.053L206.102 318.77C207.969 317.696 209.478 318.459 209.478 320.481C209.396 321.613 209.048 322.709 208.461 323.68C207.874 324.65 207.066 325.468 206.102 326.067L162.289 351.381C160.422 352.455 158.913 351.692 158.913 349.67C158.992 348.533 159.34 347.432 159.927 346.456C160.513 345.48 161.323 344.656 162.289 344.053Z" fill="#F0F0F0"/>
<path d="M142.654 381.005L149.904 376.819C151.46 375.948 152.596 376.648 152.596 378.375V386.746C152.543 387.68 152.272 388.589 151.804 389.399C151.337 390.21 150.686 390.9 149.904 391.413L142.654 395.599C141.098 396.455 139.962 395.754 139.962 394.043V385.672C140.01 384.737 140.279 383.826 140.747 383.015C141.215 382.204 141.868 381.515 142.654 381.005Z" fill="#E0E0E0"/>
<path d="M162.289 373.319L206.102 348.02C207.969 346.931 209.478 347.709 209.478 349.716C209.396 350.85 209.048 351.948 208.461 352.921C207.874 353.894 207.066 354.715 206.102 355.317L162.289 380.616C160.422 381.689 158.913 380.927 158.913 378.904C158.997 377.774 159.347 376.679 159.933 375.708C160.52 374.738 161.327 373.919 162.289 373.319Z" fill="#F0F0F0"/>
<path d="M142.654 410.193L149.904 406.008C151.46 405.136 152.596 405.837 152.596 407.564V415.934C152.543 416.868 152.272 417.777 151.804 418.588C151.337 419.398 150.686 420.088 149.904 420.602L142.654 424.787C141.098 425.643 139.962 424.943 139.962 423.231V414.861C140.01 413.925 140.279 413.015 140.747 412.203C141.215 411.392 141.868 410.703 142.654 410.193Z" fill="#E0E0E0"/>
<path d="M162.289 402.507L206.102 377.208C207.969 376.119 209.478 376.897 209.478 378.904C209.396 380.038 209.048 381.136 208.461 382.109C207.874 383.082 207.066 383.904 206.102 384.506L162.289 409.804C160.422 410.877 158.913 410.115 158.913 408.092C158.997 406.962 159.347 405.867 159.933 404.896C160.52 403.926 161.327 403.107 162.289 402.507Z" fill="#F0F0F0"/>
<path d="M143.323 438.914L174.44 420.913C176.307 419.839 177.816 420.602 177.816 422.624C177.732 423.755 177.382 424.85 176.796 425.82C176.209 426.791 175.402 427.609 174.44 428.21L143.323 446.211C141.471 447.285 139.962 446.522 139.962 444.515C140.044 443.384 140.391 442.287 140.974 441.314C141.558 440.341 142.363 439.519 143.323 438.914Z" fill="#0039CA"/>
<path d="M143.323 453.508L206.102 417.272C207.969 416.199 209.478 416.961 209.478 418.968C209.396 420.102 209.048 421.2 208.461 422.173C207.874 423.146 207.066 423.967 206.102 424.569L143.323 460.805C141.471 461.879 139.962 461.117 139.962 459.109C140.044 457.978 140.391 456.881 140.974 455.908C141.558 454.935 142.363 454.113 143.323 453.508Z" fill="#0039CA"/>
<path opacity="0.8" d="M143.323 453.508L206.102 417.272C207.969 416.199 209.478 416.961 209.478 418.968C209.396 420.102 209.048 421.2 208.461 422.173C207.874 423.146 207.066 423.967 206.102 424.569L143.323 460.805C141.471 461.879 139.962 461.117 139.962 459.109C140.044 457.978 140.391 456.881 140.974 455.908C141.558 454.935 142.363 454.113 143.323 453.508Z" fill="white"/>
<path d="M143.323 453.508L187.152 428.21C189.003 427.136 190.512 427.899 190.512 429.921C190.428 431.05 190.08 432.144 189.497 433.114C188.913 434.084 188.11 434.904 187.152 435.507L143.323 460.805C141.471 461.879 139.962 461.116 139.962 459.109C140.044 457.978 140.391 456.881 140.974 455.908C141.558 454.935 142.363 454.113 143.323 453.508Z" fill="#0039CA"/>
<path d="M143.323 468.133L174.44 450.132C176.307 449.058 177.816 449.821 177.816 451.843C177.732 452.974 177.382 454.069 176.796 455.039C176.209 456.01 175.402 456.828 174.44 457.429L143.323 475.43C141.471 476.504 139.962 475.742 139.962 473.734C140.044 472.603 140.391 471.506 140.974 470.533C141.558 469.56 142.363 468.738 143.323 468.133Z" fill="#0039CA"/>
<path d="M162.289 285.661L206.102 260.363C207.969 259.289 209.478 260.051 209.478 262.074C209.394 263.205 209.044 264.3 208.457 265.27C207.871 266.241 207.064 267.059 206.102 267.66L162.289 292.958C160.422 294.032 158.913 293.269 158.913 291.262C158.995 290.129 159.343 289.031 159.93 288.057C160.517 287.084 161.325 286.263 162.289 285.661Z" fill="#0039CA"/>
<path opacity="0.2" d="M162.289 285.661L206.102 260.363C207.969 259.289 209.478 260.051 209.478 262.074C209.394 263.205 209.044 264.3 208.457 265.27C207.871 266.241 207.064 267.059 206.102 267.66L162.289 292.958C160.422 294.032 158.913 293.269 158.913 291.262C158.995 290.129 159.343 289.031 159.93 288.057C160.517 287.084 161.325 286.263 162.289 285.661Z" fill="black"/>
<path d="M143.323 468.133L174.44 450.132C176.307 449.058 177.816 449.821 177.816 451.843C177.732 452.974 177.382 454.069 176.796 455.039C176.209 456.01 175.402 456.828 174.44 457.429L143.323 475.43C141.471 476.504 139.962 475.742 139.962 473.734C140.044 472.603 140.391 471.506 140.974 470.533C141.558 469.56 142.363 468.738 143.323 468.133Z" fill="#0039CA"/>
<path d="M143.323 482.681L206.102 446.445C207.969 445.371 209.478 446.133 209.478 448.141C209.396 449.274 209.048 450.372 208.461 451.345C207.874 452.319 207.066 453.14 206.102 453.742L143.323 489.916C141.471 491.005 139.962 490.227 139.962 488.22C140.053 487.099 140.404 486.015 140.988 485.053C141.571 484.092 142.371 483.279 143.323 482.681Z" fill="#0039CA"/>
<path opacity="0.8" d="M143.323 482.681L206.102 446.445C207.969 445.371 209.478 446.133 209.478 448.141C209.396 449.274 209.048 450.372 208.461 451.345C207.874 452.319 207.066 453.14 206.102 453.742L143.323 489.916C141.471 491.005 139.962 490.227 139.962 488.22C140.053 487.099 140.404 486.015 140.988 485.053C141.571 484.092 142.371 483.279 143.323 482.681Z" fill="white"/>
<path d="M143.323 482.681L199.785 450.008C201.652 448.934 203.162 449.696 203.162 451.719C203.077 452.85 202.727 453.945 202.141 454.915C201.554 455.886 200.747 456.704 199.785 457.305L143.323 489.978C141.471 491.067 139.962 490.289 139.962 488.282C140.044 487.15 140.391 486.053 140.974 485.08C141.558 484.107 142.363 483.285 143.323 482.681Z" fill="#0039CA"/>
<path d="M364.101 4.6244L222.112 86.6031V466.08L364.101 384.116C365.083 383.479 365.901 382.618 366.488 381.604C367.074 380.59 367.413 379.452 367.477 378.282V6.56924C367.461 4.48437 365.905 3.55085 364.101 4.6244Z" fill="#EBEBEB"/>
<path opacity="0.6" d="M364.101 4.6244L222.112 86.6031V466.08L364.101 384.116C365.083 383.479 365.901 382.618 366.488 381.604C367.074 380.59 367.413 379.452 367.477 378.282V6.56924C367.461 4.48437 365.905 3.55085 364.101 4.6244Z" fill="#FAFAFA"/>
<path d="M222.112 101.197V130.385L209.478 144.979H222.112V174.167L354.828 97.5409V24.5707L222.112 101.197Z" fill="#0039CA"/>
<g opacity="0.6">
<path d="M239.475 102.209L293.246 71.0912C295.845 69.5353 297.914 70.8111 297.914 73.8139C297.828 75.4455 297.361 77.0342 296.551 78.4528C295.74 79.8713 294.608 81.0801 293.246 81.9823L239.475 113.022C236.862 114.578 234.808 113.302 234.808 110.299C234.902 108.68 235.373 107.106 236.183 105.701C236.994 104.296 238.121 103.1 239.475 102.209Z" fill="white"/>
</g>
<path d="M236.442 125.842L340.514 65.7545C341.447 65.2255 342.194 65.5989 342.194 66.6102C342.154 67.1762 341.981 67.7248 341.689 68.2114C341.397 68.698 340.994 69.1089 340.514 69.4108L236.442 129.421C235.508 129.95 234.761 129.576 234.761 128.565C234.813 128.012 234.992 127.479 235.283 127.007C235.575 126.535 235.971 126.136 236.442 125.842Z" fill="#0039CA"/>
<path d="M236.442 125.842L340.514 65.7545C341.447 65.2255 342.194 65.5989 342.194 66.6102C342.154 67.1762 341.981 67.7248 341.689 68.2114C341.397 68.698 340.994 69.1089 340.514 69.4108L236.442 129.421C235.508 129.95 234.761 129.576 234.761 128.565C234.813 128.012 234.992 127.479 235.283 127.007C235.575 126.535 235.971 126.136 236.442 125.842Z" fill="#0039CA"/>
<path opacity="0.6" d="M236.442 125.842L340.514 65.7545C341.447 65.2255 342.194 65.5989 342.194 66.6102C342.154 67.1762 341.981 67.7248 341.689 68.2114C341.397 68.698 340.994 69.1089 340.514 69.4108L236.442 129.421C235.508 129.95 234.761 129.576 234.761 128.565C234.813 128.012 234.992 127.479 235.283 127.007C235.575 126.535 235.971 126.136 236.442 125.842Z" fill="white"/>
<path d="M236.442 136.733L340.514 76.6456C341.447 76.1011 342.194 76.4901 342.194 77.5014C342.154 78.0653 341.981 78.6117 341.689 79.0958C341.396 79.5799 340.994 79.9879 340.514 80.2864L236.442 140.374C235.508 140.919 234.761 140.53 234.761 139.518C234.801 138.954 234.975 138.408 235.267 137.924C235.559 137.44 235.961 137.032 236.442 136.733Z" fill="#0039CA"/>
<path opacity="0.6" d="M236.442 136.733L340.514 76.6456C341.447 76.1011 342.194 76.4901 342.194 77.5014C342.154 78.0653 341.981 78.6117 341.689 79.0958C341.396 79.5799 340.994 79.9879 340.514 80.2864L236.442 140.374C235.508 140.919 234.761 140.53 234.761 139.518C234.801 138.954 234.975 138.408 235.267 137.924C235.559 137.44 235.961 137.032 236.442 136.733Z" fill="white"/>
<path opacity="0.6" d="M236.442 147.624L340.514 87.5367C341.447 87.0077 342.194 87.3811 342.194 88.3924C342.154 88.9585 341.981 89.507 341.689 89.9936C341.397 90.4802 340.994 90.8911 340.514 91.193L236.442 151.281C235.508 151.81 234.761 151.436 234.761 150.425C234.801 149.859 234.975 149.31 235.267 148.824C235.558 148.337 235.961 147.926 236.442 147.624Z" fill="white"/>
<path d="M240.362 178.275L247.659 174.074C249.215 173.203 250.351 173.903 250.351 175.63V184.001C250.299 184.935 250.029 185.844 249.561 186.655C249.094 187.466 248.442 188.155 247.659 188.668L240.409 192.854C238.853 193.709 237.717 193.009 237.717 191.298V182.943C237.76 182.011 238.022 181.103 238.482 180.292C238.941 179.481 239.585 178.79 240.362 178.275Z" fill="#0039CA"/>
<path opacity="0.2" d="M240.362 178.275L247.659 174.074C249.215 173.203 250.351 173.903 250.351 175.63V184.001C250.299 184.935 250.029 185.844 249.561 186.655C249.094 187.466 248.442 188.155 247.659 188.668L240.409 192.854C238.853 193.709 237.717 193.009 237.717 191.298V182.943C237.76 182.011 238.022 181.103 238.482 180.292C238.941 179.481 239.585 178.79 240.362 178.275Z" fill="white"/>
<path d="M259.997 170.589L303.811 145.275C305.678 144.201 307.187 144.964 307.187 146.986C307.102 148.117 306.753 149.212 306.166 150.183C305.579 151.153 304.772 151.972 303.811 152.572L259.997 177.886C258.13 178.96 256.621 178.197 256.621 176.175C256.706 175.044 257.055 173.949 257.642 172.978C258.229 172.008 259.035 171.189 259.997 170.589Z" fill="#0039CA"/>
<path opacity="0.8" d="M259.997 170.589L303.811 145.275C305.678 144.201 307.187 144.964 307.187 146.986C307.102 148.117 306.753 149.212 306.166 150.183C305.579 151.153 304.772 151.972 303.811 152.572L259.997 177.886C258.13 178.96 256.621 178.197 256.621 176.175C256.706 175.044 257.055 173.949 257.642 172.978C258.229 172.008 259.035 171.189 259.997 170.589Z" fill="white"/>
<path d="M239.351 204.414L349.818 140.623C350.751 140.078 351.498 140.467 351.498 141.463C351.459 142.029 351.286 142.578 350.994 143.065C350.702 143.552 350.299 143.963 349.818 144.264L239.351 208.054C238.417 208.599 237.671 208.21 237.671 207.199C237.711 206.635 237.884 206.088 238.176 205.604C238.468 205.12 238.871 204.712 239.351 204.414Z" fill="#0039CA"/>
<path d="M239.351 215.351L349.818 151.561C350.751 151.032 351.498 151.405 351.498 152.416C351.458 152.983 351.285 153.531 350.993 154.018C350.701 154.504 350.298 154.915 349.818 155.217L239.351 219.008C238.417 219.537 237.671 219.163 237.671 218.152C237.711 217.586 237.884 217.037 238.176 216.551C238.468 216.064 238.87 215.653 239.351 215.351Z" fill="#0039CA"/>
<path d="M239.351 226.305L349.818 162.514C350.751 161.969 351.498 162.358 351.498 163.354C351.459 163.921 351.286 164.47 350.994 164.956C350.702 165.443 350.299 165.854 349.818 166.155L239.351 229.945C238.417 230.49 237.671 230.101 237.671 229.105C237.71 228.539 237.882 227.99 238.174 227.503C238.466 227.016 238.87 226.606 239.351 226.305Z" fill="#0039CA"/>
<path d="M239.351 237.274L349.818 173.483C350.751 172.954 351.498 173.327 351.498 174.339C351.458 174.905 351.285 175.453 350.993 175.94C350.701 176.426 350.298 176.837 349.818 177.139L239.351 240.93C238.417 241.459 237.671 241.085 237.671 240.074C237.711 239.508 237.884 238.959 238.176 238.473C238.468 237.986 238.87 237.575 239.351 237.274Z" fill="#0039CA"/>
<path d="M239.351 204.414L349.818 140.623C350.751 140.078 351.498 140.467 351.498 141.463C351.459 142.029 351.286 142.578 350.994 143.065C350.702 143.552 350.299 143.963 349.818 144.264L239.351 208.054C238.417 208.599 237.671 208.21 237.671 207.199C237.711 206.635 237.884 206.088 238.176 205.604C238.468 205.12 238.871 204.712 239.351 204.414Z" fill="#E0E0E0"/>
<path d="M239.351 215.351L349.818 151.561C350.751 151.032 351.498 151.405 351.498 152.416C351.458 152.983 351.285 153.531 350.993 154.018C350.701 154.504 350.298 154.915 349.818 155.217L239.351 219.008C238.417 219.537 237.671 219.163 237.671 218.152C237.711 217.586 237.884 217.037 238.176 216.551C238.468 216.064 238.87 215.653 239.351 215.351Z" fill="#E0E0E0"/>
<path d="M239.351 226.305L349.818 162.514C350.751 161.969 351.498 162.358 351.498 163.354C351.459 163.921 351.286 164.47 350.994 164.956C350.702 165.443 350.299 165.854 349.818 166.155L239.351 229.945C238.417 230.49 237.671 230.101 237.671 229.105C237.71 228.539 237.882 227.99 238.174 227.503C238.466 227.016 238.87 226.606 239.351 226.305Z" fill="#E0E0E0"/>
<path d="M239.351 237.274L349.818 173.483C350.751 172.954 351.498 173.327 351.498 174.339C351.458 174.905 351.285 175.453 350.993 175.94C350.701 176.426 350.298 176.837 349.818 177.139L239.351 240.93C238.417 241.459 237.671 241.085 237.671 240.074C237.711 239.508 237.884 238.959 238.176 238.473C238.468 237.986 238.87 237.575 239.351 237.274Z" fill="#E0E0E0"/>
<path opacity="0.8" d="M239.351 204.414L349.818 140.623C350.751 140.078 351.498 140.467 351.498 141.463C351.459 142.029 351.286 142.578 350.994 143.065C350.702 143.552 350.299 143.963 349.818 144.264L239.351 208.054C238.417 208.599 237.671 208.21 237.671 207.199C237.711 206.635 237.884 206.088 238.176 205.604C238.468 205.12 238.871 204.712 239.351 204.414Z" fill="#E0E0E0"/>
<path opacity="0.8" d="M239.351 215.351L349.818 151.561C350.751 151.032 351.498 151.405 351.498 152.416C351.458 152.983 351.285 153.531 350.993 154.018C350.701 154.504 350.298 154.915 349.818 155.217L239.351 219.008C238.417 219.537 237.671 219.163 237.671 218.152C237.711 217.586 237.884 217.037 238.176 216.551C238.468 216.064 238.87 215.653 239.351 215.351Z" fill="#E0E0E0"/>
<path opacity="0.8" d="M239.351 226.305L349.818 162.514C350.751 161.969 351.498 162.358 351.498 163.354C351.459 163.921 351.286 164.47 350.994 164.956C350.702 165.443 350.299 165.854 349.818 166.155L239.351 229.945C238.417 230.49 237.671 230.101 237.671 229.105C237.71 228.539 237.882 227.99 238.174 227.503C238.466 227.016 238.87 226.606 239.351 226.305Z" fill="#E0E0E0"/>
<path opacity="0.8" d="M239.351 237.274L349.818 173.483C350.751 172.954 351.498 173.327 351.498 174.339C351.458 174.905 351.285 175.453 350.993 175.94C350.701 176.426 350.298 176.837 349.818 177.139L239.351 240.93C238.417 241.459 237.671 241.085 237.671 240.074C237.711 239.508 237.884 238.959 238.176 238.473C238.468 237.986 238.87 237.575 239.351 237.274Z" fill="#E0E0E0"/>
<path d="M239.351 283.763L349.818 219.972C350.751 219.428 351.498 219.817 351.498 220.813C351.459 221.379 351.286 221.928 350.994 222.415C350.702 222.902 350.299 223.312 349.818 223.613L239.351 287.404C238.417 287.948 237.671 287.559 237.671 286.548C237.711 285.984 237.884 285.438 238.176 284.954C238.468 284.469 238.871 284.061 239.351 283.763Z" fill="#E0E0E0"/>
<path d="M239.351 294.701L349.818 230.91C350.751 230.381 351.498 230.755 351.498 231.766C351.458 232.332 351.285 232.88 350.993 233.367C350.701 233.854 350.298 234.265 349.818 234.566L239.351 298.357C238.417 298.886 237.671 298.513 237.671 297.501C237.711 296.935 237.884 296.387 238.176 295.9C238.468 295.414 238.87 295.003 239.351 294.701Z" fill="#E0E0E0"/>
<path d="M239.351 305.654L349.818 241.863C350.751 241.319 351.498 241.708 351.498 242.704C351.459 243.27 351.286 243.819 350.994 244.306C350.702 244.792 350.299 245.203 349.818 245.504L239.351 309.295C238.417 309.839 237.671 309.45 237.671 308.455C237.71 307.888 237.882 307.339 238.174 306.852C238.466 306.366 238.87 305.955 239.351 305.654Z" fill="#E0E0E0"/>
<path d="M239.351 316.623L349.818 252.832C350.751 252.303 351.498 252.677 351.498 253.688C351.458 254.254 351.285 254.803 350.993 255.289C350.701 255.776 350.298 256.187 349.818 256.489L239.351 320.279C238.417 320.808 237.671 320.435 237.671 319.423C237.711 318.857 237.884 318.309 238.176 317.822C238.468 317.336 238.87 316.925 239.351 316.623Z" fill="#E0E0E0"/>
<path opacity="0.8" d="M239.351 283.763L349.818 219.972C350.751 219.428 351.498 219.817 351.498 220.813C351.459 221.379 351.286 221.928 350.994 222.415C350.702 222.902 350.299 223.312 349.818 223.613L239.351 287.404C238.417 287.948 237.671 287.559 237.671 286.548C237.711 285.984 237.884 285.438 238.176 284.954C238.468 284.469 238.871 284.061 239.351 283.763Z" fill="#E0E0E0"/>
<path opacity="0.8" d="M239.351 294.701L349.818 230.91C350.751 230.381 351.498 230.755 351.498 231.766C351.458 232.332 351.285 232.88 350.993 233.367C350.701 233.854 350.298 234.265 349.818 234.566L239.351 298.357C238.417 298.886 237.671 298.513 237.671 297.501C237.711 296.935 237.884 296.387 238.176 295.9C238.468 295.414 238.87 295.003 239.351 294.701Z" fill="#E0E0E0"/>
<path opacity="0.8" d="M239.351 305.654L349.818 241.863C350.751 241.319 351.498 241.708 351.498 242.704C351.459 243.27 351.286 243.819 350.994 244.306C350.702 244.792 350.299 245.203 349.818 245.504L239.351 309.295C238.417 309.839 237.671 309.45 237.671 308.455C237.71 307.888 237.882 307.339 238.174 306.852C238.466 306.366 238.87 305.955 239.351 305.654Z" fill="#E0E0E0"/>
<path opacity="0.8" d="M239.351 316.623L349.818 252.832C350.751 252.303 351.498 252.677 351.498 253.688C351.458 254.254 351.285 254.803 350.993 255.289C350.701 255.776 350.298 256.187 349.818 256.489L239.351 320.279C238.417 320.808 237.671 320.435 237.671 319.423C237.711 318.857 237.884 318.309 238.176 317.822C238.468 317.336 238.87 316.925 239.351 316.623Z" fill="#E0E0E0"/>
<path d="M239.351 364.668L349.818 300.877C350.751 300.333 351.498 300.722 351.498 301.718C351.459 302.284 351.286 302.833 350.994 303.32C350.702 303.807 350.299 304.217 349.818 304.518L239.351 368.309C238.417 368.853 237.671 368.464 237.671 367.453C237.711 366.889 237.884 366.343 238.176 365.859C238.468 365.375 238.871 364.967 239.351 364.668Z" fill="#E0E0E0"/>
<path d="M239.351 375.606L349.818 311.815C350.751 311.286 351.498 311.66 351.498 312.671C351.458 313.237 351.285 313.785 350.993 314.272C350.701 314.759 350.298 315.17 349.818 315.471L239.351 379.262C238.417 379.791 237.671 379.418 237.671 378.406C237.711 377.84 237.884 377.292 238.176 376.805C238.468 376.319 238.87 375.908 239.351 375.606Z" fill="#E0E0E0"/>
<path d="M239.351 386.559L349.818 322.769C350.751 322.224 351.498 322.613 351.498 323.609C351.459 324.175 351.286 324.724 350.994 325.211C350.702 325.698 350.299 326.108 349.818 326.409L239.351 390.2C238.417 390.744 237.671 390.355 237.671 389.36C237.71 388.793 237.882 388.244 238.174 387.758C238.466 387.271 238.87 386.86 239.351 386.559Z" fill="#E0E0E0"/>
<path d="M239.351 397.528L349.818 333.738C350.751 333.209 351.498 333.582 351.498 334.593C351.458 335.159 351.285 335.708 350.993 336.194C350.701 336.681 350.298 337.092 349.818 337.394L239.351 401.184C238.417 401.713 237.671 401.34 237.671 400.329C237.711 399.763 237.884 399.214 238.176 398.728C238.468 398.241 238.87 397.83 239.351 397.528Z" fill="#E0E0E0"/>
<path opacity="0.8" d="M239.351 364.668L349.818 300.877C350.751 300.333 351.498 300.722 351.498 301.718C351.459 302.284 351.286 302.833 350.994 303.32C350.702 303.807 350.299 304.217 349.818 304.518L239.351 368.309C238.417 368.853 237.671 368.464 237.671 367.453C237.711 366.889 237.884 366.343 238.176 365.859C238.468 365.375 238.871 364.967 239.351 364.668Z" fill="#E0E0E0"/>
<path opacity="0.8" d="M239.351 375.606L349.818 311.815C350.751 311.286 351.498 311.66 351.498 312.671C351.458 313.237 351.285 313.785 350.993 314.272C350.701 314.759 350.298 315.17 349.818 315.471L239.351 379.262C238.417 379.791 237.671 379.418 237.671 378.406C237.711 377.84 237.884 377.292 238.176 376.805C238.468 376.319 238.87 375.908 239.351 375.606Z" fill="#E0E0E0"/>
<path opacity="0.8" d="M239.351 386.559L349.818 322.769C350.751 322.224 351.498 322.613 351.498 323.609C351.459 324.175 351.286 324.724 350.994 325.211C350.702 325.698 350.299 326.108 349.818 326.409L239.351 390.2C238.417 390.744 237.671 390.355 237.671 389.36C237.71 388.793 237.882 388.244 238.174 387.758C238.466 387.271 238.87 386.86 239.351 386.559Z" fill="#E0E0E0"/>
<path opacity="0.8" d="M239.351 397.528L349.818 333.738C350.751 333.209 351.498 333.582 351.498 334.593C351.458 335.159 351.285 335.708 350.993 336.194C350.701 336.681 350.298 337.092 349.818 337.394L239.351 401.184C238.417 401.713 237.671 401.34 237.671 400.329C237.711 399.763 237.884 399.214 238.176 398.728C238.468 398.241 238.87 397.83 239.351 397.528Z" fill="#E0E0E0"/>
<path d="M240.362 258.542L247.659 254.357C249.215 253.501 250.351 254.201 250.351 255.913V264.315C250.303 265.25 250.034 266.161 249.566 266.972C249.098 267.783 248.445 268.472 247.659 268.982L240.409 273.167C238.853 274.023 237.717 273.339 237.717 271.612V263.241C237.757 262.305 238.017 261.391 238.476 260.574C238.936 259.758 239.582 259.062 240.362 258.542Z" fill="#0039CA"/>
<path opacity="0.2" d="M240.362 258.542L247.659 254.357C249.215 253.501 250.351 254.201 250.351 255.913V264.315C250.303 265.25 250.034 266.161 249.566 266.972C249.098 267.783 248.445 268.472 247.659 268.982L240.409 273.167C238.853 274.023 237.717 273.339 237.717 271.612V263.241C237.757 262.305 238.017 261.391 238.476 260.574C238.936 259.758 239.582 259.062 240.362 258.542Z" fill="white"/>
<path d="M259.997 250.856L303.811 225.558C305.678 224.484 307.187 225.247 307.187 227.254C307.105 228.387 306.756 229.485 306.169 230.459C305.583 231.432 304.775 232.253 303.811 232.855L259.997 258.091C258.13 259.165 256.621 258.402 256.621 256.395C256.713 255.272 257.066 254.187 257.652 253.225C258.238 252.263 259.041 251.452 259.997 250.856Z" fill="#0039CA"/>
<path opacity="0.8" d="M259.997 250.856L303.811 225.558C305.678 224.484 307.187 225.247 307.187 227.254C307.105 228.387 306.756 229.485 306.169 230.459C305.583 231.432 304.775 232.253 303.811 232.855L259.997 258.091C258.13 259.165 256.621 258.402 256.621 256.395C256.713 255.272 257.066 254.187 257.652 253.225C258.238 252.263 259.041 251.452 259.997 250.856Z" fill="white"/>
<path d="M240.362 338.825L247.659 334.64C249.215 333.768 250.351 334.469 250.351 336.196V344.566C250.302 345.501 250.032 346.411 249.564 347.222C249.097 348.034 248.444 348.723 247.659 349.234L240.409 353.419C238.853 354.275 237.717 353.575 237.717 351.863V343.493C237.76 342.561 238.022 341.653 238.482 340.842C238.941 340.031 239.585 339.34 240.362 338.825Z" fill="#0039CA"/>
<path opacity="0.2" d="M240.362 338.825L247.659 334.64C249.215 333.768 250.351 334.469 250.351 336.196V344.566C250.302 345.501 250.032 346.411 249.564 347.222C249.097 348.034 248.444 348.723 247.659 349.234L240.409 353.419C238.853 354.275 237.717 353.575 237.717 351.863V343.493C237.76 342.561 238.022 341.653 238.482 340.842C238.941 340.031 239.585 339.34 240.362 338.825Z" fill="white"/>
<path d="M259.997 331.217L303.811 305.903C305.678 304.829 307.187 305.592 307.187 307.614C307.103 308.748 306.754 309.845 306.168 310.818C305.581 311.791 304.774 312.613 303.811 313.215L259.997 338.514C258.13 339.587 256.621 338.825 256.621 336.802C256.706 335.672 257.055 334.577 257.642 333.606C258.229 332.636 259.035 331.817 259.997 331.217Z" fill="#0039CA"/>
<path opacity="0.8" d="M259.997 331.217L303.811 305.903C305.678 304.829 307.187 305.592 307.187 307.614C307.103 308.748 306.754 309.845 306.168 310.818C305.581 311.791 304.774 312.613 303.811 313.215L259.997 338.514C258.13 339.587 256.621 338.825 256.621 336.802C256.706 335.672 257.055 334.577 257.642 333.606C258.229 332.636 259.035 331.817 259.997 331.217Z" fill="white"/>
<path d="M250.678 409.493L257.928 405.307C259.484 404.452 260.635 405.152 260.635 406.863V415.234C260.584 416.17 260.312 417.081 259.842 417.893C259.371 418.704 258.716 419.392 257.928 419.902L250.678 424.087C249.2 424.958 247.986 424.258 247.986 422.531V414.16C248.04 413.226 248.312 412.318 248.779 411.508C249.246 410.697 249.897 410.007 250.678 409.493Z" fill="#0039CA"/>
<path d="M239.351 437.934L269.27 420.664C270.204 420.135 270.951 420.508 270.951 421.52C270.91 422.086 270.737 422.634 270.445 423.121C270.153 423.607 269.751 424.018 269.27 424.32L239.351 441.59C238.417 442.119 237.671 441.746 237.671 440.735C237.711 440.168 237.884 439.62 238.176 439.133C238.468 438.647 238.87 438.236 239.351 437.934Z" fill="#E0E0E0"/>
<path d="M290.928 386.248L298.178 382.063C299.657 381.207 300.87 381.907 300.87 383.619V391.989C300.82 392.924 300.55 393.834 300.082 394.645C299.614 395.456 298.962 396.145 298.178 396.657L290.928 400.842C289.372 401.698 288.221 401.013 288.221 399.286V390.916C288.273 389.979 288.546 389.069 289.016 388.258C289.486 387.447 290.142 386.758 290.928 386.248Z" fill="#0039CA"/>
<path d="M279.586 414.689L309.505 397.419C310.439 396.875 311.186 397.264 311.186 398.275C311.145 398.839 310.972 399.385 310.68 399.869C310.388 400.353 309.985 400.761 309.505 401.06L279.586 418.346C278.652 418.89 277.906 418.501 277.906 417.505C277.942 416.936 278.114 416.384 278.406 415.895C278.698 415.405 279.102 414.992 279.586 414.689Z" fill="#E0E0E0"/>
<path d="M331.163 363.003L338.413 358.818C339.891 357.947 341.105 358.647 341.105 360.374V368.744C341.052 369.679 340.781 370.587 340.313 371.398C339.846 372.209 339.195 372.898 338.413 373.412L331.163 377.597C329.607 378.453 328.471 377.753 328.471 376.041V367.671C328.519 366.736 328.788 365.825 329.256 365.014C329.724 364.202 330.377 363.513 331.163 363.003Z" fill="#0039CA"/>
<path opacity="0.2" d="M250.678 409.493L257.928 405.307C259.484 404.452 260.635 405.152 260.635 406.863V415.234C260.584 416.17 260.312 417.081 259.842 417.893C259.371 418.704 258.716 419.392 257.928 419.902L250.678 424.087C249.2 424.958 247.986 424.258 247.986 422.531V414.16C248.04 413.226 248.312 412.318 248.779 411.508C249.246 410.697 249.897 410.007 250.678 409.493Z" fill="white"/>
<path opacity="0.2" d="M290.928 386.248L298.178 382.063C299.657 381.207 300.87 381.907 300.87 383.619V391.989C300.82 392.924 300.55 393.834 300.082 394.645C299.614 395.456 298.962 396.145 298.178 396.657L290.928 400.842C289.372 401.698 288.221 401.013 288.221 399.286V390.916C288.273 389.979 288.546 389.069 289.016 388.258C289.486 387.447 290.142 386.758 290.928 386.248Z" fill="white"/>
<path opacity="0.2" d="M331.163 363.003L338.413 358.818C339.891 357.947 341.105 358.647 341.105 360.374V368.744C341.052 369.679 340.781 370.587 340.313 371.398C339.846 372.209 339.195 372.898 338.413 373.412L331.163 377.597C329.607 378.453 328.471 377.753 328.471 376.041V367.671C328.519 366.736 328.788 365.825 329.256 365.014C329.724 364.202 330.377 363.513 331.163 363.003Z" fill="white"/>
<path d="M319.821 391.445L349.74 374.174C350.673 373.63 351.42 374.019 351.42 375.015C351.381 375.581 351.209 376.13 350.917 376.617C350.624 377.104 350.221 377.514 349.74 377.815L319.821 395.085C318.903 395.63 318.14 395.241 318.14 394.23C318.184 393.667 318.359 393.122 318.65 392.638C318.942 392.155 319.343 391.746 319.821 391.445Z" fill="#E0E0E0"/>
<mask id="mask0_20_381" style="mask-type:luminance" maskUnits="userSpaceOnUse" x="139" y="127" width="65" height="83">
<path d="M171.562 131.848C154.105 141.681 139.962 166.186 139.962 186.568C139.962 206.95 154.105 215.32 171.562 205.238C189.019 195.156 203.162 170.667 203.162 150.503C203.162 130.339 189.003 121.999 171.562 131.848Z" fill="white"/>
</mask>
<g mask="url(#mask0_20_381)">
<path d="M171.562 131.848C154.105 141.681 139.962 166.186 139.962 186.568C139.962 206.95 154.105 215.32 171.562 205.238C189.019 195.156 203.162 170.667 203.162 150.503C203.162 130.339 189.003 121.999 171.562 131.848Z" fill="#FAFAFA"/>
<path d="M186.872 194.658L161.573 201.442C161.138 201.584 160.673 201.615 160.223 201.532C159.772 201.45 159.349 201.256 158.992 200.969C158.635 200.681 158.356 200.309 158.179 199.887C158.002 199.464 157.933 199.004 157.979 198.548V155.481C158.069 151.917 159.259 148.467 161.387 145.606C163.516 142.745 166.477 140.613 169.866 139.503L178.517 137.184C185.098 135.426 190.435 139.721 190.435 146.769V189.851C190.406 190.921 190.049 191.957 189.412 192.817C188.774 193.677 187.887 194.32 186.872 194.658Z" fill="#37474F"/>
<path d="M188.085 205.798L185.425 194.051C185.425 194.051 185.425 178.197 183.169 176.735C180.913 175.272 180.259 174.992 180.259 174.992C183.153 173.996 189.252 173.25 191.15 178.82C192.97 184.078 195.693 197.039 196.985 203.418L188.085 205.798Z" fill="#F28F8F"/>
<path d="M187.867 205.86L178.843 175.132C182.842 173.576 187.976 172.285 190.466 176.408C192.706 180.111 196.285 199.513 196.985 203.418L187.867 205.86Z" fill="#0039CA"/>
<g opacity="0.4">
<path d="M187.867 205.86L178.843 175.132C182.842 173.576 187.976 172.285 190.466 176.408C192.706 180.111 196.285 199.513 196.985 203.418L187.867 205.86Z" fill="black"/>
</g>
<path d="M189.081 205.534L180.212 207.914C180.57 205.367 181.409 202.912 182.686 200.679C184.461 198.122 187.015 196.206 189.968 195.218C189.329 198.619 189.032 202.074 189.081 205.534Z" fill="#0039CA"/>
<path d="M189.081 205.534L180.212 207.914C180.57 205.367 181.409 202.912 182.686 200.679C184.461 198.122 187.015 196.206 189.968 195.218C189.329 198.619 189.032 202.074 189.081 205.534Z" fill="#0039CA"/>
<g opacity="0.7">
<path d="M189.081 205.534L180.212 207.914C180.57 205.367 181.409 202.912 182.686 200.679C184.461 198.122 187.015 196.206 189.968 195.218C189.329 198.619 189.032 202.074 189.081 205.534Z" fill="black"/>
</g>
<path d="M187.183 206.047L162.289 212.691L159.551 204.211C159.551 204.211 166.816 187.206 157.839 182.834C158.975 181.978 168.543 178.244 168.543 178.244L178.828 175.132C180.788 174.603 188.708 178.119 190.715 185.914C191.43 188.668 191.181 191.142 187.152 205.487C187.198 205.674 187.183 205.861 187.183 206.047Z" fill="#0039CA"/>
<path d="M185.129 142.474C186.84 143.097 188.956 147.142 188.754 156.897C188.583 165.175 186.094 167.788 184.849 168.784C182.985 169.717 180.928 170.202 178.843 170.2V175.132C178.843 175.132 182.079 178.244 181.877 180.609C181.675 182.974 177.21 184.654 174.191 183.254C171.986 182.011 170.08 180.301 168.606 178.244V166.886C168.378 167.148 168.101 167.362 167.79 167.516C167.48 167.669 167.141 167.76 166.795 167.781C166.449 167.803 166.102 167.756 165.775 167.642C165.447 167.528 165.145 167.351 164.887 167.119C164.401 166.787 163.987 166.36 163.669 165.865C163.351 165.369 163.135 164.815 163.035 164.234C162.935 163.654 162.952 163.06 163.086 162.486C163.22 161.913 163.467 161.372 163.814 160.896C165.369 158.858 168.092 158.562 169.15 160.6C170.467 157.403 172.824 154.745 175.84 153.054C180.757 150.067 183.433 147.406 185.129 142.474Z" fill="#FFA8A7"/>
<path d="M180.197 157.131C180.204 157.426 180.119 157.716 179.955 157.961C179.79 158.206 179.554 158.394 179.279 158.5C179.162 158.54 179.037 158.552 178.914 158.533C178.792 158.514 178.676 158.466 178.577 158.393C178.477 158.319 178.397 158.223 178.343 158.111C178.289 158 178.263 157.877 178.268 157.753C178.261 157.458 178.345 157.168 178.51 156.923C178.674 156.678 178.91 156.49 179.186 156.384C179.302 156.343 179.428 156.332 179.55 156.351C179.672 156.369 179.788 156.417 179.888 156.491C179.987 156.565 180.068 156.661 180.121 156.773C180.175 156.884 180.201 157.007 180.197 157.131Z" fill="#37474F"/>
<path d="M180.446 164.039L182.686 164.194C182.621 164.536 182.442 164.846 182.18 165.074C181.918 165.303 181.587 165.437 181.239 165.455C180.617 165.408 180.259 164.739 180.446 164.039Z" fill="#F28F8F"/>
<path d="M188.101 151.841L186.156 150.923C186.272 150.622 186.495 150.374 186.782 150.228C187.069 150.082 187.4 150.046 187.712 150.129C187.851 150.215 187.972 150.328 188.067 150.461C188.162 150.593 188.229 150.744 188.266 150.903C188.302 151.063 188.306 151.228 188.278 151.389C188.249 151.55 188.189 151.703 188.101 151.841Z" fill="#37474F"/>
<path d="M177.396 155.482L179.341 153.506C179.238 153.401 179.114 153.319 178.977 153.265C178.84 153.212 178.693 153.188 178.546 153.195C178.399 153.203 178.255 153.241 178.124 153.308C177.993 153.375 177.877 153.469 177.785 153.583C177.515 153.809 177.33 154.12 177.259 154.464C177.189 154.809 177.237 155.168 177.396 155.482Z" fill="#37474F"/>
<path d="M187.649 154.392C187.659 154.688 187.575 154.979 187.41 155.224C187.246 155.47 187.008 155.658 186.731 155.761C186.613 155.803 186.487 155.814 186.363 155.794C186.239 155.775 186.122 155.725 186.022 155.65C185.922 155.575 185.843 155.476 185.79 155.362C185.737 155.249 185.713 155.124 185.72 154.999C185.716 154.705 185.801 154.416 185.965 154.171C186.129 153.926 186.364 153.738 186.638 153.63C186.756 153.589 186.883 153.578 187.007 153.597C187.13 153.616 187.247 153.666 187.347 153.741C187.447 153.817 187.527 153.916 187.58 154.029C187.632 154.143 187.656 154.267 187.649 154.392Z" fill="#37474F"/>
<path d="M183.106 155.015L183.246 161.192L186.312 159.356L183.106 155.015Z" fill="#F28F8F"/>
<path d="M178.843 170.2C176.385 170.511 171.313 170.309 170.519 168.38C170.807 169.327 171.44 170.133 172.293 170.636C173.849 171.632 178.843 171.849 178.843 171.849V170.2Z" fill="#F28F8F"/>
<path d="M162.429 212.675L161.386 208.972L164.125 212.224L162.429 212.675Z" fill="#0039CA"/>
<path d="M160.391 213.22C159.273 207.897 157.76 202.665 155.863 197.568C153.249 190.395 156.174 184.203 157.932 182.834C159.691 181.464 168.637 178.244 168.637 178.244C171.873 187.455 172.76 199.793 172.838 209.89L160.391 213.22Z" fill="#0039CA"/>
<path opacity="0.4" d="M160.391 213.22C159.273 207.897 157.76 202.665 155.863 197.568C153.249 190.395 156.174 184.203 157.932 182.834C159.691 181.464 168.637 178.244 168.637 178.244C171.873 187.455 172.76 199.793 172.838 209.89L160.391 213.22Z" fill="black"/>
<path d="M155.972 214.402L147.088 216.783C146.84 216.616 146.606 216.428 146.388 216.223C146.388 216.223 150.589 200.011 151.927 194.627C153.265 189.244 154.292 185.541 157.901 182.834C164.389 187.05 161.387 198.766 161.387 198.766L155.972 214.402Z" fill="#0039CA"/>
<path opacity="0.4" d="M155.972 214.402L147.088 216.783C146.84 216.616 146.606 216.428 146.388 216.223C146.388 216.223 150.589 200.011 151.927 194.627C153.265 189.244 154.292 185.541 157.901 182.834C164.389 187.05 161.387 198.766 161.387 198.766L155.972 214.402Z" fill="black"/>
</g>
<path d="M26.6169 110.797V79.9752C26.5235 74.0006 30.4132 68.0106 38.3015 63.4674C53.8601 54.4589 79.1586 54.4589 94.7484 63.4674C102.637 68.0106 106.526 74.0006 106.433 79.9752V110.688C106.433 116.631 102.606 127.258 94.7484 131.786C79.1897 140.794 53.8913 140.794 38.3015 131.786C30.5221 127.305 26.6324 116.756 26.6169 110.859V110.797Z" fill="#7199FF"/>
<path d="M66.525 41.7319L132.385 79.7574L66.525 117.783L0.665039 79.7574L66.525 41.7319Z" fill="#7199FF"/>
<path d="M33.5718 98.7545L66.0116 80.2397C66.1455 80.1631 66.2931 80.1135 66.446 80.094C66.599 80.0744 66.7543 80.0851 66.9031 80.1256C67.052 80.166 67.1913 80.2354 67.3133 80.3297C67.4353 80.4241 67.5376 80.5415 67.6142 80.6753C67.6908 80.8092 67.7403 80.9568 67.7599 81.1097C67.7795 81.2627 67.7687 81.418 67.7283 81.5668C67.6878 81.7156 67.6184 81.855 67.5241 81.977C67.4298 82.099 67.3124 82.2012 67.1785 82.2779L35.89 100.093L33.5718 98.7545Z" fill="#E5E3E3"/>
<path d="M132.385 79.7573V82.4801L66.5249 120.49V117.783L132.385 79.7573Z" fill="#E6E6E6"/>
<path d="M0.665039 79.7573V82.4801L66.525 120.49V117.783L0.665039 79.7573Z" fill="#F0F0F0"/>
<path d="M31.938 100.528L33.9451 101.68C34.2485 101.184 34.671 100.772 35.1742 100.482L35.8743 100.077L33.5872 98.7701C32.9116 99.224 32.3478 99.8251 31.938 100.528Z" fill="#E5E3E3"/>
<path d="M106.511 97.4165L66.5249 124.566L26.6479 97.4787L66.5249 120.49L106.511 97.4165Z" fill="#0030AC"/>
<path d="M29.3707 132.548C29.9288 132.836 30.5476 132.986 31.1756 132.986C31.8035 132.986 32.4223 132.836 32.9804 132.548L35.9521 151.732C35.9521 155.357 26.5391 155.357 26.5391 151.732L29.3707 132.548Z" fill="#EBEBEB"/>
<path d="M29.1997 143.501L28.6085 154.019C28.4144 153.96 28.2267 153.882 28.0483 153.786L29.1997 143.501Z" fill="#7199FF"/>
<path d="M33.6495 154.097L32.4048 136.982L34.2563 153.848C34.0591 153.943 33.8565 154.026 33.6495 154.097Z" fill="#7199FF"/>
<path d="M31.5334 154.439H30.9421L31.2533 140.856L31.5334 154.439Z" fill="#7199FF"/>
<path d="M31.1601 134.151C31.8498 134.133 32.5177 133.905 33.0738 133.497C33.3103 133.323 33.471 133.064 33.5231 132.775C33.5752 132.486 33.5146 132.187 33.3539 131.941C33.1841 131.699 32.9265 131.533 32.636 131.478C32.3454 131.422 32.0448 131.483 31.798 131.646C31.65 131.789 31.4519 131.87 31.2457 131.87C31.0395 131.87 30.8414 131.789 30.6934 131.646C30.5723 131.538 30.4302 131.457 30.2761 131.407C30.1219 131.357 29.959 131.34 29.7979 131.356C29.6367 131.373 29.4808 131.423 29.34 131.503C29.1992 131.583 29.0766 131.692 28.9801 131.822C28.8836 131.952 28.8153 132.101 28.7794 132.259C28.7436 132.417 28.741 132.581 28.7719 132.74C28.8028 132.899 28.8665 133.05 28.9589 133.183C29.0513 133.316 29.1704 133.428 29.3086 133.513C29.8441 133.913 30.4915 134.136 31.1601 134.151Z" fill="#E5E3E3"/>
<path d="M31.2378 131.163C31.3903 131.165 31.5417 131.137 31.6832 131.08C31.8247 131.023 31.9534 130.939 32.062 130.832C32.1706 130.724 32.2568 130.597 32.3156 130.456C32.3744 130.315 32.4047 130.164 32.4047 130.012V102.815C32.4063 102.204 32.5679 101.603 32.8737 101.074C33.1794 100.544 33.6185 100.104 34.1473 99.7969L67.1784 80.9709C67.4407 80.8207 67.6334 80.5733 67.715 80.2822C67.7965 79.9911 67.7602 79.6796 67.614 79.415C67.5411 79.2836 67.4429 79.168 67.325 79.0748C67.207 78.9816 67.0718 78.9128 66.9271 78.8723C66.7824 78.8317 66.631 78.8203 66.4819 78.8387C66.3327 78.8571 66.1887 78.9049 66.0582 78.9794L32.9493 97.8365C32.0667 98.346 31.3335 99.0784 30.8229 99.9604C30.3123 100.842 30.0422 101.843 30.0398 102.862V130.059C30.0458 130.21 30.0816 130.358 30.145 130.496C30.2085 130.633 30.2985 130.757 30.4098 130.859C30.521 130.962 30.6514 131.042 30.7935 131.094C30.9356 131.146 31.0866 131.169 31.2378 131.163Z" fill="#FAFAFA"/>
<path d="M33.7895 130.012C33.7926 129.507 33.6455 129.012 33.367 128.59C33.0885 128.168 32.6911 127.839 32.2252 127.643C31.7592 127.448 31.2457 127.395 30.7497 127.492C30.2537 127.589 29.7976 127.83 29.4392 128.187C29.0808 128.543 28.8362 128.997 28.7365 129.493C28.6367 129.988 28.6864 130.502 28.879 130.969C29.0717 131.436 29.3987 131.836 29.8186 132.117C30.2386 132.398 30.7325 132.548 31.2379 132.548C31.5722 132.55 31.9037 132.486 32.2132 132.359C32.5226 132.233 32.804 132.046 33.0412 131.811C33.2783 131.575 33.4665 131.295 33.595 130.986C33.7234 130.677 33.7895 130.346 33.7895 130.012Z" fill="#EBEBEB"/>
<path d="M28.7173 130.152C28.8236 130.415 28.9854 130.652 29.1916 130.848C29.3978 131.043 29.6437 131.191 29.9124 131.283C30.1811 131.374 30.4663 131.407 30.7488 131.378C31.0312 131.349 31.3041 131.26 31.549 131.117C31.8615 130.928 32.12 130.663 32.2995 130.345C32.4789 130.027 32.5733 129.669 32.5733 129.304C32.5733 128.939 32.4789 128.581 32.2995 128.263C32.12 127.945 31.8615 127.68 31.549 127.491C32.025 127.557 32.4725 127.757 32.8395 128.067C33.2064 128.377 33.4777 128.785 33.6218 129.243C33.7658 129.702 33.7767 130.192 33.6531 130.656C33.5296 131.12 33.2766 131.54 32.9238 131.866C32.571 132.192 32.1327 132.411 31.6601 132.498C31.1876 132.585 30.7 132.536 30.2544 132.356C29.8087 132.176 29.4233 131.874 29.1429 131.484C28.8625 131.093 28.6987 130.632 28.6707 130.152H28.7173Z" fill="#7199FF"/>
<path d="M364.427 260.658C358.546 258.822 352.509 263.583 348.557 273.199C344.605 282.814 336.313 307.272 335.084 313.791C333.854 320.31 361.673 334.5 360.895 334.126C360.117 333.753 364.427 260.658 364.427 260.658Z" fill="#263238"/>
<path d="M351.498 486.975C350.658 487.286 350.456 488.873 350.331 492.016C350.238 494.396 349.724 498.551 352.509 499.375C355.294 500.2 359.386 499.78 361.175 497.539C363.4 494.739 364.91 492.281 368.084 488.858C370.853 485.901 373.825 483.132 374.945 478.978C375.956 475.213 375.116 473.595 372.549 472.505C369.033 470.95 363.494 475.897 360.74 476.675C358.359 477.344 352.323 486.664 351.498 486.975Z" fill="#263238"/>
<path d="M351.498 484.066V487.924C352.946 488.851 354.62 489.365 356.339 489.411C358.058 489.458 359.757 489.035 361.253 488.189C361.424 487.815 362.264 482.665 362.264 482.665L351.498 484.066Z" fill="#FFA8A7"/>
<path d="M382.755 509.224C382.755 509.224 381.651 512.585 381.059 515.447C380.577 517.781 379.908 521.671 380.717 523.445C381.526 525.218 384.731 526.339 389.663 526.292C392.869 526.292 397.863 528.455 401.27 530.353C404.678 532.251 412.161 533.107 415.88 532.671C420.267 532.158 424.826 529.559 425.542 527.786C426.257 526.012 425.308 524.067 414.946 519.648C414.853 519.648 400.539 514.981 395.514 509.426L382.755 509.224Z" fill="#263238"/>
<path d="M382.755 505.054C382.755 505.054 382.755 507.917 382.755 509.551C382.755 511.184 384.684 513.627 389.694 513.456C393.211 513.331 395.653 512.382 395.513 509.488V505.303L382.755 505.054Z" fill="#FFA8A7"/>
<path d="M348.977 432.831C349.837 425.992 351.364 419.255 353.536 412.713C353.536 412.713 352.167 395.365 351.498 378.92C350.782 361.152 351.498 338.81 351.202 334.391C351.202 334.391 408.536 322.784 409.563 343.322C410.59 363.859 407.291 416.136 406.622 425.16C405.953 434.184 404.382 442.166 402.515 456.791C400.648 471.416 395.513 505.303 395.513 505.303C393.53 506.314 391.328 506.82 389.103 506.776C386.878 506.733 384.697 506.141 382.755 505.054C382.755 505.054 378.725 463.979 379.146 453.571C379.473 445.839 380.802 438.183 383.097 430.793L381.059 399.131C380.095 384.397 379.083 377.348 378.85 370.923L377.621 370.3C377.621 370.3 376.361 395.723 375.692 404.747C375.023 413.771 373.576 422.422 371.024 439.179C368.752 453.711 362.015 484.47 362.015 484.47C355.465 488.017 351.56 484.019 351.56 484.019C351.56 484.019 347.235 445.433 348.977 432.831Z" fill="#455A64"/>
<path d="M378.85 370.969C378.85 370.969 364.941 364.108 357.986 357.931C357.986 357.931 364.443 367.033 372.938 371.078C372.938 371.078 375.956 402.647 375.941 402.024L377.683 370.907L378.85 370.969Z" fill="#37474F"/>
<path d="M391.235 254.155L387.843 272.825L370.977 271.596L374.509 250.421L391.235 254.155Z" fill="#FFA8A7"/>
<path d="M353.163 270.227C354.827 265.155 361.269 259.631 367.71 260.892C377.29 262.512 386.731 264.869 395.949 267.94C401.846 270.04 407.214 275.143 407.711 294.561L410.699 352.377L403.557 353.933L401.068 340.832L399.917 353.933C392.448 355.8 379.488 354.259 370.977 352.377C353.24 348.503 351.109 341.143 351.109 341.143C351.109 341.143 350.876 308.61 351.405 294.561C351.902 282.549 352.011 273.65 353.163 270.227Z" fill="#37474F"/>
<path d="M403.713 232.03C403.713 232.03 407.805 238.083 407.276 238.721C406.33 239.358 405.275 239.817 404.164 240.074L403.713 232.03Z" fill="#FFA8A7"/>
<path d="M391.235 212.862C395.171 214.853 401.97 218.525 403.837 232.917C405.767 247.698 403.231 252.459 401.239 254.419C399.885 255.742 392.542 255.82 388.87 254.715C384.202 253.33 373.902 249.394 369.173 241.801C363.603 232.87 362.358 220.906 368.644 216.145C377.465 209.455 387.905 211.182 391.235 212.862Z" fill="#FFA8A7"/>
<path d="M404.662 217.81C403.371 221.357 401.192 230.039 392.137 233.664C392.137 233.664 390.846 228.125 386.194 228.716C381.542 229.308 380.748 235.235 383.611 238.923C386.474 242.61 389.243 241.272 389.243 241.272C389.243 241.272 389.866 249.207 384.576 252.801C384.576 252.801 378.181 256.846 371.413 253.735C368.301 252.334 364.054 245.037 361.533 239.047C356.181 226.382 355.419 216.223 363.494 213.018C364.489 207.261 367.088 205.098 372.3 204.025C383.518 201.706 391.997 209.081 401.426 207.79C406.358 207.105 406.14 213.764 404.662 217.81Z" fill="#37474F"/>
<path d="M363.307 214.947L358.017 211.68C358.222 211.313 358.499 210.992 358.831 210.735C359.164 210.479 359.545 210.292 359.951 210.186C360.358 210.081 360.782 210.059 361.197 210.122C361.612 210.184 362.011 210.33 362.368 210.551C362.725 210.772 363.034 211.063 363.276 211.406C363.518 211.749 363.688 212.138 363.776 212.549C363.863 212.959 363.867 213.383 363.787 213.796C363.706 214.208 363.543 214.599 363.307 214.947Z" fill="#37474F"/>
<path d="M389.99 260.954L391.919 266.539C391.919 266.539 390.504 269.029 384.482 269.153C378.461 269.278 372.035 267.364 370.044 264.797C369.59 264.294 369.255 263.697 369.061 263.048C368.867 262.4 368.82 261.716 368.924 261.047C368.924 261.047 371.32 255.757 373.591 255.991L373.218 258.293C373.218 258.293 373.731 260.176 379.192 261.623C387.687 263.879 389.99 260.954 389.99 260.954Z" fill="#455A64"/>
<path d="M438.378 298.077C440.805 295.292 441.738 289.115 444.975 284.883C448.211 280.651 449.409 277.555 450.685 279.407C452.381 281.849 448.553 286.75 449.409 287.186C450.265 287.622 453.423 294.125 453.75 297.704C454.076 301.282 444.586 310.306 444.586 310.306L438.378 298.077Z" fill="#FFA8A7"/>
<path d="M389.99 260.954C390.381 260.946 390.768 261.045 391.107 261.239C391.447 261.434 391.728 261.717 391.919 262.059C392.871 263.777 393.723 265.548 394.471 267.364L391.919 266.539L389.99 260.954Z" fill="#455A64"/>
<path d="M449.144 286.688C449.144 286.688 460.611 285.692 462.276 286.688C463.941 287.684 463.443 292.647 462.276 295.696C461.109 298.746 455.259 300.722 449.829 304.394C449.829 303.834 449.144 286.688 449.144 286.688Z" fill="#FFA8A7"/>
<path d="M394.471 267.426C399.403 269.153 403.713 271.129 408.318 279.78C414.231 290.889 425.433 308.657 425.433 308.657L438.331 297.283C438.331 297.283 440.276 295.401 443.901 301.391C444.963 303.003 445.636 304.841 445.865 306.758C446.095 308.675 445.875 310.62 445.224 312.438C445.224 312.438 430.334 329.91 427.487 332.57C424.639 335.231 419.925 333.162 416.86 328.976C413.795 324.791 394.424 300.597 394.424 300.597C394.424 300.597 383.907 286.626 394.471 267.426Z" fill="#37474F"/>
<path d="M527.513 238.378H490.779C489.393 238.378 488.063 237.827 487.083 236.847C486.102 235.867 485.551 234.537 485.551 233.15V174.79C485.551 170.197 487.376 165.792 490.623 162.545C493.871 159.297 498.276 157.473 502.868 157.473H515.471C520.055 157.485 524.448 159.315 527.685 162.561C530.923 165.808 532.741 170.205 532.741 174.79V233.15C532.741 234.537 532.19 235.867 531.21 236.847C530.229 237.827 528.9 238.378 527.513 238.378Z" fill="#37474F"/>
<path d="M484.587 218.463C481.024 228.965 475.049 259.18 475.049 259.18C475.049 259.18 462.602 274.397 458.542 278.084C456.317 280.138 451.307 283.825 451.307 283.825L460.409 290.515C468.627 284.194 476.346 277.25 483.498 269.745C485.089 268.052 486.205 265.97 486.734 263.708L492.957 237.009C492.957 237.009 492.957 215.538 496.24 212.722C499.523 209.906 500.472 209.315 500.472 209.315C496.256 209.003 487.387 210.201 484.587 218.463Z" fill="#F28F8F"/>
<path d="M502.417 209.003C496.614 208.334 489.177 208.459 485.552 214.947C481.926 221.435 475.89 254.979 475.89 254.979C475.89 254.979 481.6 259.414 487.761 259.336L502.417 209.003Z" fill="#0039CA"/>
<path d="M486.283 240.261C487.328 245.261 487.73 250.375 487.481 255.477C487.03 262.199 482.393 273.93 482.393 273.93C482.393 273.93 486.018 277.913 496.24 276.31C504.564 275.019 501.624 249.861 496.847 245.037C494.061 242.159 490.284 240.451 486.283 240.261Z" fill="#0039CA"/>
<path opacity="0.3" d="M486.283 240.261C487.328 245.261 487.73 250.375 487.481 255.477C487.03 262.199 482.393 273.93 482.393 273.93C482.393 273.93 486.018 277.913 496.24 276.31C504.564 275.019 501.624 249.861 496.847 245.037C494.061 242.159 490.284 240.451 486.283 240.261Z" fill="black"/>
<path d="M505.513 417.941C505.579 419.089 505.291 420.229 504.689 421.208C503.15 423.751 501.34 426.12 499.29 428.272C496.411 431.384 492.102 435.04 489.006 437.732C487.294 439.288 487.232 441.497 489.69 442.29C494.272 443.406 499.108 442.733 503.211 440.408C506.322 438.759 510.648 431.073 513.199 429.983C516.14 428.661 517.774 428.008 518.769 426.654C519.522 425.884 519.992 424.882 520.102 423.811C520.213 422.741 519.957 421.664 519.376 420.757C517.991 418.174 515.906 414.207 515.051 414.658L515.315 415.467C514.646 417.568 508.921 420.01 505.98 419.435L505.513 417.941Z" fill="#37474F"/>
<path d="M535.495 330.159C536.817 316.156 540.614 293.627 536.724 276.948L485.069 279.687C483.638 296.132 481.957 347.476 483.762 353.357C485.847 360.296 504.471 408.326 505.544 417.988C505.618 419.122 505.33 420.25 504.72 421.208C503.183 423.757 501.372 426.131 499.321 428.288C497.921 429.844 496.209 431.399 494.404 432.955C494.253 433.177 494.162 433.434 494.14 433.702C494.14 435.258 498.061 435.74 500.363 435.071C503.235 434.058 505.709 432.156 507.427 429.641C508.749 427.883 511.721 424.507 513.65 421.971C514.294 421.188 514.843 420.332 515.284 419.419C515.799 418.28 515.888 416.993 515.533 415.794L515.409 415.405C514.399 412.255 513.772 408.996 513.542 405.696C512.826 395.101 511.006 370.627 509.325 364.108C508.159 359.358 506.386 354.777 504.051 350.479L509.948 304.596C509.948 304.596 510.57 345.049 512.406 355.364C513.853 363.626 514.413 373.957 516.109 388.131C517.665 401.698 519.469 425.596 519.469 425.596C519.516 425.604 519.563 425.604 519.609 425.596V437.016H529.271V430.388C529.271 427.396 529.521 424.408 530.018 421.457C531.574 412.433 534.81 391.787 535.479 384.801C536.537 373.723 532.539 359.798 532.539 359.798C532.539 359.798 534.204 343.82 535.495 330.159Z" fill="#FFA8A7"/>
<path d="M517.291 209.486C517.291 209.486 531.185 211.042 532.85 211.835C519.812 220.999 530.376 241.397 530.376 241.397L525.382 257.064C530.936 264.175 535.728 268.407 538.7 276.201C541.998 284.914 544.923 297.875 544.146 324.433C531.699 333.769 493.829 332.757 479.079 324.433C479.079 324.433 481.569 300.986 484.509 282.767C486.454 270.74 491.044 257.64 490.266 253.206C484.416 235.22 484.042 231.984 485.1 227.969C488.01 216.674 499.523 209.035 502.355 209.035L517.291 209.486Z" fill="#0039CA"/>
<path opacity="0.6" d="M517.291 209.486C517.291 209.486 531.185 211.042 532.85 211.835C519.812 220.999 530.376 241.397 530.376 241.397L525.382 257.064C530.936 264.175 535.728 268.407 538.7 276.201C541.998 284.914 544.923 297.875 544.146 324.433C531.699 333.769 493.829 332.757 479.079 324.433C479.079 324.433 481.569 300.986 484.509 282.767C486.454 270.74 491.044 257.64 490.266 253.206C484.416 235.22 484.042 231.984 485.1 227.969C488.01 216.674 499.523 209.035 502.355 209.035L517.291 209.486Z" fill="white"/>
<path d="M519.516 432.177V430.793C518.303 435.445 515.876 439.692 512.484 443.1C509.372 445.916 505.171 449.183 504.082 452.341C502.993 455.5 509.076 456.916 513.091 456.511C516.98 456.036 520.564 454.161 523.173 451.237C525.724 448.312 525.678 446.32 526.86 444.702C528.042 443.084 530.796 441.31 531.434 439.443C531.633 437.701 531.442 435.937 530.874 434.278C530.423 432.551 529.925 430.637 529.318 430.793V431.866C527.918 432.968 526.183 433.555 524.402 433.531C523.048 433.562 519.501 433.266 519.516 432.177Z" fill="#37474F"/>
<path d="M529.271 431.835C527.872 432.936 526.136 433.524 524.355 433.5C522.924 433.5 519.438 433.266 519.454 432.177V430.792C518.24 435.445 515.813 439.692 512.421 443.099L510.072 445.2C508.423 447.036 508.89 448.638 512.764 448.965C516.638 449.292 520.045 446.958 522.97 443.364C525.464 439.749 527.576 435.886 529.271 431.835Z" fill="#FFA8A7"/>
<path d="M493.3 167.01C490.81 168.489 487.73 174.79 488.025 187.89C488.29 199.03 491.899 201.784 493.72 202.578C495.54 203.371 499.025 202.889 502.417 202.329V209.003C502.417 209.003 497.75 214.464 498.014 217.53C498.279 220.595 504.798 221.31 509.201 218.323C512.38 215.858 515.116 212.869 517.291 209.486L517.213 194.129C517.213 194.129 519.221 196.059 522.612 193.102C525.413 190.66 526.346 186.521 524.168 184.312C523.603 183.78 522.918 183.391 522.172 183.178C521.425 182.964 520.639 182.932 519.878 183.085C519.116 183.237 518.403 183.569 517.796 184.053C517.189 184.537 516.706 185.159 516.389 185.868C516.389 185.868 514.506 180.624 506.68 178.088C499.617 175.739 495.774 173.078 493.3 167.01Z" fill="#FFA8A7"/>
<path d="M500.472 185.105C500.473 185.379 500.553 185.648 500.705 185.876C500.856 186.105 501.071 186.284 501.323 186.392C501.576 186.499 501.854 186.531 502.124 186.481C502.394 186.432 502.643 186.305 502.841 186.115C503.039 185.926 503.177 185.682 503.238 185.415C503.299 185.147 503.28 184.868 503.183 184.611C503.087 184.354 502.917 184.132 502.695 183.971C502.473 183.809 502.209 183.717 501.935 183.705C501.747 183.701 501.56 183.734 501.385 183.802C501.21 183.87 501.049 183.972 500.914 184.102C500.778 184.232 500.669 184.388 500.593 184.56C500.518 184.732 500.476 184.917 500.472 185.105Z" fill="#37474F"/>
<path d="M500.099 194.534L496.847 195.576C496.904 195.793 497.005 195.997 497.143 196.174C497.28 196.351 497.452 196.499 497.649 196.608C497.845 196.717 498.061 196.785 498.284 196.808C498.507 196.831 498.733 196.809 498.948 196.743C499.387 196.593 499.751 196.28 499.966 195.869C500.18 195.458 500.228 194.979 500.099 194.534Z" fill="#F28F8F"/>
<path d="M488.99 180.796L491.822 178.835C491.702 178.644 491.545 178.479 491.359 178.35C491.174 178.221 490.964 178.132 490.743 178.086C490.521 178.041 490.293 178.042 490.072 178.087C489.851 178.133 489.642 178.224 489.457 178.353C489.077 178.62 488.817 179.024 488.73 179.48C488.642 179.936 488.736 180.407 488.99 180.796Z" fill="#37474F"/>
<path d="M504.549 181.854L501.701 179.893C501.821 179.702 501.979 179.537 502.164 179.408C502.349 179.279 502.558 179.189 502.778 179.142C502.999 179.096 503.227 179.094 503.448 179.138C503.669 179.181 503.88 179.269 504.066 179.395C504.443 179.668 504.702 180.073 504.792 180.529C504.881 180.986 504.794 181.459 504.549 181.854Z" fill="#37474F"/>
<path d="M489.643 184.078C489.641 184.353 489.719 184.623 489.868 184.854C490.018 185.084 490.232 185.266 490.484 185.376C490.736 185.486 491.014 185.519 491.285 185.472C491.556 185.425 491.807 185.298 492.006 185.109C492.206 184.92 492.346 184.677 492.408 184.409C492.47 184.141 492.452 183.861 492.356 183.604C492.26 183.346 492.09 183.122 491.868 182.961C491.645 182.799 491.381 182.706 491.106 182.694C490.729 182.685 490.364 182.826 490.09 183.085C489.816 183.345 489.656 183.702 489.643 184.078Z" fill="#37474F"/>
<path d="M496.24 183.285L496.023 191.718L491.588 190.349L496.24 183.285Z" fill="#F28F8F"/>
<path d="M502.417 202.329C505.996 201.846 513.308 199.73 514.522 196.821C514.06 198.295 513.159 199.592 511.939 200.539C509.73 202.422 502.417 204.554 502.417 204.554V202.329Z" fill="#F28F8F"/>
<path d="M527.793 248.522L517.976 261.81L525.382 257.064L527.793 248.522Z" fill="#0039CA"/>
<path d="M450.451 283.825C448.351 286.532 447.059 291.791 445.955 293.565C444.85 295.339 443.528 296.879 445.955 297.206C448.382 297.532 451.929 292.787 453.252 289.909C453.921 288.285 455.184 286.978 456.784 286.252C455.648 285.863 456.239 281.305 455.445 280.667C455.445 280.667 451.307 282.363 450.451 283.825Z" fill="#F28F8F"/>
<path d="M449.829 304.363C452.023 302.729 452.1 300.722 452.521 297.532C452.941 294.343 461.731 290.889 462.011 293.269C462.291 295.65 463.085 297.641 460.455 300.535C457.826 303.429 453.843 306.51 449.829 304.363Z" fill="#F28F8F"/>
<path d="M517.291 209.486C517.291 209.486 530.298 210.622 532.85 211.835C535.402 213.049 539.649 220.392 535.853 231.05C532.056 241.708 528.602 254.248 528.991 256.769C529.38 259.289 538.451 272.327 538.451 272.327C535.948 274.175 533.119 275.531 530.112 276.326L525.444 266.182L526.533 276.964C521.845 278.104 517.027 278.627 512.204 278.52C512.204 278.52 507.8 237.103 517.291 209.486Z" fill="#0039CA"/>
<path d="M549.342 260.285C550.385 254.155 549.342 252.148 547.195 246.142L536.304 253.19C537.197 255.457 537.723 257.852 537.86 260.285C537.767 262.059 535.355 279.64 533.099 285.77C532.692 286.86 531.893 287.759 530.859 288.291C528.615 289.661 526.582 291.348 524.822 293.3C523.157 294.856 521.819 295.136 521.99 295.665C522.247 296.239 522.707 296.697 523.281 296.953C523.855 297.208 524.504 297.243 525.102 297.05C526.457 296.61 527.757 296.015 528.976 295.276C527.895 297.565 526.456 299.666 524.713 301.5C520.714 305.763 520.356 308.532 527.825 309.108C532.492 309.466 536.397 306.852 540.614 296.817C541.92 293.138 542.996 289.381 543.834 285.568C546.106 276.87 548.315 266.462 549.342 260.285Z" fill="#FFA8A7"/>
<path d="M532.85 211.835C538.093 214.184 539.587 218.821 541.532 225.636C543.477 232.45 549.576 252.894 549.576 252.894C549.576 252.894 544.348 259.118 537.129 257.375L527.793 234.706C527.793 234.706 523.437 219.91 532.85 211.835Z" fill="#0039CA"/>
</svg>
