<svg width="62" height="62" viewBox="0 0 62 62" fill="none" xmlns="http://www.w3.org/2000/svg">
<path fill-rule="evenodd" clip-rule="evenodd" d="M60.053 2.78801C55.7939 31.9401 29.6369 46.1001 2.3302 49.3197C1.86129 49.3759 1.52415 49.8016 1.58034 50.2705C1.63652 50.7395 2.06218 51.0765 2.53109 51.0204C30.6027 47.7121 57.3692 33.0032 61.7471 3.03432C61.8162 2.56758 61.4921 2.13325 61.0231 2.0641C60.5564 1.99496 60.1221 2.31911 60.053 2.78801Z" fill="#0039CA"/>
<path fill-rule="evenodd" clip-rule="evenodd" d="M2.94315 50.1101C4.15755 49.222 5.69392 48.1242 5.86462 47.9946C10.491 44.4811 14.3244 40.4381 17.6996 35.6951C17.974 35.3104 17.8832 34.7745 17.4986 34.5001C17.114 34.2257 16.5781 34.3165 16.3037 34.7011C13.0322 39.3015 9.31554 43.2235 4.82746 46.6311C4.56599 46.8299 1.11074 49.2954 0.449518 49.8465C0.177251 50.0712 0.0930366 50.283 0.0779106 50.3348C-0.0128451 50.6071 0.0411593 50.821 0.114628 50.9766C0.198901 51.1516 0.408449 51.4066 0.814689 51.5363C1.24038 51.6702 2.18687 51.7308 2.42457 51.7653C6.00942 52.2969 10.0567 52.5778 13.741 53.5977C17.2545 54.5701 20.4417 56.2167 22.4859 59.5163C22.7344 59.9182 23.2638 60.0414 23.6657 59.7929C24.0676 59.5444 24.1908 59.015 23.9423 58.613C21.6562 54.9245 18.1253 53.0337 14.199 51.9468C10.5363 50.9334 6.52584 50.6265 2.94315 50.1101Z" fill="#0039CA"/>
</svg>
