<svg width="108" height="93" viewBox="0 0 108 93" fill="none" xmlns="http://www.w3.org/2000/svg">
<path fill-rule="evenodd" clip-rule="evenodd" d="M46.0509 54.7275C46.3971 56.1106 46.9234 57.464 47.6503 58.7806C50.2001 63.401 57.1487 65.1225 63.9272 64.3215C70.7032 63.5211 77.1694 60.2133 78.8067 55.2907C79.7434 52.476 79.4552 50.3069 78.418 48.6643C77.3855 47.0306 75.5791 45.8989 73.327 45.215C67.0486 43.3112 57.2131 44.9271 53.1094 47.3C51.2118 48.3985 49.3909 49.6128 47.6473 50.9227C47.4482 45.0698 50.3471 38.8013 54.7543 32.7322C64.3321 19.5416 81.123 7.29859 90.5937 2.02448C91.1025 1.74114 91.2807 1.13897 90.9939 0.678578C90.7071 0.218187 90.0623 0.0739258 89.5534 0.357266C79.8953 5.73589 62.7809 18.2314 53.0139 31.6834C47.9679 38.6318 44.9013 45.8409 45.6475 52.4895C32.9872 62.8506 24.2214 78.3198 16.6871 91.3748C16.4065 91.8571 16.5968 92.4461 17.1101 92.6868C17.6229 92.9251 18.2651 92.7292 18.5451 92.2445C25.7724 79.7234 34.091 64.8942 46.0509 54.7275ZM47.8919 53.2232C48.1793 54.8018 48.7176 56.3468 49.5436 57.8396C51.7497 61.8387 57.8717 63.0748 63.7396 62.3812C67.3361 61.9549 70.8629 60.785 73.4171 58.9646C75.0234 57.8207 76.2398 56.4224 76.7852 54.7799C77.5022 52.6251 77.3753 50.9559 76.5802 49.7008C75.7829 48.4361 74.3444 47.607 72.5996 47.0793C66.8778 45.343 57.9166 46.7893 54.1814 48.9496C51.978 50.2233 49.8865 51.6576 47.8919 53.2232Z" fill="#0039CA"/>
</svg>
