<svg width="340" height="308" viewBox="0 0 340 308" fill="none" xmlns="http://www.w3.org/2000/svg">
<path d="M86.8302 179.209L138.605 142.067C140.448 140.748 139.51 137.838 137.245 137.838H87.313C84.763 137.838 82.7026 139.905 82.7026 142.448V177.087C82.7026 179.216 85.103 180.446 86.8302 179.209Z" fill="#7199FF"/>
<path opacity="0.3" d="M86.8302 179.209L138.605 142.067C140.448 140.748 139.51 137.838 137.245 137.838H87.313C84.763 137.838 82.7026 139.905 82.7026 142.448V177.087C82.7026 179.216 85.103 180.446 86.8302 179.209Z" fill="#7199FF"/>
<path d="M138.605 234.092L86.8302 196.95C85.103 195.713 82.7026 196.943 82.7026 199.072V233.711C82.7026 236.261 84.7698 238.321 87.313 238.321H137.245C139.51 238.321 140.448 235.411 138.605 234.092Z" fill="#7199FF"/>
<path d="M132.452 184.569L160.815 164.223C162.515 163.006 163.521 161.041 163.521 158.953V143.34C163.521 140.736 160.57 139.22 158.455 140.743L98.241 183.936C95.9018 185.609 95.9018 189.091 98.241 190.764L158.455 233.957C160.57 235.474 163.521 233.964 163.521 231.36V215.754C163.521 213.666 162.515 211.701 160.815 210.484L132.452 190.138C130.548 188.771 130.548 185.936 132.452 184.569Z" fill="#0039CA"/>
<path d="M67.5324 137.838H57.448C54.898 137.838 52.8376 139.905 52.8376 142.448V233.711C52.8376 236.261 54.9048 238.321 57.448 238.321H67.5324C70.0824 238.321 72.1428 236.254 72.1428 233.711V142.448C72.1428 139.905 70.0756 137.838 67.5324 137.838Z" fill="#0039CA"/>
<path d="M159.436 197.115C165.02 197.115 169.547 192.588 169.547 187.003C169.547 181.419 165.02 176.892 159.436 176.892C153.851 176.892 149.324 181.419 149.324 187.003C149.324 192.588 153.851 197.115 159.436 197.115Z" fill="#7199FF"/>
</svg>
