<svg width="148" height="130" viewBox="0 0 148 130" fill="none" xmlns="http://www.w3.org/2000/svg">
<path d="M37.7967 60.0086L60.3342 43.8411C61.1363 43.2669 60.7278 42 59.7422 42H38.0069C36.8969 42 36 42.8998 36 44.0069V59.0851C36 60.0116 37.0449 60.5474 37.7967 60.0086Z" fill="#7199FF"/>
<path opacity="0.3" d="M37.7967 60.0086L60.3342 43.8411C61.1363 43.2669 60.7278 42 59.7422 42H38.0069C36.8969 42 36 42.8998 36 44.0069V59.0851C36 60.0116 37.0449 60.5474 37.7967 60.0086Z" fill="#7199FF"/>
<path d="M60.3342 83.8988L37.7967 67.7313C37.0449 67.1926 36 67.7283 36 68.6548V83.7331C36 84.8431 36.8998 85.7399 38.0069 85.7399H59.7422C60.7278 85.7399 61.1363 84.4731 60.3342 83.8988Z" fill="#7199FF"/>
<path d="M57.6554 62.3417L70.0016 53.4854C70.7416 52.9555 71.1797 52.1001 71.1797 51.1914V44.3952C71.1797 43.2615 69.895 42.6015 68.9745 43.2645L42.7637 62.0664C41.7454 62.7946 41.7454 64.3101 42.7637 65.0383L68.9745 83.8402C69.895 84.5003 71.1797 83.8431 71.1797 82.7094V75.9163C71.1797 75.0075 70.7416 74.1521 70.0016 73.6223L57.6554 64.7659C56.8266 64.171 56.8266 62.9367 57.6554 62.3417Z" fill="#0039CA"/>
<path d="M29.3966 42H25.0069C23.8969 42 23 42.8998 23 44.0069V83.733C23 84.843 23.8998 85.7399 25.0069 85.7399H29.3966C30.5066 85.7399 31.4034 84.8401 31.4034 83.733V44.0069C31.4034 42.8998 30.5036 42 29.3966 42Z" fill="#0039CA"/>
<path d="M69.4015 67.803C71.8324 67.803 73.803 65.8324 73.803 63.4015C73.803 60.9706 71.8324 59 69.4015 59C66.9706 59 65 60.9706 65 63.4015C65 65.8324 66.9706 67.803 69.4015 67.803Z" fill="#7199FF"/>
</svg>
