<svg width="682" height="542" viewBox="0 0 682 542" fill="none" xmlns="http://www.w3.org/2000/svg">
<path d="M681.4 476.301H-46V476.664H681.4V476.301Z" fill="#EBEBEB"/>
<path d="M608.514 499.709H560.331V500.073H608.514V499.709Z" fill="#EBEBEB"/>
<path d="M435.858 503.667H423.216V504.03H435.858V503.667Z" fill="#EBEBEB"/>
<path d="M558.876 486.208H530.959V486.572H558.876V486.208Z" fill="#EBEBEB"/>
<path d="M93.1516 488.653H30.3188V489.017H93.1516V488.653Z" fill="#EBEBEB"/>
<path d="M115.323 488.653H106.114V489.017H115.323V488.653Z" fill="#EBEBEB"/>
<path d="M281.548 494.792H145.262V495.156H281.548V494.792Z" fill="#EBEBEB"/>
<path d="M298.787 411.417H17.8802C15.6796 411.413 13.5704 410.536 12.0157 408.979C10.461 407.422 9.58785 405.311 9.58785 403.11V8.23416C9.60701 6.04618 10.4887 3.95411 12.0413 2.41237C13.5939 0.870636 15.6921 0.00374813 17.8802 0H298.787C300.991 0 303.103 0.875189 304.661 2.43304C306.219 3.99088 307.094 6.10377 307.094 8.3069V403.11C307.094 405.313 306.219 407.426 304.661 408.984C303.103 410.542 300.991 411.417 298.787 411.417ZM17.8802 0.290961C15.7761 0.294815 13.7594 1.13338 12.2729 2.62261C10.7864 4.11183 9.95155 6.13001 9.95155 8.23416V403.11C9.95155 405.214 10.7864 407.233 12.2729 408.722C13.7594 410.211 15.7761 411.05 17.8802 411.053H298.787C300.893 411.05 302.911 410.212 304.4 408.723C305.889 407.234 306.727 405.216 306.731 403.11V8.23416C306.727 6.12868 305.889 4.11052 304.4 2.62172C302.911 1.13291 300.893 0.294807 298.787 0.290961H17.8802Z" fill="#EBEBEB"/>
<path d="M613.475 411.417H332.553C330.351 411.413 328.241 410.537 326.684 408.98C325.127 407.423 324.25 405.312 324.246 403.11V8.23416C324.269 6.04486 325.154 3.9528 326.709 2.41146C328.264 0.870128 330.364 0.00370725 332.553 0H613.475C615.66 0.0075715 617.755 0.876152 619.305 2.41748C620.854 3.95881 621.734 6.04869 621.753 8.23416V403.11C621.753 405.308 620.882 407.417 619.33 408.974C617.778 410.531 615.673 411.409 613.475 411.417ZM332.553 0.290961C330.448 0.294807 328.43 1.13291 326.941 2.62172C325.452 4.11052 324.614 6.12868 324.61 8.23416V403.11C324.614 405.216 325.452 407.234 326.941 408.723C328.43 410.212 330.448 411.05 332.553 411.053H613.475C615.58 411.05 617.599 410.212 619.087 408.723C620.576 407.234 621.414 405.216 621.418 403.11V8.23416C621.414 6.12868 620.576 4.11052 619.087 2.62172C617.599 1.13291 615.58 0.294807 613.475 0.290961H332.553Z" fill="#EBEBEB"/>
<path d="M306.556 172.946H100.004V475.792H306.556V172.946Z" fill="#F0F0F0"/>
<path d="M299.253 182.475H107.292V238.412H299.253V182.475Z" fill="#E0E0E0"/>
<path d="M118.203 191.524H107.292V238.398H118.203V191.524Z" fill="#EBEBEB"/>
<path d="M170.94 191.524H160.029V238.398H170.94V191.524Z" fill="#EBEBEB"/>
<path d="M230.793 190.347L220.04 192.2L228.003 238.393L238.755 236.539L230.793 190.347Z" fill="#EBEBEB"/>
<path d="M131.718 197.707H120.807V238.413H131.718V197.707Z" fill="#EBEBEB"/>
<path d="M156.785 197.707H145.874V238.413H156.785V197.707Z" fill="#EBEBEB"/>
<path d="M220.054 197.707H209.143V238.413H220.054V197.707Z" fill="#EBEBEB"/>
<path d="M185.271 196.295L174.62 198.662L183.451 238.398L194.102 236.03L185.271 196.295Z" fill="#EBEBEB"/>
<path d="M141.145 189.197H135.69V238.398H141.145V189.197Z" fill="#EBEBEB"/>
<path d="M206 189.197H200.545V238.398H206V189.197Z" fill="#EBEBEB"/>
<path d="M107.307 303.209H299.267V247.272L107.307 247.272V303.209Z" fill="#E0E0E0"/>
<path d="M288.342 303.195H299.253V256.321H288.342V303.195Z" fill="#EBEBEB"/>
<path d="M235.62 303.195H246.531V256.321H235.62V303.195Z" fill="#EBEBEB"/>
<path d="M167.808 301.332L178.56 303.185L186.522 256.993L175.77 255.139L167.808 301.332Z" fill="#EBEBEB"/>
<path d="M274.827 303.209H285.738V262.504H274.827V303.209Z" fill="#EBEBEB"/>
<path d="M249.775 303.209H260.686V262.504H249.775V303.209Z" fill="#EBEBEB"/>
<path d="M186.506 303.209H197.417V262.504H186.506V303.209Z" fill="#EBEBEB"/>
<path d="M212.493 300.831L223.144 303.198L231.975 263.462L221.324 261.095L212.493 300.831Z" fill="#EBEBEB"/>
<path d="M265.4 303.195H270.855V253.993H265.4V303.195Z" fill="#EBEBEB"/>
<path d="M200.559 303.195H206.015V253.993H200.559V303.195Z" fill="#EBEBEB"/>
<path d="M118.203 256.321H107.292V303.195H118.203V256.321Z" fill="#EBEBEB"/>
<path d="M131.718 262.49H120.807V303.195H131.718V262.49Z" fill="#EBEBEB"/>
<path d="M156.785 262.49H145.874V303.195H156.785V262.49Z" fill="#EBEBEB"/>
<path d="M141.145 253.993H135.69V303.195H141.145V253.993Z" fill="#EBEBEB"/>
<path d="M299.253 312.055H107.292V367.992H299.253V312.055Z" fill="#E0E0E0"/>
<path d="M228.39 321.104H217.479V367.977H228.39V321.104Z" fill="#EBEBEB"/>
<path d="M288.252 319.923L277.499 321.776L285.461 367.969L296.214 366.115L288.252 319.923Z" fill="#EBEBEB"/>
<path d="M189.168 327.286H178.257V367.991H189.168V327.286Z" fill="#EBEBEB"/>
<path d="M214.234 327.286H203.323V367.991H214.234V327.286Z" fill="#EBEBEB"/>
<path d="M277.504 327.286H266.593V367.991H277.504V327.286Z" fill="#EBEBEB"/>
<path d="M242.726 325.875L232.075 328.242L240.906 367.978L251.557 365.611L242.726 325.875Z" fill="#EBEBEB"/>
<path d="M198.595 318.776H193.14V367.977H198.595V318.776Z" fill="#EBEBEB"/>
<path d="M263.45 318.776H257.995V367.977H263.45V318.776Z" fill="#EBEBEB"/>
<path d="M162.794 319.933L152.042 321.787L160.004 367.979L170.757 366.126L162.794 319.933Z" fill="#EBEBEB"/>
<path d="M152.042 327.286H141.131V367.991H152.042V327.286Z" fill="#EBEBEB"/>
<path d="M117.27 325.875L106.619 328.242L115.45 367.978L126.101 365.611L117.27 325.875Z" fill="#EBEBEB"/>
<path d="M138.003 318.776H132.548V367.977H138.003V318.776Z" fill="#EBEBEB"/>
<path d="M64.361 476.578H100.004L100.004 172.947H64.361L64.361 476.578Z" fill="#E0E0E0"/>
<path d="M427.45 468.649H397.175L413.091 338.968C413.473 336.259 414.804 333.773 416.847 331.953C418.891 330.133 421.514 329.098 424.249 329.032H556.287L536.923 468.591L427.45 468.649Z" fill="#F5F5F5"/>
<path d="M523.467 468.649H553.741L569.671 338.968C569.865 337.722 569.783 336.448 569.431 335.236C569.079 334.025 568.464 332.905 567.632 331.958C566.799 331.01 565.768 330.256 564.612 329.751C563.456 329.245 562.204 329 560.942 329.032H550.54C547.81 329.116 545.196 330.157 543.156 331.973C541.116 333.79 539.78 336.266 539.382 338.968L523.467 468.649Z" fill="#F0F0F0"/>
<path d="M512.323 468.446L517.807 405.744C517.923 404.384 518.502 403.104 519.447 402.119C520.392 401.134 521.647 400.504 523.001 400.332L525.256 400.041C527.076 399.813 528.763 398.966 530.032 397.641C531.301 396.316 532.075 394.595 532.224 392.767L533.228 381.332C533.327 380.224 533.194 379.107 532.838 378.052C532.481 376.998 531.909 376.029 531.158 375.208C530.407 374.387 529.493 373.731 528.474 373.283C527.455 372.835 526.354 372.603 525.241 372.604H575.839C576.952 372.603 578.053 372.835 579.072 373.283C580.091 373.731 581.005 374.387 581.756 375.208C582.507 376.029 583.079 376.998 583.436 378.052C583.792 379.107 583.925 380.224 583.826 381.332L582.822 392.767C582.673 394.595 581.899 396.316 580.63 397.641C579.36 398.966 577.674 399.813 575.854 400.041L573.599 400.332C572.246 400.506 570.993 401.138 570.048 402.122C569.103 403.107 568.524 404.385 568.405 405.744L562.921 468.446C562.725 470.649 561.711 472.7 560.08 474.194C558.448 475.688 556.317 476.518 554.105 476.52H503.507C505.719 476.518 507.85 475.688 509.482 474.194C511.113 472.7 512.127 470.649 512.323 468.446Z" fill="#E6E6E6"/>
<path d="M373.069 390.105C372.668 385.345 370.495 380.909 366.979 377.676C363.463 374.443 358.861 372.648 354.084 372.647H398.136C402.9 372.667 407.483 374.47 410.984 377.701C414.485 380.932 416.648 385.357 417.048 390.105L421.412 439.801H377.419L373.069 390.105Z" fill="#E6E6E6"/>
<path d="M334.517 372.705H354.07C358.846 372.706 363.448 374.501 366.964 377.734C370.48 380.968 372.654 385.403 373.055 390.163L377.419 439.859H482.339L486.704 390.163C487.101 385.414 489.263 380.987 492.764 377.755C496.266 374.523 500.851 372.721 505.616 372.705H525.183C526.296 372.705 527.397 372.936 528.416 373.385C529.434 373.833 530.349 374.489 531.1 375.31C531.851 376.131 532.423 377.1 532.78 378.154C533.136 379.208 533.269 380.325 533.17 381.434L532.166 392.869C532.017 394.697 531.242 396.418 529.973 397.743C528.704 399.067 527.018 399.915 525.198 400.143L522.943 400.434C521.589 400.605 520.334 401.236 519.389 402.221C518.444 403.206 517.865 404.485 517.749 405.845L512.323 468.445C512.127 470.649 511.113 472.699 509.482 474.193C507.85 475.688 505.719 476.517 503.507 476.52H356.252C354.04 476.517 351.908 475.688 350.277 474.193C348.646 472.699 347.632 470.649 347.436 468.445L341.951 405.744C341.83 404.385 341.25 403.109 340.306 402.125C339.361 401.141 338.11 400.508 336.758 400.332L334.503 400.041C332.682 399.811 330.995 398.963 329.724 397.639C328.453 396.315 327.675 394.595 327.52 392.767L326.53 381.332C326.446 380.232 326.59 379.126 326.954 378.083C327.317 377.041 327.891 376.085 328.641 375.275C329.391 374.465 330.3 373.819 331.311 373.377C332.322 372.935 333.414 372.706 334.517 372.705Z" fill="#F0F0F0"/>
<path d="M102.622 157.817C102.622 157.817 101.007 147.182 108.762 140.359C116.516 133.536 115.832 129.492 113.606 128.968C111.38 128.444 109.358 135.253 105.954 137.129C105.954 137.129 105.837 127.411 109.3 123.847C112.762 120.283 114.581 111.045 111.278 110.885C107.976 110.725 107.656 116.355 106.914 120.356C106.172 124.356 102.55 129.972 102.55 129.972C102.55 129.972 101.837 121.243 99.6399 117.708C97.4432 114.173 103.364 105.953 101.095 102.389C98.8253 98.8245 94.7082 105.618 95.0428 113.285C95.3774 120.952 100.498 129.128 99.3053 137.129C99.3053 137.129 97.0504 131.499 95.0282 130.99C93.0061 130.481 90.9548 126.771 89.6018 125.389C88.2489 124.007 86.5322 128.779 89.6018 133.201C92.6714 137.624 100.498 149.481 99.3053 159.053L102.622 157.817Z" fill="#E6E6E6"/>
<path d="M107.249 152.972L109.794 168.902C109.977 170.059 109.907 171.241 109.589 172.368C109.271 173.495 108.713 174.54 107.953 175.43C107.192 176.321 106.248 177.036 105.184 177.526C104.121 178.016 102.964 178.271 101.793 178.271H99.0871C97.9162 178.271 96.7592 178.016 95.6958 177.526C94.6325 177.036 93.6881 176.321 92.9276 175.43C92.1672 174.54 91.6087 173.495 91.2908 172.368C90.9728 171.241 90.9028 170.059 91.0857 168.902L93.6607 152.972H107.249Z" fill="#E6E6E6"/>
<path d="M259.581 175.158H267.48V141.188H259.581V175.158Z" fill="#EBEBEB"/>
<path d="M221.377 175.158H229.277V141.188H221.377V175.158Z" fill="#EBEBEB"/>
<path d="M172.241 173.808L180.025 175.149L185.796 141.674L178.011 140.332L172.241 173.808Z" fill="#EBEBEB"/>
<path d="M249.79 175.143H257.689V145.654H249.79V175.143Z" fill="#EBEBEB"/>
<path d="M231.634 175.143H239.533V145.654H231.634V175.143Z" fill="#EBEBEB"/>
<path d="M185.779 175.143H193.678V145.654H185.779V175.143Z" fill="#EBEBEB"/>
<path d="M204.619 173.432L212.33 175.146L218.728 146.36L211.016 144.646L204.619 173.432Z" fill="#EBEBEB"/>
<path d="M242.952 175.158H246.909V139.501H242.952V175.158Z" fill="#EBEBEB"/>
<path d="M195.948 175.158H199.905V139.501H195.948V175.158Z" fill="#EBEBEB"/>
<path d="M167.783 148.186H129.274V174.765H167.783V148.186Z" fill="#EBEBEB"/>
<path d="M299.849 159.068H267.597V178.911H299.849V159.068Z" fill="#EBEBEB"/>
<path d="M292.314 141.625H276.18V161.468H292.314V141.625Z" fill="#EBEBEB"/>
<path d="M561.83 115.366H523.467V275.219H561.83V115.366Z" fill="#E0E0E0"/>
<path d="M414.24 275.655H557.713V115.38L414.24 115.38V275.655Z" fill="#E0E0E0"/>
<path d="M409.614 275.655H558.469V115.38L409.614 115.38V275.655Z" fill="#F0F0F0"/>
<path d="M415.986 268.279H552.359V120.472L415.986 120.472V268.279Z" fill="white"/>
<path d="M415.971 268.279H418.503V120.472H415.971V268.279Z" fill="#E0E0E0"/>
<path d="M418.095 226.774V230.76H552.723V226.774H418.095Z" fill="#E0E0E0"/>
<path d="M415.971 226.76L554.483 226.76V220.068L415.971 220.068V226.76Z" fill="#F0F0F0"/>
<path d="M317.7 542C473.483 542 599.771 534.627 599.771 525.532C599.771 516.437 473.483 509.063 317.7 509.063C161.916 509.063 35.6288 516.437 35.6288 525.532C35.6288 534.627 161.916 542 317.7 542Z" fill="#F5F5F5"/>
<path d="M422.373 142.309H162.094C156.213 142.309 151.445 147.076 151.445 152.958V459.426C151.445 465.307 156.213 470.075 162.094 470.075H422.373C428.254 470.075 433.022 465.307 433.022 459.426V152.958C433.022 147.076 428.254 142.309 422.373 142.309Z" fill="#0039CA"/>
<path opacity="0.6" d="M422.373 142.309H162.094C156.213 142.309 151.445 147.076 151.445 152.958V459.426C151.445 465.307 156.213 470.075 162.094 470.075H422.373C428.254 470.075 433.022 465.307 433.022 459.426V152.958C433.022 147.076 428.254 142.309 422.373 142.309Z" fill="white"/>
<path d="M387.414 292.633H197.068V325.221H387.414V292.633Z" fill="white"/>
<g opacity="0.4">
<path d="M214.089 312.098V312.956H207.484V303.617H213.885V304.46H208.473V307.792H213.303V308.621H208.473V312.098H214.089Z" fill="#263238"/>
<path d="M215.413 308.927H218.919V309.742H215.413V308.927Z" fill="#263238"/>
<path d="M232.609 308.883V312.957H231.663V308.97C231.663 307.516 230.921 306.73 229.655 306.73C229.327 306.715 229 306.771 228.696 306.896C228.392 307.021 228.119 307.21 227.896 307.451C227.673 307.692 227.505 307.979 227.404 308.292C227.304 308.605 227.272 308.935 227.313 309.261V312.957H226.353V308.97C226.353 307.516 225.611 306.73 224.331 306.73C224.003 306.715 223.675 306.771 223.371 306.896C223.067 307.021 222.794 307.21 222.571 307.451C222.348 307.692 222.18 307.979 222.08 308.292C221.979 308.605 221.948 308.935 221.989 309.261V312.957H221.028V305.93H221.945V307.21C222.219 306.781 222.602 306.432 223.054 306.197C223.506 305.962 224.011 305.85 224.52 305.872C225.034 305.828 225.549 305.945 225.994 306.205C226.44 306.465 226.794 306.857 227.008 307.327C227.298 306.858 227.709 306.475 228.198 306.22C228.687 305.964 229.235 305.844 229.786 305.872C230.181 305.842 230.578 305.901 230.947 306.044C231.316 306.188 231.648 306.412 231.919 306.701C232.19 306.99 232.392 307.336 232.512 307.714C232.631 308.091 232.664 308.491 232.609 308.883Z" fill="#263238"/>
<path d="M240.494 308.592V312.956H239.577V311.851C239.317 312.244 238.955 312.56 238.53 312.765C238.105 312.97 237.632 313.056 237.162 313.015C235.576 313.015 234.602 312.185 234.602 310.978C234.602 309.77 235.3 308.985 237.308 308.985H239.533V308.563C239.533 307.355 238.864 306.701 237.555 306.701C236.701 306.691 235.871 306.985 235.213 307.53L234.791 306.832C235.613 306.171 236.646 305.83 237.7 305.872C238.072 305.826 238.448 305.865 238.803 305.985C239.157 306.104 239.48 306.302 239.748 306.563C240.016 306.824 240.222 307.142 240.351 307.493C240.48 307.844 240.529 308.22 240.494 308.592ZM239.533 310.847V309.698H237.337C235.984 309.698 235.533 310.221 235.533 310.949C235.533 311.676 236.187 312.273 237.308 312.273C237.782 312.304 238.254 312.183 238.655 311.926C239.056 311.669 239.363 311.291 239.533 310.847Z" fill="#263238"/>
<path d="M242.85 303.719C242.852 303.629 242.872 303.54 242.908 303.458C242.944 303.376 242.996 303.302 243.061 303.239C243.126 303.177 243.202 303.129 243.286 303.096C243.37 303.063 243.459 303.048 243.549 303.049C243.637 303.048 243.724 303.063 243.806 303.095C243.888 303.127 243.963 303.174 244.026 303.235C244.09 303.296 244.141 303.369 244.176 303.449C244.211 303.53 244.231 303.616 244.232 303.704C244.234 303.795 244.218 303.886 244.185 303.97C244.151 304.055 244.101 304.132 244.037 304.197C243.974 304.262 243.898 304.314 243.814 304.349C243.73 304.384 243.64 304.402 243.549 304.402C243.458 304.404 243.367 304.388 243.283 304.355C243.198 304.321 243.121 304.271 243.056 304.207C242.991 304.144 242.939 304.068 242.904 303.984C242.868 303.9 242.85 303.81 242.85 303.719ZM243.069 305.93H244.014V312.957H243.069V305.93Z" fill="#263238"/>
<path d="M246.647 303.049H247.593V312.956H246.647V303.049Z" fill="#263238"/>
</g>
<path d="M387.414 337.15H197.068V369.737H387.414V337.15Z" fill="white"/>
<g opacity="0.4">
<path d="M214.787 351.378C214.787 353.371 213.333 354.578 210.976 354.578H208.473V357.488H207.484V348.148H210.976C213.347 348.177 214.787 349.385 214.787 351.378ZM213.798 351.378C213.798 349.923 212.823 349.035 210.888 349.035H208.415V353.705H210.888C212.823 353.705 213.798 352.847 213.798 351.378Z" fill="#263238"/>
<path d="M221.959 353.167V357.532H221.043V356.426C220.783 356.82 220.421 357.135 219.996 357.34C219.571 357.545 219.098 357.631 218.628 357.59C217.042 357.59 216.068 356.761 216.068 355.539C216.068 354.317 216.766 353.516 218.773 353.516H220.999V353.08C220.999 351.887 220.316 351.232 219.006 351.232C218.156 351.221 217.33 351.515 216.679 352.062L216.242 351.349C217.071 350.702 218.101 350.367 219.152 350.403C219.528 350.354 219.911 350.392 220.271 350.513C220.631 350.634 220.958 350.835 221.229 351.101C221.499 351.368 221.706 351.692 221.832 352.05C221.959 352.408 222.002 352.79 221.959 353.167ZM221.014 355.408V354.258H218.773C217.42 354.258 216.984 354.797 216.984 355.524C216.984 356.251 217.624 356.833 218.759 356.833C219.238 356.869 219.716 356.749 220.122 356.493C220.528 356.236 220.84 355.856 221.014 355.408Z" fill="#263238"/>
<path d="M223.56 356.717L223.982 355.975C224.715 356.487 225.589 356.762 226.484 356.761C227.808 356.761 228.361 356.31 228.361 355.611C228.361 353.778 223.807 355.219 223.807 352.455C223.807 351.305 224.796 350.447 226.586 350.447C227.459 350.439 228.318 350.665 229.073 351.102L228.652 351.858C228.04 351.454 227.319 351.246 226.586 351.262C225.32 351.262 224.753 351.756 224.753 352.425C224.753 354.317 229.306 352.891 229.306 355.582C229.306 356.804 228.244 357.59 226.397 357.59C225.381 357.616 224.385 357.31 223.56 356.717Z" fill="#263238"/>
<path d="M230.077 356.717L230.514 355.975C231.239 356.493 232.11 356.768 233.001 356.761C234.34 356.761 234.878 356.31 234.878 355.611C234.878 353.778 230.339 355.218 230.339 352.454C230.339 351.305 231.328 350.447 233.103 350.447C233.976 350.435 234.836 350.662 235.591 351.101L235.184 351.858C234.566 351.455 233.841 351.247 233.103 351.261C231.838 351.261 231.285 351.756 231.285 352.425C231.285 354.316 235.838 352.891 235.838 355.582C235.838 356.804 234.762 357.59 232.929 357.59C231.909 357.614 230.909 357.308 230.077 356.717Z" fill="#263238"/>
<path d="M247.738 350.505L245.091 357.518H244.203L242.05 351.771L239.839 357.518H238.951L236.231 350.505H237.133L239.344 356.47L241.599 350.505H242.414L244.654 356.47L246.88 350.505H247.738Z" fill="#263238"/>
<path d="M248.262 354.011C248.262 353.304 248.472 352.612 248.865 352.023C249.259 351.435 249.818 350.976 250.471 350.705C251.125 350.434 251.845 350.363 252.539 350.501C253.233 350.639 253.871 350.98 254.372 351.481C254.872 351.981 255.213 352.619 255.351 353.313C255.489 354.007 255.418 354.727 255.147 355.381C254.877 356.035 254.418 356.594 253.829 356.987C253.241 357.38 252.549 357.59 251.841 357.59C251.367 357.606 250.894 357.525 250.452 357.351C250.011 357.177 249.61 356.914 249.274 356.578C248.939 356.243 248.676 355.841 248.502 355.4C248.327 354.958 248.246 354.486 248.262 354.011ZM254.445 354.011C254.422 353.498 254.249 353.004 253.947 352.588C253.645 352.173 253.228 351.855 252.747 351.675C252.266 351.495 251.743 351.461 251.243 351.576C250.742 351.691 250.287 351.95 249.933 352.322C249.578 352.694 249.342 353.162 249.251 353.667C249.161 354.173 249.221 354.694 249.425 355.165C249.628 355.636 249.965 356.038 250.395 356.319C250.825 356.6 251.328 356.749 251.841 356.746C252.196 356.753 252.549 356.686 252.877 356.549C253.204 356.413 253.5 356.209 253.745 355.952C253.99 355.695 254.179 355.389 254.299 355.055C254.42 354.721 254.469 354.366 254.445 354.011Z" fill="#263238"/>
<path d="M260.875 350.447V351.363H260.643C260.31 351.347 259.977 351.405 259.669 351.532C259.361 351.659 259.085 351.852 258.86 352.098C258.635 352.344 258.467 352.636 258.368 352.954C258.269 353.272 258.241 353.608 258.286 353.938V357.517H257.34V350.505H258.242V351.872C258.487 351.398 258.87 351.008 259.339 350.754C259.809 350.5 260.344 350.393 260.875 350.447Z" fill="#263238"/>
<path d="M268.92 347.697V357.59H268.018V356.208C267.736 356.668 267.337 357.045 266.862 357.3C266.386 357.556 265.852 357.681 265.313 357.663C264.405 357.605 263.553 357.203 262.931 356.54C262.308 355.876 261.962 355.001 261.962 354.091C261.962 353.181 262.308 352.306 262.931 351.642C263.553 350.979 264.405 350.578 265.313 350.52C265.845 350.508 266.371 350.636 266.838 350.891C267.305 351.146 267.697 351.52 267.975 351.974V347.697H268.92ZM267.989 354.084C267.967 353.571 267.793 353.076 267.491 352.661C267.19 352.245 266.772 351.928 266.291 351.748C265.81 351.568 265.287 351.533 264.787 351.648C264.286 351.763 263.831 352.023 263.477 352.395C263.123 352.766 262.886 353.234 262.795 353.74C262.705 354.245 262.765 354.766 262.969 355.237C263.172 355.709 263.51 356.11 263.939 356.391C264.369 356.673 264.872 356.821 265.385 356.819C265.747 356.827 266.106 356.758 266.44 356.617C266.773 356.476 267.072 356.265 267.318 356C267.564 355.735 267.751 355.42 267.867 355.078C267.983 354.735 268.024 354.371 267.989 354.011V354.084Z" fill="#263238"/>
</g>
<path opacity="0.2" d="M387.414 402.979H197.068V435.567H387.414V402.979Z" fill="black"/>
<g opacity="0.5">
<path d="M243.36 388.01H240.246L239.577 389.465H238.966L241.512 383.893H242.094L244.64 389.465H244.029L243.36 388.01ZM243.141 387.53L241.803 384.533L240.465 387.53H243.141Z" fill="black"/>
<path d="M245.454 383.587H246.022V389.494H245.454V383.587Z" fill="black"/>
<path d="M249.717 385.275V385.827H249.572C249.368 385.81 249.164 385.839 248.974 385.911C248.783 385.984 248.611 386.099 248.472 386.247C248.332 386.395 248.227 386.573 248.166 386.768C248.104 386.962 248.088 387.168 248.117 387.369V389.508H247.549V385.318H248.102V386.133C248.248 385.839 248.482 385.598 248.772 385.445C249.061 385.291 249.392 385.231 249.717 385.275Z" fill="black"/>
<path d="M254.343 387.574H250.779C250.79 387.778 250.842 387.977 250.931 388.161C251.019 388.345 251.144 388.509 251.297 388.645C251.45 388.78 251.628 388.884 251.821 388.95C252.015 389.015 252.219 389.042 252.423 389.028C252.665 389.037 252.905 388.993 253.129 388.9C253.352 388.807 253.553 388.667 253.718 388.49L254.023 388.854C253.723 389.17 253.335 389.389 252.91 389.486C252.485 389.582 252.041 389.55 251.633 389.395C251.226 389.239 250.874 388.967 250.621 388.612C250.368 388.257 250.225 387.835 250.212 387.399C250.198 387.123 250.241 386.846 250.338 386.587C250.435 386.328 250.584 386.091 250.777 385.892C250.969 385.693 251.2 385.536 251.456 385.429C251.711 385.323 251.986 385.271 252.263 385.275C252.54 385.268 252.815 385.319 253.071 385.425C253.327 385.531 253.558 385.688 253.749 385.888C253.941 386.088 254.089 386.325 254.184 386.586C254.278 386.846 254.318 387.123 254.3 387.399C254.3 387.399 254.343 387.515 254.343 387.574ZM250.837 387.152H253.747C253.747 386.766 253.594 386.396 253.321 386.123C253.048 385.85 252.678 385.697 252.292 385.697C251.906 385.697 251.536 385.85 251.263 386.123C250.99 386.396 250.837 386.766 250.837 387.152Z" fill="black"/>
<path d="M258.548 386.977V389.567H258.053V388.912C257.899 389.151 257.681 389.343 257.424 389.466C257.167 389.59 256.882 389.639 256.598 389.61C255.653 389.61 255.143 389.116 255.143 388.388C255.143 387.661 255.551 387.195 256.758 387.195H258.053V386.948C258.053 386.235 257.646 385.842 256.86 385.842C256.331 385.823 255.813 385.999 255.405 386.337L255.158 385.915C255.64 385.53 256.243 385.329 256.86 385.348C257.085 385.309 257.316 385.324 257.535 385.391C257.753 385.458 257.952 385.576 258.117 385.735C258.281 385.894 258.406 386.089 258.48 386.304C258.555 386.52 258.578 386.751 258.548 386.977ZM257.995 388.315V387.617H256.671C255.856 387.617 255.594 387.937 255.594 388.374C255.594 388.81 255.987 389.159 256.656 389.159C256.958 389.182 257.258 389.105 257.511 388.939C257.764 388.773 257.954 388.528 258.053 388.243L257.995 388.315Z" fill="black"/>
<path d="M263.872 383.587V389.494H263.334V388.665C263.169 388.942 262.931 389.17 262.647 389.324C262.363 389.478 262.042 389.551 261.719 389.538C261.184 389.493 260.686 389.25 260.322 388.855C259.959 388.46 259.757 387.943 259.757 387.406C259.757 386.87 259.959 386.353 260.322 385.958C260.686 385.563 261.184 385.319 261.719 385.275C262.034 385.266 262.346 385.338 262.626 385.483C262.906 385.628 263.145 385.842 263.319 386.104V383.587H263.872ZM263.319 387.399C263.305 387.095 263.202 386.801 263.022 386.555C262.843 386.309 262.595 386.12 262.31 386.014C262.024 385.907 261.714 385.886 261.417 385.954C261.12 386.022 260.849 386.176 260.639 386.396C260.428 386.617 260.287 386.894 260.233 387.194C260.178 387.494 260.213 387.803 260.333 388.083C260.453 388.363 260.652 388.602 260.906 388.77C261.16 388.938 261.458 389.028 261.763 389.028C261.979 389.041 262.196 389.008 262.399 388.93C262.602 388.853 262.786 388.733 262.939 388.579C263.091 388.425 263.21 388.24 263.285 388.036C263.361 387.833 263.392 387.616 263.378 387.399H263.319Z" fill="black"/>
<path d="M269.037 385.304L266.942 390.003C266.593 390.818 266.142 391.08 265.487 391.08C265.112 391.09 264.747 390.954 264.469 390.701L264.731 390.28C264.935 390.484 265.212 390.599 265.502 390.6C265.88 390.6 266.127 390.425 266.375 389.887L266.549 389.494L264.672 385.304H265.327L266.913 388.868L268.484 385.304H269.037Z" fill="black"/>
<path d="M275.089 386.977V389.567H274.55V388.912C274.396 389.151 274.178 389.343 273.922 389.466C273.665 389.59 273.379 389.639 273.096 389.61C272.15 389.61 271.641 389.116 271.641 388.388C271.641 387.661 272.048 387.195 273.256 387.195H274.58V386.948C274.58 386.235 274.187 385.842 273.401 385.842C272.872 385.823 272.354 385.999 271.946 386.337L271.685 385.915C272.172 385.53 272.78 385.329 273.401 385.348C273.626 385.309 273.857 385.324 274.076 385.391C274.294 385.458 274.493 385.576 274.658 385.735C274.822 385.894 274.947 386.089 275.022 386.304C275.096 386.52 275.119 386.751 275.089 386.977ZM274.521 388.315V387.617H273.212C272.397 387.617 272.135 387.937 272.135 388.374C272.135 388.81 272.528 389.159 273.198 389.159C273.488 389.171 273.774 389.088 274.013 388.922C274.252 388.757 274.43 388.518 274.521 388.243V388.315Z" fill="black"/>
<path d="M285.694 387.064V389.494H285.141V387.123C285.141 386.235 284.69 385.784 283.934 385.784C283.739 385.769 283.543 385.796 283.36 385.864C283.176 385.931 283.01 386.038 282.871 386.176C282.733 386.315 282.626 386.481 282.559 386.665C282.491 386.848 282.464 387.044 282.479 387.239V389.436H281.926V387.123C281.926 386.235 281.475 385.784 280.704 385.784C280.509 385.769 280.313 385.796 280.13 385.864C279.947 385.931 279.78 386.038 279.642 386.176C279.503 386.315 279.397 386.481 279.329 386.665C279.261 386.848 279.234 387.044 279.25 387.239V389.436H278.682V385.246H279.22V386.017C279.381 385.756 279.609 385.544 279.881 385.403C280.152 385.262 280.457 385.198 280.763 385.217C281.068 385.193 281.372 385.266 281.633 385.425C281.895 385.585 282.099 385.822 282.217 386.104C282.387 385.819 282.631 385.586 282.923 385.43C283.215 385.273 283.545 385.2 283.876 385.217C284.127 385.172 284.386 385.189 284.629 385.266C284.872 385.344 285.093 385.479 285.272 385.661C285.451 385.843 285.583 386.066 285.657 386.311C285.73 386.555 285.743 386.814 285.694 387.064Z" fill="black"/>
<path d="M290.844 387.573H287.338C287.368 387.985 287.559 388.368 287.869 388.641C288.179 388.913 288.584 389.052 288.997 389.028C289.236 389.037 289.475 388.994 289.696 388.901C289.918 388.808 290.116 388.667 290.277 388.49L290.597 388.853C290.392 389.076 290.143 389.253 289.864 389.371C289.585 389.489 289.285 389.546 288.982 389.537C288.694 389.556 288.405 389.513 288.134 389.413C287.863 389.313 287.616 389.157 287.409 388.956C287.202 388.754 287.039 388.511 286.932 388.243C286.824 387.975 286.775 387.687 286.785 387.399C286.785 386.858 287 386.34 287.382 385.958C287.764 385.576 288.282 385.362 288.822 385.362C289.362 385.362 289.88 385.576 290.262 385.958C290.644 386.34 290.859 386.858 290.859 387.399C290.859 387.399 290.844 387.515 290.844 387.573ZM287.338 387.151H290.32C290.32 386.756 290.163 386.376 289.884 386.097C289.604 385.817 289.225 385.66 288.829 385.66C288.434 385.66 288.055 385.817 287.775 386.097C287.495 386.376 287.338 386.756 287.338 387.151Z" fill="black"/>
<path d="M298.933 387.064V389.494H298.366V387.123C298.366 386.235 297.929 385.784 297.173 385.784C296.977 385.766 296.78 385.792 296.595 385.858C296.411 385.925 296.243 386.032 296.104 386.171C295.965 386.31 295.859 386.477 295.792 386.662C295.725 386.846 295.7 387.044 295.718 387.239V389.436H295.15V387.123C295.15 386.235 294.714 385.784 293.943 385.784C293.747 385.766 293.55 385.792 293.366 385.858C293.181 385.925 293.013 386.032 292.875 386.171C292.736 386.31 292.629 386.477 292.562 386.662C292.496 386.846 292.47 387.044 292.488 387.239V389.436H291.921V385.246H292.459V386.017C292.618 385.755 292.846 385.542 293.118 385.401C293.39 385.26 293.695 385.196 294.001 385.217C294.306 385.193 294.611 385.266 294.872 385.425C295.133 385.585 295.338 385.822 295.456 386.104C295.625 385.819 295.869 385.586 296.162 385.43C296.454 385.273 296.783 385.2 297.114 385.217C297.366 385.172 297.624 385.189 297.868 385.266C298.111 385.344 298.332 385.479 298.511 385.661C298.69 385.843 298.822 386.066 298.895 386.311C298.969 386.555 298.982 386.814 298.933 387.064Z" fill="black"/>
<path d="M304.723 387.399C304.737 387.679 304.693 387.958 304.595 388.22C304.496 388.482 304.344 388.721 304.149 388.921C303.954 389.122 303.719 389.28 303.46 389.386C303.201 389.492 302.923 389.544 302.643 389.538C302.32 389.551 301.999 389.478 301.715 389.324C301.43 389.17 301.193 388.942 301.028 388.665V389.494H300.475V383.587H301.042V386.104C301.216 385.841 301.454 385.626 301.735 385.481C302.015 385.336 302.327 385.265 302.643 385.275C302.922 385.267 303.2 385.316 303.459 385.42C303.718 385.525 303.953 385.682 304.148 385.881C304.344 386.081 304.496 386.319 304.594 386.58C304.693 386.841 304.737 387.12 304.723 387.399ZM304.156 387.399C304.141 387.095 304.038 386.801 303.859 386.555C303.679 386.309 303.431 386.12 303.146 386.014C302.861 385.907 302.55 385.886 302.253 385.954C301.956 386.022 301.686 386.176 301.475 386.396C301.265 386.617 301.123 386.894 301.069 387.194C301.015 387.494 301.049 387.803 301.169 388.083C301.289 388.363 301.488 388.602 301.742 388.77C301.996 388.938 302.294 389.028 302.599 389.028C302.811 389.033 303.021 388.993 303.217 388.912C303.413 388.831 303.59 388.71 303.736 388.556C303.882 388.403 303.995 388.221 304.068 388.022C304.14 387.823 304.17 387.61 304.156 387.399Z" fill="black"/>
<path d="M309.538 387.574H306.061C306.073 387.778 306.124 387.977 306.213 388.161C306.302 388.345 306.426 388.509 306.579 388.645C306.732 388.78 306.911 388.884 307.104 388.95C307.297 389.015 307.502 389.042 307.705 389.028C307.947 389.028 308.186 388.975 308.405 388.872C308.624 388.769 308.817 388.618 308.971 388.432L309.291 388.796C308.99 389.111 308.603 389.331 308.178 389.428C307.753 389.524 307.308 389.492 306.901 389.337C306.494 389.181 306.142 388.909 305.889 388.554C305.636 388.199 305.493 387.777 305.48 387.341C305.466 387.064 305.508 386.788 305.606 386.529C305.703 386.27 305.852 386.033 306.045 385.834C306.237 385.635 306.468 385.477 306.724 385.371C306.979 385.265 307.254 385.213 307.531 385.217C307.807 385.21 308.081 385.261 308.337 385.367C308.592 385.472 308.822 385.63 309.013 385.831C309.203 386.031 309.35 386.268 309.443 386.529C309.536 386.789 309.573 387.065 309.553 387.341L309.538 387.574ZM306.032 387.152H308.942C308.942 386.766 308.789 386.396 308.516 386.123C308.243 385.85 307.873 385.697 307.487 385.697C307.101 385.697 306.731 385.85 306.458 386.123C306.186 386.396 306.032 386.766 306.032 387.152Z" fill="black"/>
<path d="M312.812 385.275V385.828H312.681C312.478 385.81 312.273 385.839 312.083 385.911C311.892 385.984 311.721 386.099 311.581 386.247C311.441 386.395 311.336 386.573 311.275 386.768C311.213 386.962 311.197 387.168 311.226 387.37V389.508H310.659V385.318H311.197V386.133C311.344 385.841 311.579 385.601 311.868 385.448C312.157 385.294 312.487 385.234 312.812 385.275Z" fill="black"/>
<path d="M316.478 385.347C316.478 384.765 316.012 384.373 315.198 384.373C314.911 384.356 314.625 384.406 314.36 384.517C314.095 384.628 313.859 384.797 313.67 385.013L313.248 384.693C313.496 384.413 313.804 384.193 314.149 384.049C314.495 383.906 314.868 383.842 315.241 383.863C316.361 383.863 317.074 384.402 317.074 385.318C317.074 386.671 315.619 386.773 315.619 387.879H315.023C315.023 386.511 316.478 386.38 316.478 385.347ZM314.907 389.115C314.925 389.019 314.976 388.931 315.052 388.869C315.128 388.806 315.223 388.771 315.321 388.771C315.42 388.771 315.515 388.806 315.591 388.869C315.666 388.931 315.718 389.019 315.736 389.115C315.747 389.176 315.745 389.239 315.73 389.299C315.714 389.359 315.686 389.415 315.646 389.463C315.606 389.51 315.557 389.549 315.501 389.575C315.444 389.602 315.383 389.615 315.321 389.615C315.259 389.615 315.198 389.602 315.142 389.575C315.086 389.549 315.036 389.51 314.996 389.463C314.957 389.415 314.928 389.359 314.913 389.299C314.897 389.239 314.895 389.176 314.907 389.115Z" fill="black"/>
<path d="M320.42 383.922H321.715V388.432H324.508V389.479H320.42V383.922Z" fill="black"/>
<path d="M324.799 387.355C324.77 386.884 324.883 386.415 325.124 386.009C325.364 385.602 325.721 385.278 326.149 385.077C326.576 384.876 327.054 384.808 327.52 384.882C327.986 384.956 328.42 385.168 328.764 385.491C329.108 385.814 329.348 386.233 329.451 386.694C329.554 387.155 329.517 387.636 329.344 388.075C329.17 388.514 328.869 388.891 328.479 389.157C328.089 389.423 327.628 389.566 327.156 389.567C326.854 389.587 326.55 389.544 326.265 389.442C325.98 389.34 325.718 389.18 325.497 388.973C325.276 388.765 325.1 388.515 324.98 388.237C324.86 387.958 324.799 387.658 324.799 387.355ZM328.247 387.355C328.23 387.144 328.152 386.942 328.022 386.775C327.893 386.607 327.717 386.481 327.517 386.412C327.316 386.342 327.1 386.333 326.895 386.384C326.689 386.436 326.503 386.546 326.359 386.701C326.215 386.857 326.119 387.051 326.084 387.26C326.048 387.469 326.074 387.683 326.159 387.878C326.243 388.072 326.383 388.238 326.56 388.354C326.737 388.471 326.944 388.533 327.156 388.534C327.308 388.536 327.458 388.507 327.597 388.448C327.737 388.388 327.862 388.3 327.965 388.189C328.068 388.077 328.147 387.946 328.195 387.802C328.244 387.658 328.261 387.506 328.247 387.355Z" fill="black"/>
<path d="M334.765 385.202V388.781C334.804 389.103 334.769 389.429 334.661 389.735C334.554 390.04 334.377 390.317 334.144 390.543C333.911 390.768 333.63 390.937 333.321 391.035C333.012 391.133 332.684 391.158 332.364 391.109C331.616 391.137 330.877 390.929 330.255 390.512L330.749 389.625C331.174 389.929 331.682 390.096 332.204 390.105C333.077 390.105 333.47 389.712 333.47 388.941V388.752C333.296 388.933 333.085 389.075 332.852 389.168C332.618 389.26 332.368 389.302 332.117 389.29C331.83 389.314 331.541 389.278 331.269 389.185C330.997 389.092 330.747 388.943 330.535 388.748C330.323 388.554 330.154 388.317 330.038 388.053C329.922 387.79 329.863 387.505 329.863 387.217C329.863 386.929 329.922 386.645 330.038 386.381C330.154 386.117 330.323 385.881 330.535 385.686C330.747 385.491 330.997 385.342 331.269 385.249C331.541 385.156 331.83 385.12 332.117 385.144C332.391 385.122 332.666 385.166 332.919 385.272C333.172 385.379 333.396 385.544 333.572 385.755V385.202H334.765ZM333.543 387.224C333.547 387.079 333.521 386.934 333.465 386.799C333.41 386.664 333.327 386.542 333.221 386.442C333.115 386.342 332.989 386.265 332.852 386.217C332.714 386.168 332.568 386.15 332.422 386.162C332.273 386.145 332.123 386.159 331.98 386.204C331.837 386.249 331.705 386.324 331.593 386.423C331.481 386.523 331.391 386.645 331.329 386.782C331.268 386.919 331.236 387.067 331.236 387.217C331.236 387.367 331.268 387.515 331.329 387.652C331.391 387.789 331.481 387.911 331.593 388.011C331.705 388.11 331.837 388.185 331.98 388.23C332.123 388.275 332.273 388.289 332.422 388.272C332.566 388.284 332.711 388.266 332.848 388.219C332.985 388.171 333.11 388.096 333.215 387.997C333.321 387.898 333.405 387.779 333.461 387.645C333.517 387.512 333.545 387.369 333.543 387.224Z" fill="black"/>
<path d="M338.067 383.922C338.069 383.824 338.09 383.728 338.131 383.639C338.171 383.551 338.229 383.471 338.301 383.406C338.373 383.34 338.458 383.29 338.551 383.259C338.643 383.228 338.741 383.216 338.838 383.224C338.933 383.214 339.03 383.223 339.121 383.252C339.212 383.281 339.297 383.328 339.369 383.391C339.441 383.453 339.5 383.53 339.541 383.617C339.582 383.703 339.606 383.797 339.609 383.893C339.609 384.097 339.528 384.293 339.383 384.438C339.239 384.583 339.043 384.664 338.838 384.664C338.634 384.664 338.437 384.583 338.293 384.438C338.148 384.293 338.067 384.097 338.067 383.893V383.922ZM338.212 385.202H339.449V389.566H338.212V385.202Z" fill="black"/>
<path d="M344.963 386.977V389.435H343.726V387.181C343.726 386.482 343.406 386.162 342.853 386.162C342.3 386.162 341.82 386.526 341.82 387.311V389.435H340.584V385.071H341.777V385.58C341.964 385.387 342.191 385.236 342.442 385.138C342.693 385.04 342.962 384.997 343.232 385.013C343.483 385 343.734 385.044 343.966 385.142C344.197 385.24 344.404 385.389 344.571 385.577C344.737 385.766 344.859 385.99 344.927 386.232C344.994 386.475 345.007 386.729 344.963 386.977Z" fill="black"/>
</g>
<path d="M387.414 400.986H197.068V433.574H387.414V400.986Z" fill="#0039CA"/>
<path d="M267.655 422.343L265.327 418.982H264.629H261.865V422.372H260.264V411.214H264.629C267.538 411.214 269.269 412.669 269.269 415.113C269.306 415.887 269.087 416.651 268.645 417.288C268.203 417.924 267.563 418.397 266.825 418.633L269.473 422.372L267.655 422.343ZM267.655 415.069C267.655 413.469 266.593 412.567 264.541 412.567H261.835V417.586H264.541C266.549 417.6 267.611 416.669 267.611 415.084L267.655 415.069Z" fill="white"/>
<path d="M279.177 418.633H272.325C272.432 419.353 272.806 420.006 273.371 420.464C273.937 420.921 274.653 421.151 275.38 421.106C275.836 421.123 276.291 421.04 276.713 420.864C277.135 420.689 277.514 420.424 277.824 420.088L278.667 421.077C278.045 421.709 277.253 422.148 276.387 422.341C275.521 422.535 274.618 422.474 273.786 422.167C272.954 421.86 272.228 421.319 271.695 420.61C271.162 419.901 270.845 419.053 270.782 418.168C270.752 417.596 270.84 417.025 271.042 416.49C271.243 415.954 271.553 415.466 271.952 415.056C272.351 414.646 272.83 414.323 273.36 414.108C273.89 413.892 274.459 413.788 275.03 413.803C275.599 413.788 276.165 413.891 276.691 414.108C277.218 414.324 277.693 414.648 278.086 415.059C278.48 415.47 278.782 415.96 278.975 416.495C279.168 417.03 279.247 417.6 279.206 418.168C279.206 418.299 279.191 418.488 279.177 418.633ZM272.325 417.528H277.736C277.667 416.858 277.352 416.239 276.852 415.788C276.352 415.337 275.703 415.088 275.03 415.088C274.358 415.088 273.709 415.337 273.209 415.788C272.709 416.239 272.394 416.858 272.325 417.528Z" fill="white"/>
<path d="M289.418 413.905V421.179C289.418 424.161 287.891 425.544 285.054 425.544C283.606 425.606 282.182 425.164 281.024 424.292L281.752 423.114C282.683 423.837 283.832 424.222 285.01 424.205C287.003 424.205 287.92 423.289 287.92 421.368V420.699C287.544 421.131 287.075 421.473 286.549 421.7C286.022 421.926 285.452 422.032 284.879 422.008C283.795 422.008 282.755 421.578 281.989 420.811C281.222 420.044 280.792 419.005 280.792 417.92C280.792 416.836 281.222 415.796 281.989 415.03C282.755 414.263 283.795 413.832 284.879 413.832C285.478 413.814 286.073 413.936 286.616 414.189C287.159 414.441 287.635 414.818 288.007 415.287V413.978L289.418 413.905ZM287.964 417.906C287.996 417.325 287.853 416.747 287.553 416.248C287.253 415.749 286.811 415.351 286.283 415.106C285.755 414.861 285.165 414.78 284.591 414.874C284.016 414.968 283.483 415.231 283.06 415.631C282.637 416.031 282.344 416.548 282.218 417.117C282.092 417.685 282.139 418.278 282.354 418.819C282.569 419.36 282.941 419.824 283.422 420.152C283.904 420.479 284.472 420.654 285.054 420.655C285.426 420.677 285.799 420.622 286.149 420.494C286.499 420.365 286.819 420.165 287.088 419.907C287.357 419.649 287.57 419.338 287.713 418.993C287.856 418.649 287.927 418.279 287.92 417.906H287.964Z" fill="white"/>
<path d="M292.066 411.286C292.068 411.153 292.096 411.021 292.149 410.898C292.202 410.775 292.279 410.664 292.375 410.571C292.471 410.477 292.584 410.404 292.708 410.355C292.833 410.305 292.965 410.281 293.099 410.283C293.24 410.266 293.383 410.279 293.519 410.321C293.654 410.363 293.779 410.434 293.886 410.528C293.992 410.622 294.077 410.738 294.135 410.867C294.193 410.997 294.224 411.137 294.224 411.279C294.224 411.421 294.193 411.562 294.135 411.691C294.077 411.821 293.992 411.936 293.886 412.03C293.779 412.125 293.654 412.195 293.519 412.238C293.383 412.28 293.24 412.293 293.099 412.276C292.966 412.28 292.834 412.257 292.709 412.209C292.585 412.161 292.472 412.089 292.376 411.997C292.279 411.905 292.203 411.795 292.15 411.673C292.096 411.551 292.068 411.42 292.066 411.286ZM292.343 413.905H293.87V422.343H292.343V413.905Z" fill="white"/>
<path d="M295.718 421.455L296.358 420.248C297.225 420.811 298.234 421.114 299.268 421.121C300.722 421.121 301.275 420.684 301.275 419.971C301.275 418.08 295.936 419.724 295.936 416.349C295.936 414.894 297.289 413.818 299.457 413.818C300.53 413.801 301.589 414.067 302.526 414.589L301.872 415.796C301.145 415.339 300.3 415.106 299.442 415.127C298.104 415.127 297.449 415.622 297.449 416.291C297.449 418.284 302.803 416.655 302.803 419.942C302.803 421.397 301.348 422.445 299.151 422.445C297.934 422.463 296.739 422.118 295.718 421.455Z" fill="white"/>
<path d="M309.524 421.892C308.994 422.296 308.342 422.507 307.676 422.488C307.317 422.529 306.954 422.489 306.612 422.371C306.271 422.253 305.96 422.06 305.703 421.806C305.446 421.552 305.25 421.243 305.128 420.903C305.006 420.563 304.962 420.2 304.999 419.841V415.2H303.545V413.949H304.999V412.101H306.454V413.949H308.971V415.2H306.541V419.782C306.507 419.97 306.517 420.162 306.569 420.345C306.621 420.528 306.715 420.697 306.843 420.838C306.971 420.978 307.13 421.088 307.308 421.157C307.485 421.226 307.676 421.254 307.865 421.237C308.295 421.241 308.715 421.103 309.058 420.844L309.524 421.892Z" fill="white"/>
<path d="M318.689 418.633H311.881C311.989 419.355 312.364 420.011 312.933 420.469C313.501 420.927 314.222 421.154 314.95 421.106C315.405 421.123 315.858 421.041 316.277 420.865C316.697 420.689 317.073 420.424 317.38 420.088L318.224 421.077C317.603 421.711 316.812 422.151 315.946 422.345C315.081 422.54 314.178 422.479 313.346 422.172C312.514 421.864 311.789 421.322 311.258 420.612C310.727 419.901 310.412 419.053 310.353 418.168C310.323 417.596 310.411 417.025 310.612 416.489C310.813 415.954 311.123 415.466 311.522 415.056C311.921 414.646 312.401 414.323 312.931 414.108C313.46 413.892 314.029 413.788 314.601 413.803C315.169 413.79 315.734 413.895 316.259 414.112C316.785 414.329 317.259 414.653 317.652 415.064C318.045 415.475 318.348 415.963 318.541 416.497C318.735 417.032 318.815 417.6 318.776 418.168C318.761 418.325 318.732 418.481 318.689 418.633ZM311.881 417.527H317.307C317.223 416.867 316.901 416.26 316.402 415.82C315.902 415.38 315.259 415.137 314.594 415.137C313.928 415.137 313.285 415.38 312.786 415.82C312.286 416.26 311.965 416.867 311.881 417.527Z" fill="white"/>
<path d="M325.396 413.818V415.273H325.047C324.668 415.246 324.289 415.305 323.937 415.446C323.584 415.586 323.268 415.805 323.012 416.084C322.756 416.364 322.567 416.698 322.458 417.061C322.349 417.425 322.324 417.808 322.384 418.182V422.387H320.857V413.949H322.312V415.404C322.619 414.871 323.073 414.438 323.62 414.157C324.167 413.876 324.784 413.758 325.396 413.818Z" fill="white"/>
<g opacity="0.6">
<path d="M258.911 178.374L259.566 177.006C260.695 177.952 262.123 178.468 263.596 178.461C265.705 178.461 266.607 177.646 266.607 176.584C266.607 173.675 259.217 175.479 259.217 170.954C259.217 169.063 260.672 167.463 263.887 167.463C265.272 167.44 266.635 167.814 267.815 168.539L267.233 169.994C266.234 169.354 265.073 169.011 263.887 169.005C261.806 169.005 260.977 169.878 260.977 170.94C260.977 173.849 268.382 172.045 268.382 176.541C268.382 178.403 266.927 180.003 263.654 180.003C261.93 180.039 260.249 179.462 258.911 178.374Z" fill="#263238"/>
<path d="M270.332 167.651C270.333 167.505 270.364 167.36 270.423 167.226C270.481 167.091 270.565 166.97 270.671 166.868C270.776 166.767 270.901 166.687 271.038 166.635C271.174 166.582 271.32 166.556 271.466 166.56C271.611 166.554 271.755 166.577 271.891 166.628C272.026 166.678 272.15 166.755 272.256 166.854C272.361 166.953 272.446 167.071 272.506 167.203C272.565 167.335 272.597 167.478 272.601 167.622C272.601 167.923 272.481 168.212 272.269 168.425C272.056 168.637 271.767 168.757 271.466 168.757C271.165 168.757 270.877 168.637 270.664 168.425C270.451 168.212 270.332 167.923 270.332 167.622V167.651ZM270.622 170.561H272.31V179.813H270.622V170.561Z" fill="#263238"/>
<path d="M284.341 170.517V178.504C284.341 181.778 282.683 183.261 279.555 183.261C277.985 183.311 276.446 182.824 275.191 181.879L275.991 180.585C277.004 181.386 278.263 181.813 279.555 181.792C281.737 181.792 282.726 180.774 282.726 178.679V177.951C282.315 178.427 281.802 178.804 281.225 179.056C280.649 179.308 280.024 179.427 279.395 179.406C278.786 179.441 278.176 179.351 277.604 179.142C277.031 178.933 276.506 178.609 276.063 178.19C275.62 177.771 275.266 177.266 275.025 176.706C274.784 176.146 274.659 175.543 274.659 174.933C274.659 174.323 274.784 173.719 275.025 173.159C275.266 172.599 275.62 172.094 276.063 171.675C276.506 171.257 277.031 170.933 277.604 170.723C278.176 170.514 278.786 170.424 279.395 170.459C280.038 170.426 280.68 170.539 281.273 170.791C281.865 171.044 282.392 171.427 282.814 171.914V170.459L284.341 170.517ZM282.712 174.882C282.744 174.246 282.585 173.615 282.255 173.07C281.924 172.526 281.439 172.093 280.86 171.827C280.282 171.561 279.636 171.474 279.008 171.579C278.38 171.683 277.798 171.973 277.336 172.412C276.874 172.85 276.554 173.417 276.418 174.039C276.281 174.661 276.335 175.31 276.57 175.901C276.806 176.493 277.214 177 277.74 177.358C278.267 177.715 278.889 177.907 279.526 177.908C279.942 177.944 280.361 177.893 280.757 177.758C281.152 177.623 281.515 177.407 281.822 177.123C282.129 176.84 282.373 176.495 282.539 176.112C282.705 175.728 282.788 175.314 282.785 174.896L282.712 174.882Z" fill="#263238"/>
<path d="M296.329 174.445V179.77H294.641V174.576C294.641 172.757 293.739 171.87 292.154 171.87C291.751 171.844 291.347 171.906 290.971 172.054C290.595 172.201 290.256 172.429 289.979 172.722C289.701 173.015 289.491 173.366 289.364 173.749C289.237 174.132 289.196 174.539 289.244 174.94V179.711H287.571V170.459H289.186V171.914C289.583 171.421 290.093 171.031 290.673 170.778C291.253 170.524 291.886 170.415 292.517 170.459C293.042 170.424 293.568 170.504 294.059 170.695C294.549 170.885 294.991 171.181 295.355 171.561C295.719 171.941 295.994 172.396 296.162 172.895C296.331 173.393 296.387 173.922 296.329 174.445Z" fill="#263238"/>
<path d="M312.754 170.517V179.77H311.168V178.315C310.798 178.791 310.32 179.171 309.774 179.425C309.227 179.678 308.627 179.796 308.025 179.77C307.484 179.825 306.938 179.759 306.426 179.576C305.914 179.392 305.45 179.096 305.067 178.709C304.685 178.323 304.394 177.855 304.216 177.341C304.038 176.827 303.978 176.28 304.039 175.74V170.415H305.712V175.551C305.712 177.355 306.629 178.271 308.215 178.271C308.618 178.3 309.023 178.239 309.4 178.093C309.777 177.947 310.117 177.718 310.396 177.425C310.674 177.131 310.884 176.779 311.01 176.395C311.136 176.011 311.175 175.603 311.124 175.202V170.415L312.754 170.517Z" fill="#263238"/>
<path d="M325.527 175.144C325.56 175.768 325.462 176.393 325.239 176.978C325.017 177.562 324.675 178.094 324.236 178.539C323.796 178.984 323.269 179.332 322.687 179.562C322.105 179.791 321.482 179.897 320.857 179.872C320.243 179.896 319.631 179.777 319.071 179.524C318.51 179.272 318.016 178.893 317.627 178.417V183.189H315.954V170.561H317.554V172.016C317.938 171.509 318.439 171.103 319.014 170.832C319.59 170.561 320.222 170.433 320.857 170.459C321.478 170.432 322.099 170.535 322.679 170.761C323.258 170.987 323.785 171.332 324.224 171.772C324.663 172.213 325.006 172.74 325.23 173.321C325.455 173.901 325.555 174.522 325.527 175.144ZM323.839 175.144C323.811 174.536 323.604 173.949 323.246 173.457C322.888 172.965 322.393 172.588 321.823 172.375C321.253 172.161 320.633 172.118 320.039 172.253C319.446 172.388 318.905 172.694 318.483 173.133C318.062 173.573 317.778 174.126 317.668 174.724C317.557 175.323 317.625 175.941 317.862 176.502C318.099 177.063 318.495 177.541 319.002 177.879C319.508 178.217 320.102 178.399 320.711 178.402C321.136 178.411 321.557 178.332 321.949 178.17C322.342 178.007 322.696 177.765 322.99 177.459C323.284 177.153 323.511 176.789 323.657 176.39C323.803 175.992 323.865 175.567 323.839 175.144Z" fill="#263238"/>
</g>
<path d="M387.414 248.101H197.068V280.689H387.414V248.101Z" fill="white"/>
<g opacity="0.4">
<path d="M207.484 259.085H208.473V267.566H213.696V268.425H207.484V259.085Z" fill="#263238"/>
<path d="M220.461 264.075V268.439H219.559V267.348C219.294 267.737 218.932 268.05 218.508 268.254C218.084 268.459 217.613 268.547 217.144 268.512C215.558 268.512 214.584 267.683 214.584 266.461C214.584 265.239 215.267 264.482 217.29 264.482H219.515V264.06C219.515 262.853 218.832 262.198 217.522 262.198C216.672 262.187 215.846 262.481 215.195 263.027L214.758 262.315C215.589 261.671 216.618 261.337 217.668 261.369C218.038 261.324 218.413 261.363 218.766 261.481C219.12 261.6 219.442 261.797 219.71 262.056C219.977 262.315 220.184 262.631 220.314 262.98C220.444 263.33 220.494 263.704 220.461 264.075ZM219.515 266.315V265.166H217.319C215.951 265.166 215.515 265.704 215.515 266.432C215.515 267.159 216.169 267.741 217.29 267.741C217.764 267.77 218.235 267.648 218.635 267.391C219.035 267.135 219.343 266.758 219.515 266.315Z" fill="#263238"/>
<path d="M222.061 267.683L222.483 266.941C223.217 267.453 224.091 267.727 224.985 267.727C226.324 267.727 226.862 267.276 226.862 266.577C226.862 264.744 222.323 266.185 222.323 263.42C222.323 262.271 223.298 261.413 225.087 261.413C225.96 261.401 226.82 261.628 227.575 262.067L227.153 262.824C226.541 262.42 225.82 262.212 225.087 262.227C223.822 262.227 223.269 262.722 223.269 263.391C223.269 265.283 227.808 263.857 227.808 266.548C227.808 267.77 226.746 268.556 224.898 268.556C223.883 268.578 222.888 268.272 222.061 267.683Z" fill="#263238"/>
<path d="M233.321 268.003C232.908 268.331 232.394 268.506 231.867 268.498C231.59 268.527 231.31 268.495 231.048 268.402C230.785 268.31 230.547 268.16 230.35 267.963C230.153 267.766 230.003 267.528 229.911 267.265C229.818 267.003 229.786 266.723 229.815 266.446V262.213H228.55V261.413H229.815V259.871H230.761V261.413H232.885V262.213H230.761V266.403C230.736 266.57 230.75 266.741 230.8 266.903C230.851 267.064 230.938 267.212 231.054 267.336C231.17 267.459 231.313 267.554 231.471 267.614C231.63 267.674 231.8 267.698 231.969 267.683C232.35 267.694 232.723 267.565 233.016 267.319L233.321 268.003Z" fill="#263238"/>
<path d="M246.415 259.085V268.425H245.6L239.606 260.845V268.425H238.617V259.085H239.432L245.44 266.664V259.085H246.415Z" fill="#263238"/>
<path d="M254.62 264.075V268.44H253.689V267.348C253.426 267.74 253.064 268.054 252.639 268.259C252.215 268.463 251.743 268.551 251.274 268.512C249.688 268.512 248.713 267.683 248.713 266.461C248.713 265.239 249.412 264.482 251.434 264.482H253.689V264.061C253.689 262.853 253.005 262.198 251.696 262.198C250.845 262.187 250.019 262.481 249.368 263.028L248.931 262.315C249.76 261.668 250.79 261.333 251.841 261.369C252.21 261.327 252.584 261.367 252.935 261.487C253.287 261.607 253.607 261.803 253.873 262.062C254.139 262.321 254.344 262.636 254.473 262.985C254.602 263.333 254.652 263.705 254.62 264.075ZM253.674 266.316V265.166H251.463C250.11 265.166 249.673 265.704 249.673 266.432C249.673 267.159 250.328 267.741 251.448 267.741C251.925 267.773 252.399 267.653 252.802 267.396C253.205 267.14 253.516 266.761 253.689 266.316H253.674Z" fill="#263238"/>
<path d="M268.775 264.352V268.425H267.829V264.454C267.829 262.999 267.073 262.213 265.807 262.213C265.479 262.198 265.151 262.255 264.847 262.379C264.544 262.504 264.27 262.693 264.047 262.934C263.824 263.175 263.657 263.462 263.556 263.775C263.455 264.088 263.424 264.419 263.465 264.745V268.425H262.519V264.454C262.519 262.999 261.763 262.213 260.483 262.213C260.154 262.198 259.827 262.255 259.523 262.379C259.219 262.504 258.946 262.693 258.723 262.934C258.5 263.175 258.332 263.462 258.231 263.775C258.131 264.088 258.1 264.419 258.14 264.745V268.425H257.195V261.413H258.053V262.693C258.328 262.264 258.71 261.915 259.162 261.68C259.614 261.445 260.119 261.333 260.628 261.355C261.144 261.312 261.66 261.429 262.108 261.689C262.555 261.949 262.912 262.34 263.13 262.81C263.417 262.341 263.826 261.958 264.312 261.702C264.799 261.446 265.345 261.326 265.894 261.355C266.292 261.316 266.694 261.368 267.07 261.506C267.445 261.645 267.784 261.867 268.061 262.155C268.338 262.444 268.546 262.791 268.67 263.172C268.794 263.552 268.83 263.955 268.775 264.352Z" fill="#263238"/>
<path d="M277.489 265.21H271.67C271.69 265.552 271.778 265.887 271.928 266.195C272.078 266.503 272.288 266.779 272.545 267.006C272.801 267.233 273.1 267.407 273.425 267.518C273.749 267.63 274.092 267.676 274.434 267.654C274.838 267.667 275.24 267.592 275.612 267.433C275.984 267.275 276.317 267.038 276.587 266.737L277.111 267.348C276.607 267.875 275.959 268.241 275.248 268.402C274.536 268.562 273.794 268.509 273.113 268.25C272.431 267.991 271.841 267.537 271.417 266.944C270.992 266.352 270.751 265.647 270.724 264.919C270.7 264.456 270.772 263.992 270.934 263.558C271.097 263.123 271.346 262.726 271.668 262.392C271.99 262.058 272.377 261.794 272.805 261.615C273.234 261.437 273.694 261.348 274.158 261.355C274.621 261.346 275.081 261.433 275.509 261.611C275.937 261.789 276.323 262.054 276.643 262.389C276.963 262.724 277.21 263.122 277.368 263.557C277.526 263.993 277.592 264.457 277.562 264.919C277.504 265.006 277.489 265.108 277.489 265.21ZM271.67 264.512H276.645C276.645 263.852 276.383 263.219 275.917 262.753C275.45 262.286 274.817 262.024 274.158 262.024C273.498 262.024 272.865 262.286 272.399 262.753C271.932 263.219 271.67 263.852 271.67 264.512Z" fill="#263238"/>
</g>
<path d="M387.414 203.584H197.068V236.172H387.414V203.584Z" fill="white"/>
<g opacity="0.4">
<path d="M208.473 215.427V219.093H213.303V219.952H208.473V223.909H207.484V214.569H213.885V215.427H208.473Z" fill="#263238"/>
<path d="M215.384 214.671C215.381 214.531 215.42 214.394 215.495 214.277C215.571 214.16 215.68 214.069 215.808 214.014C215.936 213.959 216.078 213.944 216.215 213.971C216.351 213.997 216.477 214.064 216.576 214.163C216.674 214.261 216.741 214.387 216.768 214.524C216.794 214.66 216.779 214.802 216.724 214.93C216.67 215.058 216.578 215.167 216.461 215.243C216.344 215.318 216.207 215.357 216.068 215.354C215.886 215.354 215.712 215.282 215.584 215.154C215.456 215.026 215.384 214.852 215.384 214.671ZM215.587 216.897H216.533V223.909H215.587V216.897Z" fill="#263238"/>
<path d="M222.716 216.838V217.755H222.483C222.149 217.738 221.815 217.796 221.506 217.924C221.197 218.052 220.92 218.246 220.694 218.494C220.469 218.741 220.301 219.036 220.203 219.355C220.105 219.675 220.079 220.013 220.126 220.344V223.923H219.181V216.911H220.083V218.22C220.334 217.754 220.719 217.373 221.188 217.127C221.657 216.881 222.189 216.78 222.716 216.838Z" fill="#263238"/>
<path d="M223.502 223.108L223.923 222.352C224.651 222.879 225.528 223.159 226.426 223.152C227.764 223.152 228.302 222.687 228.302 222.003C228.302 220.17 223.763 221.61 223.763 218.831C223.763 217.697 224.738 216.838 226.527 216.838C227.402 216.819 228.264 217.046 229.015 217.493L228.593 218.249C227.981 217.845 227.261 217.637 226.527 217.653C225.262 217.653 224.709 218.148 224.709 218.817C224.709 220.708 229.248 219.282 229.248 221.974C229.248 223.181 228.186 223.967 226.338 223.967C225.325 223.993 224.33 223.692 223.502 223.108Z" fill="#263238"/>
<path d="M234.776 223.487C234.358 223.805 233.846 223.974 233.321 223.967C233.046 223.999 232.766 223.969 232.503 223.878C232.241 223.788 232.002 223.639 231.805 223.443C231.608 223.247 231.457 223.01 231.365 222.748C231.272 222.486 231.24 222.207 231.27 221.93V217.697H230.004V216.897H231.27V215.311H232.216V216.853H234.34V217.653H232.216V221.829C232.191 221.997 232.205 222.168 232.256 222.33C232.306 222.493 232.393 222.641 232.509 222.766C232.625 222.89 232.767 222.987 232.925 223.048C233.084 223.11 233.254 223.136 233.423 223.123C233.804 223.128 234.175 223 234.471 222.76L234.776 223.487Z" fill="#263238"/>
<path d="M247.869 214.569V223.909H247.055L241.061 216.329V223.909H240.072V214.569H240.886L246.895 222.148V214.569H247.869Z" fill="#263238"/>
<path d="M256.06 219.559V223.923H255.143V222.832C254.883 223.22 254.522 223.532 254.1 223.734C253.678 223.936 253.209 224.022 252.743 223.981C251.143 223.981 250.168 223.166 250.168 221.944C250.168 220.722 250.866 219.966 252.888 219.966H255.143V219.529C255.143 218.337 254.46 217.682 253.15 217.682C252.3 217.671 251.474 217.965 250.823 218.511L250.386 217.798C251.216 217.153 252.245 216.818 253.296 216.853C253.664 216.81 254.037 216.85 254.388 216.97C254.739 217.09 255.059 217.287 255.324 217.546C255.589 217.805 255.792 218.121 255.92 218.469C256.047 218.817 256.095 219.189 256.06 219.559ZM255.114 221.799V220.65H252.903C251.55 220.65 251.114 221.188 251.114 221.901C251.114 222.614 251.768 223.225 252.888 223.225C253.367 223.258 253.844 223.137 254.249 222.881C254.655 222.625 254.968 222.246 255.143 221.799H255.114Z" fill="#263238"/>
<path d="M270.215 219.835V223.909H269.27V219.937C269.27 218.482 268.513 217.697 267.247 217.697C266.919 217.681 266.592 217.738 266.288 217.863C265.984 217.987 265.711 218.177 265.488 218.418C265.265 218.659 265.097 218.946 264.996 219.258C264.896 219.571 264.865 219.902 264.905 220.228V223.909H263.96V219.937C263.96 218.482 263.203 217.697 261.923 217.697C261.595 217.681 261.267 217.738 260.963 217.863C260.659 217.987 260.386 218.177 260.163 218.418C259.94 218.659 259.772 218.946 259.672 219.258C259.571 219.571 259.54 219.902 259.581 220.228V223.909H258.635V216.897H259.508V218.22C259.782 217.791 260.165 217.442 260.617 217.207C261.068 216.972 261.574 216.86 262.083 216.882C262.599 216.84 263.115 216.956 263.562 217.216C264.01 217.477 264.367 217.868 264.585 218.337C264.87 217.866 265.278 217.481 265.765 217.225C266.252 216.969 266.8 216.85 267.349 216.882C267.742 216.847 268.138 216.9 268.508 217.037C268.877 217.174 269.212 217.392 269.486 217.675C269.761 217.958 269.969 218.299 270.095 218.673C270.221 219.046 270.262 219.444 270.215 219.835Z" fill="#263238"/>
<path d="M278.929 220.694H273.11C273.131 221.036 273.218 221.371 273.368 221.679C273.519 221.987 273.728 222.263 273.985 222.49C274.242 222.717 274.541 222.891 274.865 223.002C275.189 223.113 275.532 223.159 275.874 223.138C276.28 223.151 276.683 223.074 277.055 222.913C277.427 222.752 277.759 222.511 278.027 222.207L278.551 222.832C278.047 223.359 277.399 223.725 276.688 223.885C275.977 224.046 275.234 223.993 274.553 223.734C273.872 223.475 273.282 223.021 272.857 222.428C272.432 221.836 272.191 221.131 272.165 220.403C272.141 219.939 272.212 219.476 272.374 219.042C272.537 218.607 272.787 218.21 273.108 217.876C273.43 217.542 273.817 217.278 274.246 217.099C274.674 216.921 275.134 216.832 275.598 216.839C276.061 216.829 276.521 216.917 276.949 217.095C277.377 217.273 277.763 217.538 278.083 217.873C278.403 218.208 278.65 218.606 278.808 219.041C278.966 219.477 279.032 219.94 279.002 220.403C278.944 220.476 278.929 220.577 278.929 220.694ZM273.11 219.981H278.086C278.086 219.321 277.824 218.688 277.357 218.222C276.89 217.755 276.258 217.493 275.598 217.493C274.938 217.493 274.305 217.755 273.839 218.222C273.372 218.688 273.11 219.321 273.11 219.981Z" fill="#263238"/>
</g>
<path d="M125.448 480.491H124.066C124.066 478.44 125.768 430.374 134.133 422.299C142.731 413.934 152.842 422.183 152.929 422.299L152.056 423.347C151.678 423.041 142.789 415.826 135.079 423.347C127.121 430.926 125.463 479.997 125.448 480.491Z" fill="#0039CA"/>
<path d="M124.75 490.137L123.382 490.006C123.382 489.424 128.794 431.639 107.86 407.606L108.893 406.704C130.22 431.188 124.808 489.555 124.75 490.137Z" fill="#0039CA"/>
<path d="M125.419 483.968C125.244 481.233 121.215 417.047 137.305 402.208L138.236 403.227C122.626 417.571 126.743 483.241 126.786 483.866L125.419 483.968Z" fill="#0039CA"/>
<path d="M123.382 483.925C123.382 483.488 122.888 440.281 111.438 433.778C110.465 433.136 109.352 432.737 108.192 432.616C107.032 432.494 105.861 432.653 104.775 433.08C98.0688 435.858 94.5045 448.66 94.4609 448.791L93.137 448.428C93.2825 447.875 96.9195 434.854 104.252 431.814C105.529 431.301 106.911 431.103 108.281 431.237C109.651 431.371 110.969 431.834 112.122 432.585C124.241 439.524 124.75 482.048 124.764 483.91L123.382 483.925Z" fill="#0039CA"/>
<path d="M128.096 483.954C128.009 482.499 126.248 449.853 135.515 437.735C137.988 434.52 140.723 432.992 143.691 433.21C150.282 433.661 155.33 442.594 155.606 442.972L154.413 443.656C154.413 443.569 149.438 434.927 143.589 434.578C141.131 434.389 138.774 435.742 136.606 438.579C127.645 450.217 129.449 483.546 129.463 483.881L128.096 483.954Z" fill="#0039CA"/>
<path d="M126.248 488.478L124.881 488.377C124.881 487.591 130.7 409.643 121.098 396.637L122.204 395.822C132.126 409.236 126.496 485.249 126.248 488.478Z" fill="#0039CA"/>
<path d="M101.589 439.568C101.589 439.568 107.525 441.765 105.765 446.929C104.004 452.094 85.2083 460.605 85.2083 460.605C85.2083 460.605 77.3379 453.403 84.5682 441.692C91.7986 429.981 101.429 435.873 101.589 439.568Z" fill="#0039CA"/>
<path opacity="0.2" d="M101.589 439.568C101.589 439.568 107.525 441.765 105.765 446.929C104.004 452.094 85.2083 460.605 85.2083 460.605C85.2083 460.605 77.3379 453.403 84.5682 441.692C91.7986 429.981 101.429 435.873 101.589 439.568Z" fill="black"/>
<path d="M127.412 429.733C127.412 429.733 121.084 429.472 120.72 434.913C120.356 440.354 134.395 455.454 134.395 455.454C134.395 455.454 144.433 451.817 142.28 438.215C140.127 424.613 128.983 426.373 127.412 429.733Z" fill="#0039CA"/>
<path opacity="0.2" d="M127.412 429.733C127.412 429.733 121.084 429.472 120.72 434.913C120.356 440.354 134.395 455.454 134.395 455.454C134.395 455.454 144.433 451.817 142.28 438.215C140.127 424.613 128.983 426.373 127.412 429.733Z" fill="black"/>
<path d="M132.766 403.634C132.766 403.634 128.547 403.183 128.881 400.623C129.216 398.062 145.277 391.443 154.748 402.078C154.748 402.078 148.681 412.494 139.923 412.64C131.165 412.785 132.766 403.634 132.766 403.634Z" fill="#0039CA"/>
<path opacity="0.2" d="M132.766 403.634C132.766 403.634 128.547 403.183 128.881 400.623C129.216 398.062 145.277 391.443 154.748 402.078C154.748 402.078 148.681 412.494 139.923 412.64C131.165 412.785 132.766 403.634 132.766 403.634Z" fill="black"/>
<path d="M124.91 397.393C124.91 397.393 128.721 399.241 129.798 396.884C130.874 394.527 120.735 380.43 107.045 384.489C107.045 384.489 106.681 396.535 114.042 401.292C121.404 406.049 124.91 397.393 124.91 397.393Z" fill="#0039CA"/>
<path opacity="0.2" d="M124.91 397.393C124.91 397.393 128.721 399.241 129.798 396.884C130.874 394.527 120.735 380.43 107.045 384.489C107.045 384.489 106.681 396.535 114.042 401.292C121.404 406.049 124.91 397.393 124.91 397.393Z" fill="black"/>
<path d="M144.87 437.502C144.87 437.502 141.96 435.145 145.102 433.996C148.245 432.847 163.651 433.181 163.811 448.442C163.811 448.442 145.859 451.424 143.648 445.605C141.436 439.786 144.87 437.502 144.87 437.502Z" fill="#0039CA"/>
<path opacity="0.2" d="M144.87 437.502C144.87 437.502 141.96 435.145 145.102 433.996C148.245 432.847 163.651 433.181 163.811 448.442C163.811 448.442 145.859 451.424 143.648 445.605C141.436 439.786 144.87 437.502 144.87 437.502Z" fill="black"/>
<path d="M108.209 403.256C108.209 403.256 111.118 400.899 107.976 399.765C104.834 398.63 89.4273 398.935 89.2673 414.196C89.2673 414.196 107.219 417.193 109.431 411.374C111.642 405.555 108.209 403.256 108.209 403.256Z" fill="#0039CA"/>
<path opacity="0.2" d="M108.209 403.256C108.209 403.256 111.118 400.899 107.976 399.765C104.834 398.63 89.4273 398.935 89.2673 414.196C89.2673 414.196 107.219 417.193 109.431 411.374C111.642 405.555 108.209 403.256 108.209 403.256Z" fill="black"/>
<path d="M117.752 415.549C117.752 415.549 118.014 412.639 115.701 413.818C113.388 414.996 105.372 423.608 113.693 431.828C113.693 431.828 124.91 423.521 122.888 419.2C120.866 414.88 117.752 415.549 117.752 415.549Z" fill="#0039CA"/>
<path opacity="0.2" d="M117.752 415.549C117.752 415.549 118.014 412.639 115.701 413.818C113.388 414.996 105.372 423.608 113.693 431.828C113.693 431.828 124.91 423.521 122.888 419.2C120.866 414.88 117.752 415.549 117.752 415.549Z" fill="black"/>
<path d="M147.488 419.622C147.488 419.622 145.743 417.338 148.303 417.062C150.863 416.785 162.269 419.826 159.607 431.232C159.607 431.232 145.699 430.184 145.059 425.412C144.419 420.641 147.488 419.622 147.488 419.622Z" fill="#0039CA"/>
<path opacity="0.2" d="M147.488 419.622C147.488 419.622 145.743 417.338 148.303 417.062C150.863 416.785 162.269 419.826 159.607 431.232C159.607 431.232 145.699 430.184 145.059 425.412C144.419 420.641 147.488 419.622 147.488 419.622Z" fill="black"/>
<path d="M102.622 526.23H147.59L153.569 482.499H96.6431L102.622 526.23Z" fill="#263238"/>
<path opacity="0.2" d="M102.622 526.23H147.59L153.569 482.499H96.6431L102.622 526.23Z" fill="white"/>
<path d="M159.214 478.949V483.11C159.214 484.445 158.684 485.725 157.74 486.669C156.796 487.613 155.515 488.144 154.18 488.144H95.4792C94.1442 488.144 92.8639 487.613 91.92 486.669C90.976 485.725 90.4456 484.445 90.4456 483.11V478.949H159.214Z" fill="#263238"/>
<path d="M533.912 64.4622H492.116C488.705 64.4622 485.434 65.8171 483.022 68.2289C480.61 70.6407 479.255 73.9118 479.255 77.3226V113.693C479.253 115.383 479.585 117.057 480.23 118.619C480.875 120.181 481.822 121.6 483.017 122.796C484.211 123.991 485.63 124.94 487.191 125.587C488.752 126.234 490.426 126.568 492.116 126.568H504.321L501.412 138.046L513.05 126.568H533.985C537.399 126.568 540.674 125.211 543.089 122.797C545.503 120.382 546.86 117.107 546.86 113.693V77.3226C546.86 75.6264 546.524 73.9469 545.873 72.3809C545.221 70.8149 544.266 69.3933 543.062 68.1979C541.859 67.0026 540.431 66.0571 538.86 65.416C537.29 64.7748 535.608 64.4507 533.912 64.4622Z" fill="#0039CA"/>
<path opacity="0.7" d="M533.912 64.4622H492.116C488.705 64.4622 485.434 65.8171 483.022 68.2289C480.61 70.6407 479.255 73.9118 479.255 77.3226V113.693C479.253 115.383 479.585 117.057 480.23 118.619C480.875 120.181 481.822 121.6 483.017 122.796C484.211 123.991 485.63 124.94 487.191 125.587C488.752 126.234 490.426 126.568 492.116 126.568H504.321L501.412 138.046L513.05 126.568H533.985C537.399 126.568 540.674 125.211 543.089 122.797C545.503 120.382 546.86 117.107 546.86 113.693V77.3226C546.86 75.6264 546.524 73.9469 545.873 72.3809C545.221 70.8149 544.266 69.3933 543.062 68.1979C541.859 67.0026 540.431 66.0571 538.86 65.416C537.29 64.7748 535.608 64.4507 533.912 64.4622Z" fill="white"/>
<path d="M513.021 111.583C521.98 111.583 529.242 104.321 529.242 95.3619C529.242 86.4033 521.98 79.1409 513.021 79.1409C504.063 79.1409 496.8 86.4033 496.8 95.3619C496.8 104.321 504.063 111.583 513.021 111.583Z" fill="white"/>
<path d="M513.021 74.6167C508.918 74.6167 504.907 75.8334 501.496 78.1129C498.084 80.3925 495.425 83.6325 493.855 87.4232C492.285 91.2139 491.874 95.3851 492.674 99.4094C493.475 103.434 495.451 107.13 498.352 110.031C501.253 112.933 504.95 114.908 508.974 115.709C512.998 116.509 517.169 116.099 520.96 114.528C524.751 112.958 527.991 110.299 530.27 106.888C532.55 103.476 533.767 99.4652 533.767 95.3621C533.768 92.6373 533.233 89.9388 532.191 87.4209C531.149 84.9031 529.621 82.6154 527.695 80.6886C525.768 78.7619 523.48 77.2338 520.962 76.192C518.445 75.1501 515.746 74.6148 513.021 74.6167ZM524.79 89.1647L512.294 103.887C512.116 104.1 511.894 104.27 511.642 104.386C511.39 104.502 511.116 104.56 510.839 104.556C510.562 104.558 510.289 104.499 510.037 104.383C509.786 104.268 509.563 104.098 509.384 103.887L501.252 94.3001C501.08 94.1106 500.948 93.8884 500.864 93.6467C500.78 93.4051 500.745 93.149 500.762 92.8937C500.779 92.6384 500.847 92.3892 500.963 92.1608C501.078 91.9325 501.238 91.7297 501.434 91.5645C501.629 91.3994 501.856 91.2753 502.1 91.1997C502.345 91.124 502.602 91.0983 502.856 91.1242C503.111 91.15 503.358 91.2269 503.582 91.3501C503.806 91.4733 504.003 91.6405 504.161 91.8415L510.839 99.712L521.881 86.7061C522.213 86.3401 522.673 86.1172 523.166 86.0844C523.659 86.0516 524.146 86.2115 524.523 86.5303C524.9 86.8491 525.139 87.302 525.189 87.7935C525.239 88.2849 525.096 88.7765 524.79 89.1647Z" fill="#0039CA"/>
<path d="M526.667 288.865C526.667 288.865 501.339 285.664 462.962 296.139C462.962 296.139 456.793 227.559 457.521 218.132C458.248 208.705 516.775 211.469 516.775 211.469C516.775 211.469 518.229 238.921 522.041 255.477C525.852 272.033 528.646 285.679 526.667 288.865Z" fill="#0039CA"/>
<path opacity="0.2" d="M526.667 288.865C526.667 288.865 501.339 285.664 462.962 296.139C462.962 296.139 456.793 227.559 457.521 218.132C458.248 208.705 516.775 211.469 516.775 211.469C516.775 211.469 518.229 238.921 522.041 255.477C525.852 272.033 528.646 285.679 526.667 288.865Z" fill="black"/>
<path d="M444.456 515.9L454.786 518.825L457.244 502.749L458.568 494.151L448.239 491.227L446.479 502.749L444.456 515.9Z" fill="#E4897B"/>
<path d="M503.841 516.745L514.49 518.156L514.592 502.749L514.665 493.177L504.001 491.78L503.929 502.749L503.841 516.745Z" fill="#E4897B"/>
<path opacity="0.2" d="M504.001 491.78L503.929 502.749H514.592L514.665 493.177L504.001 491.78Z" fill="black"/>
<path opacity="0.2" d="M446.479 502.749H457.244L458.568 494.151L448.239 491.227L446.479 502.749Z" fill="black"/>
<path d="M398.601 223.763L388.345 220.737L390.222 232.448C390.222 232.448 399.532 234.586 400.405 229.742L398.601 223.763Z" fill="#E4897B"/>
<path d="M378.103 223.457L383.137 232.971L390.221 232.448L388.345 220.737L378.103 223.457Z" fill="#E4897B"/>
<path d="M412.756 226.759L395.91 222.991L394.382 231.167L409.672 234.891L412.756 226.759Z" fill="#E4897B"/>
<path d="M463.718 219.369L462.729 220.547C460.605 223.035 455.455 229.043 450.087 234.222C445.722 238.441 441.358 242.122 438.448 242.864C430.199 244.988 400.216 236.157 400.216 236.157L403.315 223.995C403.315 223.995 431.247 227.705 433.415 227.705C435.058 227.705 452.051 203.09 456.168 201.067L463.718 219.369Z" fill="#0039CA"/>
<path opacity="0.2" d="M462.729 220.547C460.605 223.035 455.455 229.043 450.087 234.222C451.163 225.697 454.291 217.87 458.408 212.924C458.792 212.446 459.231 212.017 459.717 211.644L462.729 220.547Z" fill="black"/>
<path d="M444.587 514.286L456.313 513.98C456.525 513.974 456.732 514.039 456.901 514.166C457.07 514.293 457.191 514.474 457.244 514.679L459.717 524.12C459.776 524.346 459.784 524.583 459.739 524.812C459.694 525.042 459.599 525.258 459.459 525.445C459.319 525.632 459.139 525.786 458.932 525.894C458.725 526.002 458.496 526.062 458.263 526.07C454.029 526.07 447.904 526.07 442.594 526.172C436.368 526.346 432.411 526.041 425.137 526.172C420.772 526.288 419.318 521.895 421.18 521.444C429.516 519.378 434.971 519.785 442.071 515.13C442.82 514.63 443.688 514.339 444.587 514.286Z" fill="#263238"/>
<path d="M443.569 515.799C441.852 516.177 438.797 516.687 437.575 515.683C437.397 515.535 437.257 515.348 437.166 515.135C437.075 514.923 437.035 514.691 437.052 514.461C437.051 514.322 437.087 514.186 437.156 514.066C437.225 513.946 437.324 513.846 437.444 513.777C438.739 513.006 443.118 515.086 443.627 515.319C443.672 515.343 443.709 515.379 443.735 515.422C443.76 515.466 443.773 515.516 443.773 515.566C443.77 515.623 443.749 515.676 443.712 515.719C443.675 515.761 443.624 515.789 443.569 515.799ZM437.75 514.184H437.663C437.614 514.212 437.574 514.253 437.546 514.301C437.518 514.35 437.503 514.405 437.503 514.461C437.49 514.611 437.514 514.762 437.573 514.901C437.631 515.041 437.722 515.164 437.837 515.261C438.521 515.828 440.296 515.886 442.653 515.421C440.95 514.708 438.579 513.879 437.779 514.184H437.75Z" fill="#0039CA"/>
<path d="M443.569 515.798H443.394C442.071 515.245 439.423 513.005 439.568 511.798C439.568 511.507 439.801 511.143 440.499 511.056C440.756 511.022 441.016 511.04 441.266 511.107C441.516 511.174 441.749 511.29 441.954 511.448C443.409 512.54 443.744 515.405 443.773 515.522C443.777 515.566 443.77 515.611 443.752 515.651C443.734 515.692 443.706 515.728 443.671 515.755L443.569 515.798ZM440.31 511.623C440.092 511.696 440.077 511.812 440.077 511.856C439.99 512.583 441.794 514.358 443.147 515.114C442.991 513.892 442.451 512.751 441.605 511.856C441.461 511.735 441.294 511.647 441.113 511.596C440.932 511.546 440.743 511.535 440.558 511.565C440.473 511.572 440.389 511.592 440.31 511.623Z" fill="#0039CA"/>
<path d="M504.263 514.286L515.989 513.98C516.202 513.973 516.412 514.038 516.583 514.164C516.755 514.291 516.879 514.472 516.935 514.678L519.393 524.12C519.455 524.346 519.465 524.584 519.421 524.814C519.378 525.045 519.282 525.262 519.142 525.45C519.001 525.638 518.82 525.791 518.612 525.899C518.403 526.006 518.173 526.065 517.938 526.069C513.705 526.069 507.58 526.069 502.256 526.171C496.044 526.346 492.072 526.04 484.798 526.171C480.434 526.288 478.979 521.894 480.841 521.443C489.177 519.377 494.618 519.785 501.717 515.129C502.475 514.625 503.354 514.334 504.263 514.286Z" fill="#263238"/>
<path d="M503.259 515.799C501.543 516.177 498.473 516.687 497.266 515.683C497.088 515.535 496.947 515.348 496.856 515.135C496.765 514.923 496.726 514.691 496.742 514.461C496.741 514.322 496.777 514.186 496.846 514.066C496.915 513.946 497.015 513.846 497.135 513.777C498.415 513.006 502.808 515.086 503.303 515.319C503.351 515.338 503.392 515.373 503.418 515.418C503.445 515.462 503.455 515.515 503.449 515.566C503.445 515.62 503.424 515.671 503.391 515.712C503.357 515.754 503.311 515.784 503.259 515.799ZM497.44 514.184H497.353C497.305 514.212 497.266 514.252 497.24 514.301C497.214 514.35 497.203 514.406 497.207 514.461C497.193 514.611 497.216 514.763 497.274 514.903C497.333 515.042 497.425 515.165 497.542 515.261C498.226 515.828 499.986 515.886 502.357 515.421C500.626 514.708 498.255 513.879 497.455 514.184H497.44Z" fill="#0039CA"/>
<path d="M503.259 515.799H503.07C501.761 515.246 499.099 513.005 499.259 511.798C499.259 511.507 499.477 511.143 500.175 511.056C500.432 511.021 500.693 511.037 500.942 511.105C501.192 511.172 501.426 511.289 501.63 511.449C502.648 512.583 503.284 514.007 503.449 515.522C503.456 515.567 503.45 515.612 503.432 515.654C503.414 515.695 503.384 515.73 503.347 515.755L503.259 515.799ZM499.986 511.623C499.782 511.696 499.768 511.813 499.768 511.856C499.666 512.584 501.485 514.358 502.838 515.115C502.671 513.896 502.133 512.758 501.295 511.856C501.151 511.736 500.984 511.648 500.803 511.598C500.622 511.548 500.433 511.537 500.248 511.565L499.986 511.623Z" fill="#0039CA"/>
<path d="M525.809 282.609C531.453 307.064 521.765 499.462 521.765 499.462H503.056L495.054 339.128L465.595 499.462L445.591 498.007C458.684 373.796 470.221 299.645 470.221 299.645V290.276L525.809 282.609Z" fill="#263238"/>
<path opacity="0.4" d="M445.591 498.007L465.595 499.462L488.784 373.243L495.054 339.128L503.056 499.462H521.765C521.765 499.462 531.453 307.064 525.809 282.609L470.192 290.276V299.645C470.192 299.645 458.67 373.796 445.591 498.007Z" fill="white"/>
<path d="M515.727 192.033C515.154 203.726 515.45 215.445 516.614 227.094C517.4 235.24 518.477 242.936 519.626 249.876C522.317 266.155 525.372 278.361 525.809 282.623L470.192 290.29C449.912 233.553 457.55 200.587 457.55 200.587C461.708 198.87 465.969 197.412 470.308 196.223C471.225 195.975 472.156 195.743 473.116 195.524C480.927 193.987 488.82 192.899 496.756 192.266C498.211 192.135 499.797 192.033 501.281 191.96C508.875 191.582 515.727 192.033 515.727 192.033Z" fill="#263238"/>
<path d="M485.962 166.502C486.369 174.285 487.198 188.891 493.672 192.601C493.672 192.601 489.643 200.268 480.928 201.053C474.338 201.635 474.774 195.132 474.774 195.132C478.586 192.295 477.684 187.48 474.774 182.039L485.962 166.502Z" fill="#E4897B"/>
<path opacity="0.2" d="M481.394 172.844L474.818 182.039C475.51 183.296 476.094 184.61 476.564 185.967C479.619 184.745 483.125 180.148 482.616 176.816C482.456 175.428 482.042 174.082 481.394 172.844Z" fill="black"/>
<path d="M457.593 150.833C456.328 154.877 457.026 163.17 462.656 160.478C468.286 157.787 459.775 143.894 457.593 150.833Z" fill="#263238"/>
<path d="M486.689 156.303C487.315 166.676 488.144 172.713 483.62 178.59C476.738 187.421 463.413 184.133 459.688 174.124C456.342 165.105 455.891 149.655 465.507 144.417C467.639 143.258 470.03 142.658 472.456 142.673C474.883 142.689 477.266 143.32 479.382 144.508C481.498 145.695 483.279 147.4 484.557 149.463C485.835 151.526 486.568 153.879 486.689 156.303Z" fill="#E4897B"/>
<path d="M479.415 150.658V139.02C479.415 139.02 491.752 138.104 491.199 144.417C498.037 147.807 494.807 158.442 485.627 163.65C480.594 159.62 481.176 149.931 481.176 149.931C480.637 150.207 480.026 150.44 479.415 150.658Z" fill="#263238"/>
<path d="M491.708 164.392C491.471 165.661 490.981 166.869 490.269 167.946C489.557 169.023 488.637 169.946 487.562 170.662C484.653 172.568 482.136 170.226 482.034 166.952C481.947 164.043 483.329 159.445 486.675 158.864C487.407 158.749 488.155 158.819 488.854 159.065C489.553 159.311 490.179 159.726 490.678 160.274C491.177 160.822 491.532 161.485 491.712 162.203C491.892 162.922 491.89 163.674 491.708 164.392Z" fill="#E4897B"/>
<path d="M471.37 160.929C471.472 161.773 471.108 162.501 470.556 162.559C470.003 162.617 469.479 161.991 469.377 161.104C469.275 160.216 469.639 159.533 470.177 159.475C470.716 159.416 471.268 160.027 471.37 160.929Z" fill="#263238"/>
<path d="M461.856 161.992C461.958 162.835 461.594 163.563 461.041 163.621C460.488 163.679 459.965 163.054 459.863 162.166C459.761 161.279 460.125 160.595 460.677 160.537C461.23 160.479 461.725 161.148 461.856 161.992Z" fill="#263238"/>
<path d="M464.925 162.064C464.19 164.666 463.099 167.153 461.681 169.455C462.309 169.777 462.997 169.963 463.702 170.001C464.406 170.039 465.111 169.927 465.769 169.673L464.925 162.064Z" fill="#DE5753"/>
<path d="M470.672 172.379C470.313 172.47 469.949 172.538 469.581 172.583C469.515 172.583 469.452 172.557 469.406 172.51C469.36 172.464 469.334 172.401 469.334 172.335C469.334 172.27 469.36 172.207 469.406 172.16C469.452 172.114 469.515 172.088 469.581 172.088C470.626 171.993 471.633 171.654 472.523 171.098C473.412 170.542 474.159 169.785 474.702 168.887C474.714 168.858 474.733 168.831 474.756 168.809C474.779 168.788 474.806 168.771 474.836 168.76C474.866 168.749 474.898 168.744 474.93 168.746C474.962 168.748 474.993 168.757 475.022 168.771C475.052 168.785 475.079 168.805 475.101 168.829C475.123 168.854 475.14 168.883 475.151 168.914C475.161 168.945 475.166 168.978 475.164 169.011C475.162 169.044 475.153 169.076 475.138 169.106C474.662 169.932 474.019 170.65 473.25 171.214C472.481 171.777 471.603 172.174 470.672 172.379Z" fill="#263238"/>
<path d="M473.931 157.54C473.843 157.56 473.751 157.558 473.664 157.532C473.578 157.507 473.499 157.459 473.436 157.394C473.015 156.933 472.492 156.576 471.908 156.351C471.325 156.126 470.698 156.04 470.075 156.1C470.011 156.114 469.945 156.116 469.88 156.104C469.815 156.092 469.754 156.067 469.699 156.03C469.645 155.993 469.598 155.945 469.563 155.89C469.527 155.834 469.504 155.772 469.494 155.707C469.481 155.643 469.481 155.577 469.494 155.513C469.507 155.449 469.532 155.388 469.569 155.334C469.605 155.28 469.652 155.234 469.707 155.198C469.761 155.162 469.822 155.137 469.886 155.125C470.672 155.031 471.468 155.127 472.209 155.402C472.951 155.678 473.616 156.127 474.149 156.711C474.196 156.756 474.234 156.81 474.26 156.87C474.286 156.93 474.299 156.994 474.299 157.06C474.299 157.125 474.286 157.19 474.26 157.25C474.234 157.31 474.196 157.364 474.149 157.409C474.087 157.468 474.012 157.513 473.931 157.54Z" fill="#263238"/>
<path d="M457.36 159.184C457.267 159.22 457.163 159.22 457.07 159.184C456.946 159.141 456.845 159.051 456.788 158.934C456.731 158.817 456.722 158.682 456.764 158.558C457.004 157.81 457.422 157.13 457.982 156.578C458.542 156.026 459.227 155.617 459.979 155.387C460.106 155.354 460.242 155.373 460.355 155.44C460.468 155.507 460.55 155.616 460.583 155.743C460.616 155.871 460.597 156.006 460.53 156.119C460.463 156.232 460.354 156.314 460.226 156.347C459.632 156.53 459.091 156.857 458.652 157.299C458.213 157.74 457.89 158.283 457.71 158.879C457.682 158.955 457.636 159.023 457.574 159.076C457.513 159.13 457.44 159.167 457.36 159.184Z" fill="#263238"/>
<path d="M484.885 154.965C484.885 154.965 477.611 152.303 474.294 148.084C474.294 148.084 467.69 149.815 466.337 152.448C465.719 151.92 465.32 151.181 465.215 150.375C465.11 149.569 465.308 148.753 465.769 148.084C465.769 148.084 460.823 149.131 459.848 152.448C459.044 152.066 458.384 151.435 457.965 150.65C457.546 149.864 457.39 148.965 457.52 148.084C457.52 148.084 455.324 148.913 454.611 152.448C454.611 152.448 449.155 141.072 467.18 137.813C465.817 137.35 464.387 137.109 462.947 137.1C462.947 137.1 475.531 132.023 485.496 136.664C495.462 141.305 493.73 150.295 484.885 154.965Z" fill="#263238"/>
<path d="M530.1 292.414L512.643 294.742C512.643 294.742 505.442 244.421 502.27 228.17V193.488L511.392 191.088L518.462 193.488C520.401 200.466 521.893 207.56 522.928 214.728C523.787 220.169 524.558 225.988 525.241 231.88C526.187 239.911 526.973 248.087 527.642 255.739C528.689 268.09 529.388 279.016 529.766 285.693C529.984 289.883 530.1 292.414 530.1 292.414Z" fill="#0039CA"/>
<path d="M502.285 228.141C502.285 228.141 503.74 203.657 511.406 191.029C511.406 191.029 511.217 187.421 509.69 186.839C508.162 186.257 502.285 189.749 502.285 189.749C502.285 189.749 498.633 187.247 497.833 188.411C497.033 189.574 495.084 197.314 502.285 228.141Z" fill="#0039CA"/>
<path opacity="0.7" d="M502.285 228.141C502.285 228.141 503.74 203.657 511.406 191.029C511.406 191.029 511.217 187.421 509.69 186.839C508.162 186.257 502.285 189.749 502.285 189.749C502.285 189.749 498.633 187.247 497.833 188.411C497.033 189.574 495.084 197.314 502.285 228.141Z" fill="white"/>
<path d="M462.598 299.121L464.591 300.576C464.591 300.576 461.681 284.355 462.874 243.33C462.874 241.351 463.005 239.445 463.078 237.627C464.533 202.915 469.945 196.602 470.352 196.223L465.318 197.94L456.197 201.082C453.447 230.688 462.598 299.121 462.598 299.121Z" fill="#0039CA"/>
<path d="M463.383 231.648C463.383 231.648 458.35 207.847 459.848 199.642C461.347 191.437 466.715 195.088 466.715 195.088C466.715 195.088 471.647 191.102 473.116 195.496C473.116 195.496 466.337 200.268 463.383 231.648Z" fill="#0039CA"/>
<path opacity="0.7" d="M463.383 231.648C463.383 231.648 458.35 207.847 459.848 199.642C461.347 191.437 466.715 195.088 466.715 195.088C466.715 195.088 471.647 191.102 473.116 195.496C473.116 195.496 466.337 200.268 463.383 231.648Z" fill="white"/>
<path opacity="0.2" d="M525.212 231.822C517.764 227.647 516.774 216.751 516.774 216.751C517.225 216.576 519.99 215.63 522.899 214.67C523.757 220.111 524.529 225.93 525.212 231.822Z" fill="black"/>
<path opacity="0.2" d="M488.784 373.243L495.054 339.128L493.847 321.074C493.847 321.074 485.249 352.381 488.784 373.243Z" fill="black"/>
<path opacity="0.2" d="M529.737 285.635C525.052 285.315 521.008 285.009 521.008 285.009L520.121 265.966C521.58 265.052 523.334 264.729 525.023 265.064C526.174 262.022 527.046 258.881 527.627 255.68C528.646 268.032 529.358 278.972 529.737 285.635Z" fill="black"/>
<path d="M531.337 255.666L522.215 270.316L529.431 274.462L538 261.267L531.337 255.666Z" fill="#E4897B"/>
<path d="M518.069 193.255C524.209 193.925 550.308 229.742 551.457 240.536C552.606 251.331 536.123 269.967 536.123 269.967L525.125 263.493C525.125 263.493 536.298 246.312 536.88 241.671C537.462 237.03 516.44 218.278 516.44 218.278C514.85 213.958 513.976 209.408 513.85 204.806C513.559 196.921 518.069 193.255 518.069 193.255Z" fill="#0039CA"/>
<path d="M520.106 265.98C520.106 265.98 529.489 267.988 533.272 273.895C533.272 273.895 529.344 286.188 526.536 287.526C523.728 288.864 516.775 288.864 516.775 288.864C516.775 288.864 516.324 275.189 520.106 265.98Z" fill="#0039CA"/>
</svg>
