<svg width="541" height="531" viewBox="0 0 541 531" fill="none" xmlns="http://www.w3.org/2000/svg">
<path d="M540.966 357.28H333.436V237.186H540.966V357.28ZM334.702 356.013H539.699V238.452H334.702V356.013Z" fill="#E0E0E0"/>
<path d="M498.153 301.222H361.23V305.236H498.153V301.222Z" fill="#F0F0F0"/>
<path d="M507.586 316.189H361.23V320.571H507.586V316.189Z" fill="#F0F0F0"/>
<path d="M507.586 331.334H361.23V335.715H507.586V331.334Z" fill="#F0F0F0"/>
<path d="M409.083 279.48H361.23V289.901H409.083V279.48Z" fill="#F0F0F0"/>
<path d="M540.332 237.819H334.107V256.94H540.332V237.819Z" fill="#E0E0E0"/>
<path d="M524.466 254.078C524.2 253.825 526.859 250.621 530.392 246.924C533.925 243.226 537.027 240.428 537.281 240.668C537.534 240.909 534.887 244.125 531.354 247.835C527.821 251.546 524.719 254.331 524.466 254.078Z" fill="white"/>
<path d="M537.306 254.078C537.053 254.331 533.963 251.546 530.417 247.835C526.872 244.125 524.225 240.922 524.491 240.668C524.757 240.415 527.834 243.201 531.38 246.924C534.925 250.647 537.547 253.825 537.306 254.078Z" fill="white"/>
<path d="M285.596 0H79.3701V118.84H285.596V0Z" fill="#E6E6E6"/>
<path d="M243.429 63.415H106.506V67.4291H243.429V63.415Z" fill="#F0F0F0"/>
<path d="M252.863 78.3826H106.506V82.7639H252.863V78.3826Z" fill="#F0F0F0"/>
<path d="M252.863 93.5271H106.506V97.9084H252.863V93.5271Z" fill="#F0F0F0"/>
<path d="M154.359 41.6732H106.506V52.0947H154.359V41.6732Z" fill="#F0F0F0"/>
<path d="M285.596 0H79.3701V19.1208H285.596V0Z" fill="#E0E0E0"/>
<path d="M269.033 16.1703C268.767 15.9297 271.426 12.7134 274.959 9.01586C278.492 5.31833 281.594 2.51987 281.848 2.77312C282.101 3.02638 279.454 6.23005 275.921 9.92758C272.389 13.6251 269.286 16.3982 269.033 16.1703Z" fill="white"/>
<path d="M281.848 16.1703C281.594 16.4235 278.505 13.6377 274.959 9.92752C271.413 6.21733 268.767 3.02632 269.033 2.77306C269.299 2.51981 272.376 5.30561 275.921 9.0158C279.467 12.726 282.114 15.9297 281.848 16.1703Z" fill="white"/>
<path d="M207.492 220.762H0V100.656H207.492V220.762ZM1.26628 219.496H206.226V101.923H1.26628V219.496Z" fill="#E0E0E0"/>
<path d="M164.692 164.705H27.7694V168.719H164.692V164.705Z" fill="#F0F0F0"/>
<path d="M174.126 179.672H27.7694V184.053H174.126V179.672Z" fill="#F0F0F0"/>
<path d="M174.126 194.816H27.7694V199.198H174.126V194.816Z" fill="#F0F0F0"/>
<path d="M75.622 142.962H27.7694V153.384H75.622V142.962Z" fill="#F0F0F0"/>
<path d="M206.859 101.289H0.633118V120.41H206.859V101.289Z" fill="#E0E0E0"/>
<path d="M446.957 248.279H203.453V466.281H446.957V248.279Z" fill="#E6E6E6"/>
<path d="M215.697 179.608H24.9456V377.793H215.697V179.608Z" fill="#F0F0F0"/>
<path d="M215.697 179.608H24.9456V201.198H215.697V179.608Z" fill="#E0E0E0"/>
<path d="M40.6982 190.182C40.6634 190.965 40.3996 191.72 39.9393 192.355C39.4791 192.989 38.8427 193.474 38.1092 193.75C37.3756 194.026 36.5772 194.08 35.8131 193.906C35.0489 193.733 34.3526 193.338 33.8106 192.772C33.2686 192.206 32.9047 191.493 32.7641 190.722C32.6235 189.951 32.7125 189.156 33.0198 188.435C33.3272 187.714 33.8395 187.1 34.4932 186.667C35.1468 186.235 35.913 186.004 36.6967 186.003C37.7805 186.03 38.8096 186.484 39.5594 187.267C40.3092 188.05 40.7186 189.098 40.6982 190.182Z" fill="white"/>
<path d="M56.9444 190.182C56.9121 190.969 56.6492 191.728 56.1884 192.367C55.7276 193.005 55.0892 193.494 54.3528 193.772C53.6163 194.05 52.8143 194.106 52.0465 193.932C51.2786 193.758 50.5789 193.362 50.0344 192.793C49.4899 192.225 49.1246 191.509 48.9841 190.734C48.8435 189.959 48.9338 189.16 49.2438 188.437C49.5538 187.713 50.0697 187.097 50.7275 186.664C51.3852 186.231 52.1556 186.001 52.9429 186.003C54.0267 186.03 55.0558 186.484 55.8056 187.267C56.5554 188.05 56.9648 189.098 56.9444 190.182Z" fill="white"/>
<path d="M73.1907 190.182C73.1584 190.969 72.8955 191.728 72.4347 192.367C71.9739 193.005 71.3356 193.494 70.5991 193.772C69.8627 194.05 69.0606 194.106 68.2928 193.932C67.525 193.758 66.8253 193.362 66.2808 192.793C65.7363 192.225 65.371 191.509 65.2304 190.734C65.0898 189.959 65.1802 189.16 65.4901 188.437C65.8001 187.713 66.3161 187.097 66.9738 186.664C67.6315 186.231 68.402 186.001 69.1893 186.003C70.273 186.03 71.3022 186.484 72.0519 187.267C72.8017 188.05 73.2111 189.098 73.1907 190.182Z" fill="white"/>
<path d="M513.728 43.3447H270.223V286.039H513.728V43.3447Z" fill="#F0F0F0"/>
<path d="M513.728 43.3447H270.223V71.7726H513.728V43.3447Z" fill="#E0E0E0"/>
<path d="M290.965 57.2736C290.92 58.307 290.573 59.3046 289.966 60.1425C289.36 60.9803 288.52 61.6216 287.552 61.9865C286.584 62.3514 285.53 62.424 284.522 62.1953C283.513 61.9665 282.593 61.4465 281.878 60.6997C281.162 59.953 280.681 59.0124 280.495 57.9948C280.309 56.9772 280.426 55.9274 280.832 54.9758C281.237 54.0241 281.913 53.2125 282.776 52.6418C283.639 52.071 284.65 51.7662 285.684 51.7653C287.114 51.7985 288.472 52.3967 289.462 53.4291C290.452 54.4614 290.992 55.8438 290.965 57.2736Z" fill="white"/>
<path d="M310.807 53.5508C311.509 54.3131 311.971 55.2652 312.136 56.2883C312.301 57.3115 312.161 58.3605 311.734 59.3046C311.306 60.2488 310.611 61.0464 309.733 61.5979C308.856 62.1495 307.836 62.4307 306.8 62.4066C305.764 62.3824 304.758 62.0539 303.907 61.462C303.056 60.8701 302.399 60.041 302.016 59.0779C301.633 58.1148 301.542 57.0604 301.755 56.0461C301.967 55.0317 302.473 54.1023 303.21 53.3735C304.242 52.3914 305.621 51.8586 307.045 51.8918C308.469 51.9251 309.822 52.5216 310.807 53.5508Z" fill="white"/>
<path d="M333.74 57.2736C333.695 58.307 333.348 59.3046 332.741 60.1425C332.134 60.9803 331.295 61.6216 330.327 61.9865C329.359 62.3514 328.305 62.424 327.296 62.1953C326.288 61.9665 325.368 61.4465 324.652 60.6997C323.936 59.953 323.456 59.0124 323.27 57.9948C323.084 56.9772 323.201 55.9274 323.606 54.9758C324.012 54.0241 324.688 53.2125 325.551 52.6418C326.413 52.071 327.425 51.7662 328.459 51.7653C329.889 51.7985 331.247 52.3967 332.237 53.4291C333.226 54.4614 333.767 55.8438 333.74 57.2736Z" fill="white"/>
<path d="M461.127 530.671C461.127 530.848 373.197 531 264.766 531C156.334 531 68.3662 530.848 68.3662 530.671C68.3662 530.494 156.284 530.342 264.766 530.342C373.247 530.342 461.127 530.506 461.127 530.671Z" fill="#263238"/>
<path d="M375.451 375.653C355.887 361.99 351.455 336.627 352.227 313.821C352.354 310.022 351.936 305.995 353.747 302.665C355.558 299.335 359.787 297.043 363.193 298.638C366.017 299.968 367.245 303.26 368.828 305.983C370.94 309.609 374.035 312.563 377.755 314.505C380.174 315.771 383.175 316.531 385.568 315.214C388.861 313.403 389.24 308.883 389.215 305.084C389.215 298.018 389.173 290.961 389.088 283.912C388.861 280.126 389.246 276.329 390.228 272.667C391.406 269.071 394.027 265.741 397.611 264.727C401.194 263.714 405.664 265.804 406.474 269.501C406.614 271.067 406.652 272.641 406.588 274.212C406.69 275.795 407.424 277.53 408.906 278.011C410.387 278.492 411.932 277.39 413.072 276.276C416.972 272.477 419.631 267.526 422.1 262.638C424.57 257.75 426.988 252.723 430.534 248.557C434.079 244.391 438.98 241.086 444.463 240.77C449.946 240.453 455.657 243.821 457.024 249.14C458.392 254.458 455.289 259.89 451.959 264.208C446.934 270.618 441.01 276.269 434.37 280.986C433.074 281.694 432.04 282.799 431.42 284.139C430.597 286.672 432.99 289.205 435.485 290.002C438.309 290.939 441.373 290.648 444.349 291.003C447.324 291.357 450.49 292.649 451.617 295.435C453.162 299.309 449.92 303.362 446.742 306.021C440.36 311.339 433.113 315.524 425.317 318.392C422.531 319.405 419.606 320.304 417.352 322.254C415.098 324.204 413.756 327.611 415.11 330.283C416.465 332.954 419.948 333.803 422.873 333.258C425.798 332.714 428.394 331.144 431.179 330.093C436.384 328.13 443.095 328.484 446.375 332.98C447.391 334.528 448.034 336.291 448.254 338.13C448.473 339.969 448.264 341.834 447.641 343.578C446.374 347.05 444.423 350.232 441.905 352.936C433.611 362.845 422.835 370.374 410.678 374.754C398.611 378.933 387.43 380.073 375.438 375.679" fill="#0039CA"/>
<path d="M451.453 243.897C451.453 243.897 451.339 244.024 451.085 244.252L449.958 245.252C448.971 246.139 447.514 247.43 445.678 249.14C440.472 253.973 435.638 259.192 431.217 264.753C428.394 268.26 425.469 272.236 422.354 276.554C419.238 280.872 416.022 285.532 412.831 290.484C409.429 295.705 406.314 301.107 403.499 306.666C402.03 309.566 400.738 312.593 399.409 315.682L395.483 325.116C390.309 336.999 385.802 349.161 381.985 361.547C378.91 371.681 376.79 382.08 375.653 392.609C374.917 399.714 374.798 406.87 375.299 413.996C375.501 416.529 375.691 418.466 375.869 419.783C375.945 420.416 375.995 420.923 376.046 421.29V421.809C375.991 421.644 375.953 421.475 375.932 421.302C375.869 420.935 375.793 420.441 375.691 419.808C375.463 418.542 375.223 416.541 374.995 414.009C374.384 406.869 374.426 399.689 375.121 392.558C376.187 381.984 378.261 371.536 381.314 361.357C385.099 348.937 389.593 336.744 394.774 324.838L398.801 315.442C400.13 312.365 401.435 309.313 402.916 306.401C405.751 300.824 408.892 295.409 412.325 290.18C415.566 285.114 418.833 280.531 421.91 276.251C424.987 271.971 427.963 267.969 430.774 264.474C435.24 258.928 440.139 253.746 445.425 248.975C447.299 247.291 448.793 246.025 449.806 245.176L450.984 244.226C451.128 244.101 451.285 243.99 451.453 243.897Z" fill="#263238"/>
<path d="M403.081 306.376C402.902 305.854 402.779 305.315 402.714 304.767C402.511 303.716 402.283 302.235 402.017 300.31C401.473 296.511 400.916 291.307 400.32 285.545C399.725 279.784 399.054 274.567 398.497 270.806C398.206 268.932 397.952 267.425 397.775 266.374C397.637 265.836 397.565 265.283 397.56 264.728C397.778 265.235 397.935 265.766 398.028 266.311C398.307 267.349 398.624 268.843 398.978 270.73C399.7 274.529 400.409 279.695 401.004 285.469C401.599 291.244 402.106 296.309 402.498 300.247C402.688 302.02 402.853 303.526 402.98 304.729C403.078 305.272 403.112 305.825 403.081 306.376Z" fill="#263238"/>
<path d="M451.807 297.284C451.191 297.418 450.563 297.494 449.933 297.512C448.667 297.626 446.869 297.778 444.64 298.031C440.183 298.512 434.054 299.398 427.33 300.665C420.606 301.931 414.566 303.362 410.223 304.464C408.057 305.021 406.31 305.527 405.157 305.869C404.542 306.088 403.906 306.241 403.258 306.325C403.843 306.031 404.453 305.789 405.081 305.603C406.272 305.185 407.994 304.603 410.147 303.982C414.465 302.716 420.505 301.209 427.254 299.918C432.971 298.824 438.74 298.021 444.539 297.512C446.78 297.322 448.591 297.246 449.857 297.22C450.507 297.176 451.161 297.197 451.807 297.284Z" fill="#263238"/>
<path d="M381.934 360.471C381.799 360.287 381.688 360.087 381.605 359.876L380.769 358.115C380.047 356.583 379.072 354.317 377.907 351.544C375.552 345.972 372.551 338.172 369.36 329.51C366.169 320.849 363.231 313.049 361.003 307.414C359.914 304.679 359.014 302.437 358.343 300.766L357.634 298.955C357.536 298.746 357.468 298.525 357.432 298.297C357.567 298.48 357.677 298.68 357.761 298.892L358.597 300.652C359.306 302.184 360.293 304.451 361.458 307.224C363.814 312.796 366.815 320.596 370.006 329.257C373.197 337.918 376.135 345.719 378.363 351.354C379.452 354.089 380.351 356.33 381.01 358.002C381.301 358.723 381.542 359.268 381.731 359.812C381.83 360.021 381.898 360.243 381.934 360.471Z" fill="#263238"/>
<path d="M446.615 339.615C446.413 339.731 446.196 339.821 445.97 339.881L444.096 340.514L437.169 342.755C431.319 344.655 423.24 347.365 414.376 350.353C405.512 353.341 397.395 356.001 391.507 357.773C388.569 358.672 386.176 359.356 384.517 359.812L382.605 360.306C382.383 360.377 382.154 360.423 381.921 360.445C382.124 360.329 382.341 360.239 382.567 360.179L384.441 359.546L391.368 357.305C397.218 355.405 405.297 352.696 414.161 349.707C423.025 346.719 431.129 344.06 437.017 342.287C439.967 341.388 442.348 340.704 444.02 340.248L445.932 339.754C446.154 339.684 446.383 339.637 446.615 339.615Z" fill="#263238"/>
<path d="M420.226 32.4546L413.705 34.7846L410.906 26.2626C405.765 10.5481 389.38 2.20332 374.324 7.50902C359.268 12.8147 351.252 30.0487 356.393 45.7632L359.192 54.2852L352.645 56.6278C350.149 57.5961 348.121 59.4891 346.985 61.9134C345.848 64.3377 345.689 67.1068 346.542 69.6452L364.687 125.095C365.064 126.352 365.689 127.52 366.526 128.53C367.363 129.54 368.395 130.372 369.559 130.975C370.724 131.579 371.998 131.942 373.306 132.044C374.614 132.145 375.929 131.983 377.173 131.566L444.754 107.393C447.283 106.426 449.339 104.516 450.489 102.065C451.639 99.6137 451.794 96.8119 450.921 94.2489L432.762 38.7987C432.376 37.5456 431.741 36.3833 430.895 35.381C430.05 34.3787 429.011 33.557 427.841 32.9649C426.671 32.3728 425.394 32.0225 424.086 31.9348C422.777 31.8471 421.465 32.0239 420.226 32.4546ZM368.714 41.3186C367.328 37.2326 367.577 32.7687 369.408 28.862C371.24 24.9554 374.513 21.9092 378.54 20.3617C380.529 19.6813 382.635 19.4084 384.731 19.5594C386.828 19.7104 388.872 20.2822 390.743 21.2406C392.614 22.199 394.273 23.5245 395.62 25.1379C396.967 26.7513 397.976 28.6195 398.585 30.6312L401.371 39.1532L371.5 49.8406L368.714 41.3186ZM406.702 90.526L411.337 104.683C411.422 104.967 411.395 105.273 411.26 105.537C411.126 105.801 410.895 106.003 410.615 106.101L404.119 108.418C403.861 108.49 403.584 108.459 403.348 108.332C403.112 108.204 402.935 107.99 402.853 107.735L398.18 93.6411C395.604 93.5007 393.132 92.5766 391.095 90.9924C389.058 89.4083 387.554 87.2398 386.784 84.7771C385.682 81.5215 385.883 77.966 387.344 74.8551C388.805 71.7442 391.413 69.3191 394.622 68.0876C396.206 67.5463 397.883 67.3295 399.553 67.4501C401.223 67.5708 402.852 68.0263 404.342 68.7896C405.832 69.553 407.153 70.6085 408.226 71.8933C409.3 73.178 410.103 74.6657 410.59 76.2678C411.404 78.7693 411.472 81.4543 410.784 83.9935C410.095 86.5328 408.681 88.8162 406.715 90.564L406.702 90.526Z" fill="#0039CA"/>
<path d="M413.414 34.6326C413.414 34.8098 401.321 39.3558 386.277 44.7628C371.234 50.1698 358.964 54.5131 358.901 54.3865C358.837 54.2598 370.993 49.6759 386.049 44.2562C401.105 38.8366 413.35 34.4679 413.414 34.6326Z" fill="#263238"/>
<path d="M427.773 36.9626C427.829 37.0725 427.876 37.1869 427.912 37.3045C428.014 37.5578 428.128 37.887 428.28 38.2922C428.609 39.2166 429.065 40.4956 429.635 42.0911L434.497 56.248C436.523 62.2502 438.942 69.3666 441.626 77.2682C442.893 81.2316 444.387 85.3597 445.78 89.703C446.525 91.9412 446.847 94.2987 446.729 96.6549C446.622 97.8802 446.273 99.0723 445.704 100.162C445.095 101.249 444.282 102.208 443.31 102.986C441.354 104.414 439.183 105.521 436.878 106.266L430.356 108.609L418.01 113.028L397.104 120.474L382.985 125.437L379.186 126.704L378.173 127.033C378.065 127.081 377.949 127.111 377.831 127.121C377.831 127.121 377.933 127.121 378.148 126.97L379.136 126.577L382.934 125.146L396.977 119.98L417.846 112.382L430.166 107.925L436.688 105.569C438.927 104.855 441.036 103.782 442.931 102.391C443.835 101.669 444.592 100.779 445.159 99.7699C445.695 98.7617 446.019 97.654 446.109 96.5156C446.225 94.2454 445.916 91.9734 445.197 89.817C443.83 85.5116 442.386 81.3456 441.082 77.3822C438.448 69.4679 436.017 62.3261 434.092 56.324C432.167 50.3218 430.546 45.4973 429.432 42.1037C428.9 40.4449 428.495 39.1533 428.166 38.2163L427.862 37.2032C427.824 37.1265 427.794 37.0458 427.773 36.9626Z" fill="#263238"/>
<path d="M392.115 19.5006C392.115 19.5006 391.444 19.1714 390.203 18.6649C388.434 17.9853 386.563 17.6085 384.669 17.5506C381.862 17.4543 379.068 17.9819 376.489 19.0954C373.353 20.482 370.671 22.7247 368.752 25.5661C366.82 28.3994 365.783 31.7477 365.776 35.1771C365.803 37.9879 366.229 40.7806 367.043 43.4712C367.701 45.7759 368.385 47.612 368.841 48.8909C369.11 49.5405 369.33 50.2093 369.499 50.8916C369.14 50.2842 368.838 49.644 368.6 48.9795C368.081 47.7133 367.334 45.9152 366.599 43.5979C365.698 40.879 365.207 38.0408 365.143 35.1771C365.109 31.6182 366.17 28.1348 368.182 25.1989C370.169 22.2537 372.96 19.9416 376.223 18.5383C378.883 17.4187 381.763 16.9248 384.644 17.0947C386.579 17.1933 388.48 17.6439 390.253 18.4243C390.728 18.6431 391.185 18.897 391.621 19.1841C391.801 19.2632 391.968 19.37 392.115 19.5006Z" fill="#263238"/>
<path d="M392.697 69.0501C392.9 68.9276 393.111 68.8217 393.331 68.7335C393.964 68.4475 394.621 68.2145 395.293 68.0371C396.361 67.722 397.462 67.535 398.573 67.4799C400.085 67.3986 401.597 67.627 403.018 68.151C406.259 69.2907 409.235 72.5956 410.704 77.015C411.408 79.3866 411.408 81.9118 410.704 84.2834C409.923 86.8574 408.523 89.2008 406.626 91.1086L406.702 90.7667C408.387 95.3886 410.223 100.403 412.122 105.633L412.236 105.949L411.92 106.063L409.02 107.026L402.688 109.14L402.372 109.242L402.27 108.925C400.536 103.683 398.636 98.7949 397.205 93.9957L397.484 94.211C395.008 94.0053 392.648 93.0762 390.697 91.5391C388.931 90.1793 387.484 88.4508 386.455 86.474C385.526 84.721 385.064 82.7588 385.112 80.7758C385.171 78.749 385.677 76.7603 386.594 74.9521C387.512 73.1438 388.817 71.5608 390.418 70.3164C391.077 69.7815 391.816 69.3541 392.609 69.0501C391.894 69.4745 391.2 69.9351 390.532 70.4303C388.774 71.918 387.426 73.832 386.619 75.9893C385.927 77.616 385.602 79.3759 385.67 81.1427C385.738 82.9095 386.196 84.6393 387.012 86.2081C388.024 88.1098 389.436 89.7689 391.153 91.0706C393.014 92.5316 395.265 93.4124 397.623 93.6032H397.838L397.902 93.7931C399.295 98.5036 401.207 103.429 402.967 108.697L402.549 108.495L408.88 106.38L411.768 105.405L411.565 105.835C409.678 100.606 407.855 95.5785 406.183 90.9566V90.7667L406.335 90.6147C408.176 88.7861 409.549 86.5404 410.337 84.0681C411.008 81.7995 411.008 79.3849 410.337 77.1162C408.956 72.8616 406.107 69.6326 403.018 68.4929C401.65 67.9655 400.19 67.72 398.725 67.7711C397.631 67.7962 396.544 67.9449 395.483 68.2143C393.596 68.6829 392.71 69.1134 392.697 69.0501Z" fill="#263238"/>
<path d="M353.557 434.674L227.069 434.092C219.764 434.052 212.774 431.114 207.634 425.924C202.493 420.734 199.623 413.716 199.654 406.411L200.996 89.3231C201.011 85.7042 201.739 82.1237 203.138 78.7862C204.538 75.4488 206.581 72.4199 209.152 69.8727C211.723 67.3255 214.77 65.3099 218.121 63.9411C221.471 62.5724 225.058 61.8773 228.677 61.8956L355.152 62.4781C362.457 62.515 369.448 65.4495 374.591 70.6372C379.733 75.8249 382.607 82.8416 382.58 90.1462L381.238 407.222C381.223 410.842 380.495 414.423 379.096 417.762C377.696 421.101 375.653 424.132 373.083 426.681C370.512 429.23 367.465 431.248 364.115 432.62C360.765 433.991 357.177 434.689 353.557 434.674Z" fill="#455A64"/>
<path d="M354.962 73.3806H330.447C329.647 73.3954 328.858 73.5677 328.125 73.8875C327.392 74.2074 326.728 74.6686 326.173 75.2448C325.618 75.821 325.182 76.5009 324.89 77.2456C324.598 77.9904 324.455 78.7854 324.47 79.5853V84.03C324.485 84.8292 324.343 85.6236 324.05 86.3677C323.758 87.1117 323.322 87.7908 322.767 88.3659C322.211 88.9411 321.548 89.4011 320.815 89.7196C320.082 90.0381 319.293 90.2089 318.494 90.222L270.704 90.0068C269.088 89.9637 267.554 89.2807 266.441 88.1078C265.327 86.935 264.725 85.3681 264.765 83.7514V79.3067C264.806 77.6921 264.206 76.1272 263.095 74.9547C261.984 73.7822 260.454 73.0977 258.839 73.0513H250.216L228.753 72.95C223.647 72.9197 218.738 74.9134 215.1 78.4947C211.462 82.0761 209.391 86.9532 209.341 92.0581L208.074 401.561C208.063 404.094 208.55 406.604 209.508 408.948C210.467 411.292 211.878 413.425 213.66 415.224C215.443 417.023 217.562 418.453 219.898 419.433C222.233 420.413 224.738 420.924 227.271 420.935L353.493 421.518C356.028 421.529 358.539 421.042 360.885 420.083C363.231 419.124 365.365 417.712 367.165 415.928C368.965 414.144 370.397 412.024 371.377 409.687C372.358 407.35 372.868 404.843 372.88 402.308L374.146 92.8052C374.177 87.6859 372.173 82.764 368.576 79.1215C364.978 75.479 360.082 73.4141 354.962 73.3806Z" fill="white"/>
<path d="M337.982 380.225L244.125 379.82C243.15 379.82 242.365 378.756 242.378 377.464L242.479 352.911C242.479 351.645 243.277 350.556 244.252 350.556L338.108 350.986C338.649 351.08 339.132 351.378 339.457 351.819C339.783 352.261 339.926 352.811 339.856 353.354L339.767 377.882C339.767 379.186 338.957 380.237 337.982 380.225Z" fill="#0039CA"/>
<path d="M271.745 364.893C271.382 364.893 271.033 364.835 270.698 364.718C270.368 364.597 270.112 364.444 269.931 364.258L270.133 363.86C270.305 364.027 270.535 364.169 270.824 364.286C271.117 364.397 271.424 364.453 271.745 364.453C272.052 364.453 272.301 364.416 272.492 364.341C272.687 364.262 272.829 364.158 272.917 364.027C273.01 363.897 273.057 363.753 273.057 363.595C273.057 363.404 273.001 363.251 272.889 363.134C272.782 363.018 272.64 362.927 272.464 362.862C272.287 362.792 272.092 362.732 271.878 362.681C271.664 362.629 271.45 362.576 271.236 362.52C271.022 362.46 270.824 362.381 270.642 362.283C270.466 362.185 270.321 362.057 270.21 361.899C270.103 361.736 270.049 361.525 270.049 361.264C270.049 361.022 270.112 360.801 270.238 360.601C270.368 360.397 270.566 360.234 270.831 360.113C271.096 359.987 271.436 359.924 271.85 359.924C272.124 359.924 272.396 359.964 272.666 360.043C272.936 360.117 273.169 360.222 273.364 360.357L273.189 360.769C272.98 360.629 272.757 360.527 272.52 360.462C272.287 360.397 272.061 360.364 271.843 360.364C271.55 360.364 271.308 360.403 271.117 360.483C270.926 360.562 270.784 360.669 270.691 360.804C270.603 360.934 270.559 361.083 270.559 361.25C270.559 361.441 270.612 361.594 270.719 361.711C270.831 361.827 270.975 361.918 271.152 361.983C271.333 362.048 271.531 362.106 271.745 362.157C271.959 362.208 272.171 362.264 272.38 362.325C272.594 362.385 272.789 362.464 272.966 362.562C273.148 362.655 273.292 362.781 273.399 362.939C273.51 363.097 273.566 363.304 273.566 363.56C273.566 363.797 273.501 364.018 273.371 364.223C273.241 364.423 273.041 364.586 272.771 364.711C272.506 364.832 272.164 364.893 271.745 364.893ZM274.691 364.851V359.966H275.208V364.851H274.691ZM276.797 364.851V359.966H277.223L280.593 364.209H280.37V359.966H280.879V364.851H280.454L277.09 360.608H277.313V364.851H276.797ZM284.616 364.893C284.244 364.893 283.899 364.832 283.583 364.711C283.271 364.586 282.999 364.411 282.767 364.188C282.539 363.965 282.36 363.702 282.229 363.399C282.104 363.097 282.041 362.767 282.041 362.409C282.041 362.05 282.104 361.72 282.229 361.418C282.36 361.115 282.541 360.852 282.774 360.629C283.006 360.406 283.278 360.234 283.59 360.113C283.906 359.987 284.251 359.924 284.623 359.924C284.995 359.924 285.335 359.982 285.642 360.099C285.953 360.215 286.218 360.392 286.437 360.629L286.116 360.957C285.911 360.752 285.686 360.606 285.439 360.517C285.193 360.429 284.927 360.385 284.644 360.385C284.341 360.385 284.062 360.436 283.806 360.538C283.555 360.636 283.334 360.778 283.143 360.964C282.957 361.145 282.811 361.359 282.704 361.606C282.601 361.848 282.55 362.115 282.55 362.409C282.55 362.697 282.601 362.964 282.704 363.211C282.811 363.458 282.957 363.674 283.143 363.86C283.334 364.041 283.555 364.183 283.806 364.286C284.062 364.383 284.339 364.432 284.637 364.432C284.916 364.432 285.179 364.39 285.425 364.307C285.676 364.223 285.907 364.081 286.116 363.881L286.409 364.272C286.177 364.476 285.904 364.632 285.593 364.739C285.281 364.842 284.955 364.893 284.616 364.893ZM285.914 364.209V362.409H286.409V364.272L285.914 364.209ZM291.665 364.893C291.041 364.893 290.551 364.714 290.192 364.355C289.834 363.997 289.655 363.467 289.655 362.764V359.966H290.171V362.743C290.171 363.32 290.302 363.746 290.562 364.02C290.823 364.295 291.19 364.432 291.665 364.432C292.144 364.432 292.514 364.295 292.774 364.02C293.035 363.746 293.165 363.32 293.165 362.743V359.966H293.667V362.764C293.667 363.467 293.488 363.997 293.13 364.355C292.777 364.714 292.288 364.893 291.665 364.893ZM295.223 364.851V359.966H297.052C297.466 359.966 297.822 360.034 298.119 360.169C298.417 360.299 298.645 360.49 298.803 360.741C298.966 360.987 299.047 361.287 299.047 361.641C299.047 361.985 298.966 362.283 298.803 362.534C298.645 362.781 298.417 362.971 298.119 363.106C297.822 363.241 297.466 363.309 297.052 363.309H295.51L295.74 363.064V364.851H295.223ZM295.74 363.106L295.51 362.855H297.038C297.526 362.855 297.896 362.75 298.147 362.541C298.403 362.327 298.531 362.027 298.531 361.641C298.531 361.25 298.403 360.948 298.147 360.734C297.896 360.52 297.526 360.413 297.038 360.413H295.51L295.74 360.169V363.106Z" fill="#E8E8E3"/>
<path d="M262.846 164.363L230.278 164.215L230.251 170.192L262.819 170.34L262.846 164.363Z" fill="#0039CA"/>
<path opacity="0.1" d="M262.846 164.363L230.278 164.215L230.251 170.192L262.819 170.34L262.846 164.363Z" fill="black"/>
<path d="M358.318 201.059C358.574 201.033 358.825 200.974 359.065 200.882C359.416 200.745 359.72 200.512 359.944 200.209C360.168 199.907 360.302 199.548 360.331 199.173C360.331 197.159 360.331 194.221 360.331 190.448C360.331 188.561 360.331 186.446 360.331 184.116C360.331 183.547 360.331 182.952 360.331 182.356C360.414 181.779 360.288 181.191 359.977 180.698C359.802 180.461 359.576 180.268 359.314 180.134C359.053 180 358.764 179.929 358.47 179.925H356.495H338.197L232.286 179.533C232.015 179.528 231.746 179.589 231.504 179.71C231.261 179.831 231.052 180.009 230.893 180.229C230.587 180.724 230.47 181.313 230.563 181.888C230.563 183.154 230.563 184.42 230.563 185.687C230.563 188.219 230.563 190.752 230.563 193.284C230.563 194.551 230.563 195.817 230.563 197.083C230.511 197.673 230.511 198.266 230.563 198.856C230.63 199.109 230.754 199.343 230.925 199.541C231.096 199.738 231.31 199.894 231.551 199.996C231.801 200.095 232.068 200.142 232.336 200.135H238.782L266.906 200.287L314.518 200.578L346.618 200.831L355.342 200.933H357.609C358.128 200.933 358.381 200.933 358.381 200.933H357.609H355.342H346.618H314.518L266.906 200.781L238.782 200.667H232.336C231.982 200.681 231.628 200.621 231.298 200.489C230.964 200.347 230.668 200.131 230.431 199.856C230.194 199.582 230.023 199.257 229.93 198.907C229.857 198.574 229.831 198.233 229.854 197.894V196.957C229.854 195.69 229.854 194.424 229.854 193.158C229.854 190.625 229.854 188.093 229.854 185.56C229.854 184.294 229.854 183.027 229.854 181.761C229.83 181.424 229.83 181.085 229.854 180.748C229.902 180.376 230.046 180.022 230.272 179.723C230.491 179.417 230.78 179.169 231.115 178.999C231.45 178.829 231.821 178.743 232.197 178.747L338.108 179.33L356.406 179.457H358.381C358.729 179.457 359.072 179.541 359.381 179.702C359.689 179.863 359.955 180.096 360.154 180.381C360.511 180.932 360.655 181.593 360.559 182.242C360.559 182.838 360.559 183.433 360.559 184.003C360.559 186.307 360.559 188.422 360.559 190.334C360.559 194.133 360.471 197.045 360.445 199.071C360.414 199.461 360.273 199.833 360.037 200.145C359.802 200.457 359.482 200.695 359.116 200.831C358.876 200.98 358.6 201.059 358.318 201.059Z" fill="#E0E0E0"/>
<path d="M299.626 185.889H240.061V191.474H299.626V185.889Z" fill="#0039CA"/>
<path opacity="0.2" d="M299.626 185.889H240.061V191.474H299.626V185.889Z" fill="white"/>
<path d="M262.624 218.887L230.056 218.739L230.029 224.716L262.597 224.864L262.624 218.887Z" fill="#0039CA"/>
<path opacity="0.1" d="M262.624 218.887L230.056 218.739L230.029 224.716L262.597 224.864L262.624 218.887Z" fill="black"/>
<path d="M357.495 255.585C357.751 255.554 358.004 255.507 358.255 255.446C358.608 255.333 358.934 255.146 359.209 254.897C359.484 254.648 359.703 254.343 359.85 254.002C360.05 253.491 360.128 252.941 360.078 252.394C360.078 251.786 360.078 251.128 360.078 250.393C360.078 248.924 360.078 247.253 360.078 245.328V237.287C360.139 236.705 360.01 236.119 359.711 235.616C359.399 235.1 358.907 234.717 358.331 234.54C357.7 234.427 357.058 234.393 356.419 234.438H338.197L232.653 234.046C232.085 234.047 231.537 234.255 231.111 234.63C230.685 235.004 230.409 235.522 230.336 236.084C230.336 237.287 230.336 238.617 230.336 239.883C230.336 242.416 230.336 244.948 230.336 247.481C230.336 248.747 230.336 250.013 230.336 251.28C230.288 251.872 230.314 252.467 230.411 253.053C230.57 253.566 230.895 254.012 231.336 254.319C231.804 254.616 232.353 254.757 232.906 254.724H234.666H238.326L266.348 254.863L313.796 255.155L345.782 255.408L354.481 255.509H345.782H313.796L266.323 255.458L238.3 255.357H232.792C232.107 255.398 231.428 255.216 230.855 254.838C230.278 254.439 229.858 253.853 229.664 253.179C229.551 252.536 229.517 251.881 229.563 251.229C229.563 249.963 229.563 248.697 229.563 247.43C229.563 244.898 229.563 242.365 229.563 239.833C229.563 238.566 229.563 237.3 229.563 236.034C229.655 235.31 230.009 234.644 230.556 234.162C231.104 233.679 231.809 233.413 232.539 233.413L338.083 233.995L356.305 234.134C356.983 234.093 357.664 234.14 358.331 234.274C358.989 234.489 359.543 234.94 359.888 235.54C360.216 236.098 360.358 236.745 360.293 237.389C360.293 237.984 360.293 238.566 360.293 239.149C360.293 241.441 360.293 243.543 360.293 245.48C360.293 247.418 360.293 249.051 360.293 250.545C360.293 251.267 360.293 251.938 360.293 252.559C360.339 253.125 360.248 253.694 360.027 254.217C359.863 254.567 359.625 254.877 359.33 255.126C359.035 255.375 358.69 255.558 358.318 255.661C358.041 255.684 357.763 255.658 357.495 255.585Z" fill="#E0E0E0"/>
<path d="M262.378 275.779L229.81 275.631L229.783 281.608L262.351 281.756L262.378 275.779Z" fill="#0039CA"/>
<path opacity="0.1" d="M262.378 275.779L229.81 275.631L229.783 281.608L262.351 281.756L262.378 275.779Z" fill="black"/>
<path d="M357.242 312.454C357.498 312.423 357.751 312.377 358.001 312.314C358.354 312.202 358.678 312.017 358.953 311.77C359.228 311.524 359.448 311.221 359.597 310.883C359.795 310.372 359.873 309.822 359.825 309.275C359.825 308.655 359.825 308.009 359.825 307.262C359.825 305.806 359.825 304.121 359.825 302.197V294.156C359.885 293.574 359.757 292.988 359.458 292.484C359.138 291.978 358.649 291.601 358.077 291.421C357.447 291.304 356.805 291.265 356.165 291.307H337.944L232.4 290.914C231.832 290.916 231.284 291.123 230.858 291.498C230.432 291.873 230.156 292.39 230.082 292.953C230.082 294.219 230.082 295.485 230.082 296.752C230.082 299.284 230.082 301.817 230.082 304.349C230.082 305.616 230.082 306.882 230.082 308.148C230.035 308.736 230.061 309.327 230.158 309.908C230.31 310.425 230.637 310.873 231.083 311.175C231.548 311.478 232.099 311.62 232.653 311.58H238.161L266.184 311.732L313.631 312.023L345.617 312.276L354.317 312.378H345.617H313.631L266.184 312.238L238.161 312.124H232.653C231.967 312.171 231.286 311.988 230.715 311.605C230.139 311.206 229.719 310.62 229.525 309.946C229.412 309.303 229.378 308.648 229.424 307.996C229.424 306.73 229.424 305.464 229.424 304.197C229.424 301.665 229.424 299.132 229.424 296.6C229.424 295.334 229.424 294.067 229.424 292.738C229.513 292.015 229.864 291.349 230.41 290.867C230.955 290.384 231.658 290.117 232.387 290.116L337.931 290.699L356.153 290.838C356.831 290.797 357.512 290.843 358.179 290.978C358.837 291.192 359.392 291.644 359.736 292.244C360.064 292.802 360.206 293.449 360.141 294.093C360.141 294.688 360.141 295.283 360.141 295.853C360.141 298.145 360.141 300.247 360.141 302.184C360.141 304.121 360.141 305.755 360.141 307.249C360.141 307.971 360.141 308.642 360.141 309.263C360.19 309.829 360.099 310.399 359.876 310.921C359.711 311.271 359.473 311.581 359.178 311.83C358.883 312.079 358.538 312.261 358.166 312.365C357.869 312.467 357.552 312.497 357.242 312.454Z" fill="#E0E0E0"/>
<path d="M298.355 241.994L238.79 241.723L238.764 247.308L298.329 247.578L298.355 241.994Z" fill="#0039CA"/>
<path opacity="0.2" d="M298.355 241.994L238.79 241.723L238.764 247.308L298.329 247.578L298.355 241.994Z" fill="white"/>
<path d="M244.176 302.121C244.139 302.63 243.952 303.117 243.641 303.522C243.329 303.926 242.905 304.231 242.422 304.397C241.94 304.563 241.418 304.583 240.924 304.456C240.429 304.329 239.983 304.059 239.64 303.68C239.298 303.301 239.074 302.831 238.996 302.326C238.919 301.821 238.991 301.304 239.204 300.84C239.417 300.376 239.762 299.985 240.196 299.715C240.63 299.445 241.133 299.309 241.643 299.322C242.349 299.362 243.01 299.677 243.484 300.201C243.959 300.725 244.207 301.415 244.176 302.121Z" fill="#0039CA"/>
<path d="M252.242 302.159C252.267 302.516 252.218 302.874 252.099 303.211C251.979 303.549 251.792 303.858 251.548 304.12C251.303 304.381 251.008 304.59 250.68 304.733C250.352 304.875 249.998 304.949 249.64 304.949C249.282 304.949 248.928 304.875 248.6 304.733C248.272 304.59 247.976 304.381 247.732 304.12C247.488 303.858 247.301 303.549 247.181 303.211C247.062 302.874 247.013 302.516 247.038 302.159C247.013 301.802 247.062 301.444 247.181 301.106C247.301 300.769 247.488 300.46 247.732 300.198C247.976 299.936 248.272 299.728 248.6 299.585C248.928 299.442 249.282 299.369 249.64 299.369C249.998 299.369 250.352 299.442 250.68 299.585C251.008 299.728 251.303 299.936 251.548 300.198C251.792 300.46 251.979 300.769 252.099 301.106C252.218 301.444 252.267 301.802 252.242 302.159Z" fill="#0039CA"/>
<path d="M260.321 302.197C260.284 302.706 260.097 303.193 259.786 303.598C259.474 304.002 259.05 304.306 258.568 304.473C258.085 304.639 257.563 304.659 257.069 304.532C256.574 304.405 256.128 304.135 255.785 303.756C255.443 303.377 255.219 302.906 255.141 302.402C255.064 301.897 255.136 301.38 255.349 300.916C255.563 300.452 255.907 300.061 256.341 299.791C256.775 299.521 257.278 299.385 257.788 299.398C258.493 299.441 259.152 299.757 259.626 300.281C260.099 300.804 260.349 301.492 260.321 302.197Z" fill="#0039CA"/>
<path d="M268.387 302.235C268.35 302.744 268.164 303.231 267.852 303.636C267.54 304.04 267.117 304.345 266.634 304.511C266.151 304.677 265.63 304.697 265.135 304.57C264.64 304.443 264.194 304.173 263.851 303.794C263.509 303.415 263.285 302.945 263.207 302.44C263.13 301.935 263.202 301.418 263.415 300.954C263.629 300.49 263.974 300.099 264.407 299.829C264.841 299.559 265.344 299.423 265.855 299.436C266.559 299.479 267.218 299.796 267.692 300.319C268.165 300.842 268.415 301.53 268.387 302.235Z" fill="#0039CA"/>
<path d="M276.453 302.26C276.418 302.77 276.234 303.259 275.924 303.665C275.614 304.071 275.191 304.377 274.708 304.545C274.225 304.713 273.703 304.736 273.208 304.61C272.712 304.484 272.265 304.215 271.921 303.836C271.577 303.458 271.352 302.987 271.273 302.482C271.195 301.976 271.267 301.459 271.48 300.995C271.693 300.53 272.038 300.138 272.472 299.868C272.906 299.597 273.41 299.46 273.921 299.474C274.623 299.517 275.28 299.832 275.753 300.352C276.227 300.872 276.478 301.557 276.453 302.26Z" fill="#0039CA"/>
<path d="M284.532 302.298C284.498 302.805 284.315 303.292 284.008 303.697C283.701 304.102 283.281 304.409 282.802 304.579C282.323 304.749 281.804 304.775 281.31 304.654C280.816 304.534 280.368 304.271 280.021 303.899C279.674 303.527 279.444 303.061 279.358 302.56C279.273 302.059 279.335 301.543 279.539 301.077C279.742 300.611 280.078 300.214 280.504 299.936C280.93 299.658 281.428 299.511 281.936 299.512C282.649 299.538 283.323 299.846 283.81 300.369C284.296 300.891 284.556 301.584 284.532 302.298Z" fill="#0039CA"/>
<path d="M292.598 302.336C292.623 302.693 292.574 303.051 292.455 303.389C292.335 303.726 292.148 304.035 291.904 304.297C291.66 304.559 291.364 304.767 291.036 304.91C290.708 305.053 290.354 305.126 289.996 305.126C289.638 305.126 289.284 305.053 288.956 304.91C288.628 304.767 288.333 304.559 288.088 304.297C287.844 304.035 287.657 303.726 287.537 303.389C287.418 303.051 287.369 302.693 287.394 302.336C287.369 301.979 287.418 301.621 287.537 301.283C287.657 300.946 287.844 300.637 288.088 300.375C288.333 300.114 288.628 299.905 288.956 299.762C289.284 299.62 289.638 299.546 289.996 299.546C290.354 299.546 290.708 299.62 291.036 299.762C291.364 299.905 291.66 300.114 291.904 300.375C292.148 300.637 292.335 300.946 292.455 301.283C292.574 301.621 292.623 301.979 292.598 302.336Z" fill="#0039CA"/>
<path d="M300.664 302.374C300.63 302.881 300.448 303.368 300.14 303.773C299.833 304.178 299.414 304.485 298.934 304.655C298.455 304.825 297.936 304.851 297.442 304.731C296.948 304.61 296.5 304.347 296.153 303.975C295.807 303.603 295.576 303.137 295.491 302.636C295.405 302.135 295.468 301.619 295.671 301.153C295.875 300.687 296.21 300.29 296.636 300.012C297.062 299.734 297.56 299.587 298.069 299.588C298.782 299.615 299.455 299.923 299.942 300.445C300.429 300.967 300.688 301.661 300.664 302.374Z" fill="#0039CA"/>
<path d="M308.731 302.412C308.696 302.922 308.512 303.411 308.201 303.817C307.891 304.223 307.468 304.53 306.985 304.698C306.502 304.865 305.981 304.888 305.485 304.762C304.99 304.636 304.542 304.367 304.198 303.988C303.854 303.61 303.629 303.139 303.551 302.634C303.472 302.129 303.544 301.611 303.757 301.147C303.97 300.682 304.315 300.29 304.749 300.02C305.183 299.749 305.687 299.612 306.198 299.626C306.9 299.669 307.558 299.984 308.031 300.504C308.504 301.024 308.755 301.709 308.731 302.412Z" fill="#0039CA"/>
<g opacity="0.2">
<path d="M244.176 302.121C244.139 302.63 243.952 303.117 243.641 303.522C243.329 303.926 242.905 304.231 242.422 304.397C241.94 304.563 241.418 304.583 240.924 304.456C240.429 304.329 239.983 304.059 239.64 303.68C239.298 303.301 239.074 302.831 238.996 302.326C238.919 301.821 238.991 301.304 239.204 300.84C239.417 300.376 239.762 299.985 240.196 299.715C240.63 299.445 241.133 299.309 241.643 299.322C242.349 299.362 243.01 299.677 243.484 300.201C243.959 300.725 244.207 301.415 244.176 302.121Z" fill="white"/>
<path d="M252.242 302.159C252.267 302.516 252.218 302.874 252.099 303.211C251.979 303.549 251.792 303.858 251.548 304.12C251.303 304.381 251.008 304.59 250.68 304.733C250.352 304.875 249.998 304.949 249.64 304.949C249.282 304.949 248.928 304.875 248.6 304.733C248.272 304.59 247.976 304.381 247.732 304.12C247.488 303.858 247.301 303.549 247.181 303.211C247.062 302.874 247.013 302.516 247.038 302.159C247.013 301.802 247.062 301.444 247.181 301.106C247.301 300.769 247.488 300.46 247.732 300.198C247.976 299.936 248.272 299.728 248.6 299.585C248.928 299.442 249.282 299.369 249.64 299.369C249.998 299.369 250.352 299.442 250.68 299.585C251.008 299.728 251.303 299.936 251.548 300.198C251.792 300.46 251.979 300.769 252.099 301.106C252.218 301.444 252.267 301.802 252.242 302.159Z" fill="white"/>
<path d="M260.321 302.197C260.284 302.706 260.097 303.193 259.786 303.598C259.474 304.002 259.05 304.306 258.568 304.473C258.085 304.639 257.563 304.659 257.069 304.532C256.574 304.405 256.128 304.135 255.785 303.756C255.443 303.377 255.219 302.906 255.141 302.402C255.064 301.897 255.136 301.38 255.349 300.916C255.563 300.452 255.907 300.061 256.341 299.791C256.775 299.521 257.278 299.385 257.788 299.398C258.493 299.441 259.152 299.757 259.626 300.281C260.099 300.804 260.349 301.492 260.321 302.197Z" fill="white"/>
<path d="M268.387 302.235C268.35 302.744 268.164 303.231 267.852 303.636C267.54 304.04 267.117 304.345 266.634 304.511C266.151 304.677 265.63 304.697 265.135 304.57C264.64 304.443 264.194 304.173 263.851 303.794C263.509 303.415 263.285 302.945 263.207 302.44C263.13 301.935 263.202 301.418 263.415 300.954C263.629 300.49 263.974 300.099 264.407 299.829C264.841 299.559 265.344 299.423 265.855 299.436C266.559 299.479 267.218 299.796 267.692 300.319C268.165 300.842 268.415 301.53 268.387 302.235Z" fill="white"/>
<path d="M276.453 302.26C276.418 302.77 276.234 303.259 275.924 303.665C275.614 304.071 275.191 304.377 274.708 304.545C274.225 304.713 273.703 304.736 273.208 304.61C272.712 304.484 272.265 304.215 271.921 303.836C271.577 303.458 271.352 302.987 271.273 302.482C271.195 301.976 271.267 301.459 271.48 300.995C271.693 300.53 272.038 300.138 272.472 299.868C272.906 299.597 273.41 299.46 273.921 299.474C274.623 299.517 275.28 299.832 275.754 300.352C276.227 300.872 276.478 301.557 276.453 302.26Z" fill="white"/>
<path d="M284.532 302.298C284.498 302.805 284.315 303.292 284.008 303.697C283.701 304.102 283.282 304.409 282.802 304.579C282.323 304.749 281.804 304.775 281.31 304.654C280.816 304.534 280.368 304.271 280.021 303.899C279.675 303.527 279.444 303.061 279.358 302.56C279.273 302.059 279.336 301.543 279.539 301.077C279.743 300.611 280.078 300.214 280.504 299.936C280.93 299.658 281.428 299.511 281.936 299.512C282.65 299.538 283.323 299.846 283.81 300.369C284.296 300.891 284.556 301.584 284.532 302.298Z" fill="white"/>
<path d="M292.598 302.336C292.623 302.693 292.574 303.051 292.455 303.389C292.335 303.726 292.148 304.035 291.904 304.297C291.66 304.559 291.364 304.767 291.036 304.91C290.708 305.053 290.354 305.126 289.996 305.126C289.638 305.126 289.284 305.053 288.956 304.91C288.628 304.767 288.333 304.559 288.088 304.297C287.844 304.035 287.657 303.726 287.537 303.389C287.418 303.051 287.369 302.693 287.394 302.336C287.369 301.979 287.418 301.621 287.537 301.283C287.657 300.946 287.844 300.637 288.088 300.375C288.333 300.114 288.628 299.905 288.956 299.762C289.284 299.62 289.638 299.546 289.996 299.546C290.354 299.546 290.708 299.62 291.036 299.762C291.364 299.905 291.66 300.114 291.904 300.375C292.148 300.637 292.335 300.946 292.455 301.283C292.574 301.621 292.623 301.979 292.598 302.336Z" fill="white"/>
<path d="M300.664 302.374C300.63 302.881 300.448 303.368 300.14 303.773C299.833 304.178 299.414 304.485 298.934 304.655C298.455 304.825 297.936 304.851 297.442 304.731C296.948 304.61 296.5 304.347 296.154 303.975C295.807 303.603 295.576 303.137 295.491 302.636C295.405 302.135 295.468 301.619 295.671 301.153C295.875 300.687 296.21 300.29 296.636 300.012C297.062 299.734 297.56 299.587 298.069 299.588C298.782 299.615 299.456 299.923 299.942 300.445C300.429 300.967 300.688 301.661 300.664 302.374Z" fill="white"/>
<path d="M308.731 302.412C308.696 302.922 308.512 303.411 308.201 303.817C307.891 304.223 307.468 304.53 306.985 304.698C306.502 304.865 305.981 304.888 305.485 304.762C304.99 304.636 304.542 304.367 304.198 303.988C303.854 303.61 303.629 303.139 303.551 302.634C303.472 302.129 303.544 301.611 303.757 301.147C303.97 300.682 304.315 300.29 304.749 300.02C305.183 299.749 305.687 299.612 306.198 299.626C306.9 299.669 307.558 299.984 308.031 300.504C308.504 301.024 308.755 301.709 308.731 302.412Z" fill="white"/>
</g>
<path d="M297.271 119.612C298.151 119.225 298.897 118.588 299.417 117.779C299.937 116.971 300.208 116.028 300.196 115.067C300.229 114.442 300.134 113.817 299.917 113.23C299.701 112.643 299.367 112.106 298.937 111.652C298.506 111.199 297.987 110.837 297.413 110.59C296.838 110.343 296.219 110.216 295.593 110.216C294.967 110.216 294.348 110.343 293.774 110.59C293.199 110.837 292.68 111.199 292.25 111.652C291.819 112.106 291.485 112.643 291.269 113.23C291.052 113.817 290.957 114.442 290.99 115.067C290.971 116.037 291.24 116.992 291.762 117.81C292.285 118.628 293.039 119.273 293.928 119.663C286.837 120.727 287.153 128.426 287.153 128.426L303.919 128.502C303.919 128.502 304.311 120.663 297.271 119.612Z" fill="#0039CA"/>
<path opacity="0.1" d="M297.271 119.612C298.151 119.225 298.897 118.588 299.417 117.779C299.937 116.971 300.208 116.028 300.196 115.067C300.229 114.442 300.134 113.817 299.917 113.23C299.701 112.643 299.367 112.106 298.937 111.652C298.506 111.199 297.987 110.837 297.413 110.59C296.838 110.343 296.219 110.216 295.593 110.216C294.967 110.216 294.348 110.343 293.774 110.59C293.199 110.837 292.68 111.199 292.25 111.652C291.819 112.106 291.485 112.643 291.269 113.23C291.052 113.817 290.957 114.442 290.99 115.067C290.971 116.037 291.24 116.992 291.762 117.81C292.285 118.628 293.039 119.273 293.928 119.663C286.837 120.727 287.153 128.426 287.153 128.426L303.919 128.502C303.919 128.502 304.311 120.663 297.271 119.612Z" fill="black"/>
<path d="M324.514 133.467L264.759 133.196L264.727 140.338L324.482 140.609L324.514 133.467Z" fill="#0039CA"/>
<path opacity="0.2" d="M324.514 133.467L264.759 133.196L264.727 140.338L324.482 140.609L324.514 133.467Z" fill="white"/>
<path d="M104.835 170.479H104.24L102.518 170.605C101.586 170.661 100.659 170.784 99.7445 170.972C99.1523 171.056 98.5647 171.17 97.9844 171.314L96.0217 171.859C92.681 172.884 89.5291 174.445 86.6892 176.481C82.9371 179.204 79.804 182.691 77.4961 186.712C76.1396 189.03 75.06 191.499 74.2797 194.069C73.4598 196.862 72.9877 199.746 72.8742 202.655C72.7987 204.183 72.8241 205.714 72.9501 207.239C72.9501 208.011 73.1654 208.783 73.2667 209.569C73.3519 210.36 73.5001 211.143 73.7099 211.911C74.8486 216.992 77.159 221.737 80.4568 225.767C83.7546 229.797 87.9485 233.001 92.704 235.122C96.1459 236.607 99.835 237.436 103.581 237.566C107.451 237.779 111.324 237.224 114.978 235.932L116.092 235.515H116.244L116.371 235.59L132.338 243.695L131.87 244.1C130.16 238.807 128.514 233.678 126.919 228.753V228.563L127.058 228.423C130.932 224.522 133.807 219.744 135.441 214.494C136.921 209.695 137.352 204.634 136.707 199.654C136.133 195.227 134.71 190.954 132.516 187.067C130.624 183.728 128.184 180.732 125.298 178.203C122.917 176.201 120.281 174.524 117.46 173.214C115.325 172.293 113.102 171.593 110.824 171.124L108.292 170.707L106.456 170.567L105.341 170.491H104.962C105.088 170.477 105.215 170.477 105.341 170.491H106.468L108.305 170.567L110.837 170.934C113.143 171.369 115.396 172.044 117.561 172.948C120.431 174.242 123.114 175.916 125.539 177.924C128.478 180.442 130.97 183.439 132.908 186.788C135.165 190.717 136.632 195.048 137.226 199.54C137.925 204.597 137.523 209.746 136.049 214.634C134.404 219.992 131.484 224.872 127.539 228.854L127.615 228.525C129.211 233.45 130.87 238.579 132.592 243.859L132.832 244.632L132.111 244.264L116.143 236.173H116.421L115.282 236.591C111.558 237.901 107.613 238.469 103.67 238.262C99.8429 238.117 96.0766 237.258 92.5648 235.73C85.8658 232.861 80.2923 227.874 76.6983 221.535C75.0445 218.607 73.8366 215.449 73.1148 212.164C72.9171 211.377 72.7691 210.577 72.6716 209.771C72.5703 208.973 72.4057 208.188 72.3677 207.403C72.025 202.898 72.5012 198.367 73.7732 194.031C74.573 191.426 75.6826 188.926 77.0782 186.586C79.4412 182.528 82.6396 179.019 86.4613 176.291C89.348 174.25 92.5528 172.701 95.9457 171.707L97.9338 171.2C98.5189 171.065 99.1106 170.959 99.7065 170.884C100.63 170.713 101.566 170.611 102.505 170.58L104.24 170.517C104.437 170.49 104.636 170.477 104.835 170.479Z" fill="#0039CA"/>
<path d="M112.053 200.008H109.71L104.645 192.892V188.219C104.645 188.219 101.023 187.991 101.454 194.107C101.885 200.223 101.454 198.666 101.454 198.666C101.454 198.666 93.7677 198.666 93.1346 199.362C92.5014 200.059 92.4634 207.479 92.3748 211.62C92.3263 212.618 92.6127 213.604 93.1885 214.421C93.7644 215.237 94.5967 215.838 95.5532 216.128C95.8213 216.202 96.098 216.24 96.3762 216.242C98.301 216.242 108.089 214.684 108.089 214.684H112.129L112.053 200.008Z" fill="#0039CA"/>
<path d="M118.751 198.755L117.308 214.76H113.306V199.084L118.751 198.755Z" fill="#0039CA"/>
<path d="M166.477 524.605V513.779L147.065 513.639L146.901 530.012L148.104 530.101C153.46 530.443 175.354 530.949 178.95 529.835C182.951 528.594 166.477 524.605 166.477 524.605Z" fill="#0039CA"/>
<path d="M179.406 528.822C179.406 528.999 172.137 529.151 163.185 529.151C154.232 529.151 146.964 528.999 146.964 528.822C146.964 528.645 154.232 528.493 163.185 528.493C172.137 528.493 179.406 528.645 179.406 528.822Z" fill="#263238"/>
<path d="M166.819 526.821C166.654 526.733 166.819 526.163 167.212 525.555C167.604 524.947 168.136 524.694 168.263 524.821C168.389 524.947 168.123 525.428 167.743 525.948C167.364 526.467 166.984 526.91 166.819 526.821Z" fill="#263238"/>
<path d="M168.06 527.53C167.883 527.53 167.971 526.821 168.351 526.15C168.731 525.479 169.238 525.074 169.377 525.175C169.516 525.276 169.288 525.846 168.934 526.441C168.579 527.037 168.225 527.594 168.06 527.53Z" fill="#263238"/>
<path d="M152.814 528.771C152.738 528.771 152.447 528.543 152.029 528.062C151.519 527.444 150.951 526.876 150.332 526.365C149.724 525.88 148.999 525.561 148.23 525.441C147.635 525.365 147.255 525.441 147.217 525.365C147.179 525.289 147.546 525.023 148.243 524.973C149.162 524.953 150.059 525.258 150.775 525.834C151.447 526.381 152.013 527.046 152.447 527.796C152.738 528.353 152.89 528.721 152.814 528.771Z" fill="#263238"/>
<path d="M166.882 524.783C166.971 524.935 166.642 525.315 166.085 525.517C165.528 525.72 165.034 525.644 165.008 525.517C164.983 525.391 165.376 525.125 165.857 524.947C166.338 524.77 166.781 524.631 166.882 524.783Z" fill="#263238"/>
<path d="M166.579 523.732C166.579 523.922 166.072 524.074 165.414 524.086C164.755 524.099 164.236 523.947 164.249 523.77C164.261 523.592 164.78 523.428 165.414 523.415C166.047 523.402 166.553 523.554 166.579 523.732Z" fill="#263238"/>
<path d="M214.279 524.605V513.779L194.867 513.639L194.703 529.848L195.906 529.936C201.262 530.278 223.168 530.949 226.752 529.835C230.753 528.594 214.279 524.605 214.279 524.605Z" fill="#0039CA"/>
<path d="M227.208 528.847C227.208 529.025 219.952 529.177 210.987 529.177C202.022 529.177 194.779 529.025 194.779 528.847C194.779 528.67 202.034 528.518 210.987 528.518C219.939 528.518 227.208 528.67 227.208 528.847Z" fill="#263238"/>
<path d="M214.621 526.821C214.469 526.733 214.621 526.163 215.014 525.555C215.406 524.947 215.938 524.694 216.065 524.821C216.191 524.947 215.925 525.428 215.545 525.948C215.165 526.467 214.786 526.91 214.621 526.821Z" fill="#263238"/>
<path d="M215.862 527.53C215.697 527.53 215.773 526.821 216.166 526.15C216.558 525.479 217.052 525.074 217.192 525.175C217.331 525.276 217.09 525.846 216.736 526.441C216.381 527.037 216.039 527.594 215.862 527.53Z" fill="#263238"/>
<path d="M200.616 528.771C200.54 528.771 200.261 528.543 199.831 528.062C199.321 527.444 198.753 526.876 198.134 526.365C197.526 525.88 196.801 525.561 196.032 525.441C195.45 525.365 195.057 525.441 195.019 525.365C194.981 525.289 195.348 525.023 196.045 524.973C196.964 524.953 197.86 525.258 198.577 525.834C199.252 526.377 199.819 527.043 200.249 527.796C200.54 528.353 200.692 528.721 200.616 528.771Z" fill="#263238"/>
<path d="M214.684 524.783C214.773 524.935 214.444 525.315 213.887 525.517C213.329 525.72 212.836 525.644 212.81 525.517C212.785 525.391 213.177 525.125 213.659 524.947C214.14 524.77 214.583 524.631 214.684 524.783Z" fill="#263238"/>
<path d="M214.406 523.732C214.406 523.922 213.899 524.074 213.241 524.086C212.582 524.099 212.076 523.947 212.088 523.77C212.101 523.592 212.608 523.428 213.241 523.415C213.874 523.402 214.406 523.554 214.406 523.732Z" fill="#263238"/>
<path d="M285.798 203.098C285.292 202.579 284.038 202.832 284.038 202.832C284.164 202.103 284.164 201.358 284.038 200.629C283.81 199.92 282.215 200.059 282.215 200.059C282.141 199.462 282.141 198.858 282.215 198.261C282.228 198.128 282.199 197.995 282.133 197.88C282.068 197.764 281.968 197.672 281.848 197.615C281.093 197.307 280.282 197.161 279.467 197.184C278.492 196.488 282.443 190.954 283.912 189.182C285.381 187.409 285.115 186.029 283.81 186.029C282.911 186.029 278.302 191.347 276.884 193.132C275.466 194.918 271.705 199.882 271.578 195.918C271.452 191.955 269.856 188.966 268.856 188.46C267.855 187.953 266.792 189.144 267.336 190.245C267.815 191.497 268.113 192.81 268.223 194.145C268.36 195.209 268.313 196.289 268.083 197.336C267.663 199.286 267.092 201.2 266.374 203.06H266.272C266.272 203.06 238.642 229.563 236.642 231.45C234.856 233.147 198.945 229.436 191.739 228.677C189.291 228.318 186.819 228.149 184.344 228.17C181.217 228.31 180.66 228.753 177.545 228.791C169.678 228.878 161.829 229.568 154.068 230.855C150.553 231.452 147.271 233.003 144.578 235.339C141.885 237.675 139.885 240.705 138.796 244.1C131.541 266.766 115.104 320.418 112.205 350.556C110.013 354.529 108.035 358.617 106.279 362.801C104.24 368.347 104.734 368.537 105.417 368.663C107.266 369.005 109.368 359.052 110.153 361.458C110.938 363.864 106.165 373.323 108.102 373.602C110.635 373.956 112.648 363.472 112.888 362.636C113.129 361.8 114.383 362.066 114.155 362.851C113.788 363.966 110.229 375.78 112.711 376.16C114.079 376.362 114.231 373.868 114.231 373.868C114.231 373.868 116.763 362.56 117.916 362.788C119.068 363.016 117.84 369.689 117.257 371.918C116.675 374.146 117.485 375.273 118.675 374.729C119.486 374.349 121.423 367.574 121.955 365.371C122.487 363.168 123.816 357.064 125.602 360.597C127.387 364.13 130.097 366.182 131.212 366.232C131.463 366.203 131.699 366.1 131.891 365.935C132.083 365.771 132.221 365.552 132.288 365.309C132.355 365.065 132.347 364.807 132.266 364.567C132.184 364.328 132.033 364.118 131.832 363.966C130.874 363.03 130.051 361.964 129.388 360.8C128.797 359.893 128.369 358.89 128.122 357.837C127.612 355.736 127.315 353.59 127.235 351.429L127.033 350.163C129.869 336.12 138.037 294.903 149.826 268.577L154.663 278.53L156.765 285.9L143.874 317.721L198.856 316.999L190.65 285.419L200.616 252.495C211.392 252.736 239.06 253.141 243.669 251.052C249.469 248.519 279.467 210.632 279.467 210.632C281.422 209.113 283.295 207.49 285.077 205.77C285.077 205.77 286.9 204.238 285.798 203.098Z" fill="#FFBE9D"/>
<path d="M141.456 294.206C143.051 288.761 151.244 261.84 151.244 261.84C151.244 261.84 155.271 283.785 154.207 286.431C153.229 288.697 152.073 290.882 150.75 292.965C141.456 307.11 142.671 314.188 142.671 314.188L198.831 312.479C198.957 304.628 194.31 286.368 193.348 283.456C192.385 280.543 195.589 271.008 195.589 271.008C195.589 271.008 201.92 264.563 201.692 261.245C201.572 258.265 201.204 255.3 200.591 252.381L234.78 253.648L233.704 230.475L184.598 225.562C182.888 230.386 167.427 228.018 167.427 228.018C150.737 228.575 149.699 231.64 142.76 237.034C135.821 242.428 124.336 288.723 124.336 288.723L141.456 294.206Z" fill="#0039CA"/>
<path d="M174.657 288.723C173.684 288.897 172.693 288.948 171.707 288.875C169.871 288.875 167.351 288.749 164.578 288.47C161.805 288.191 159.297 287.799 157.512 287.444C156.528 287.318 155.562 287.071 154.638 286.71C155.628 286.71 156.615 286.804 157.588 286.989C159.386 287.216 161.881 287.533 164.641 287.812C167.402 288.09 169.909 288.28 171.72 288.407C172.707 288.419 173.69 288.525 174.657 288.723Z" fill="#263238"/>
<path d="M178.507 283.95C177.533 284.427 176.504 284.78 175.442 285.001C170.39 286.328 165.178 286.946 159.956 286.837C158.875 286.872 157.795 286.77 156.74 286.533C157.806 286.398 158.881 286.343 159.956 286.368C161.944 286.305 164.679 286.166 167.693 285.811C170.707 285.457 173.391 284.95 175.291 284.545C176.346 284.263 177.421 284.064 178.507 283.95Z" fill="#263238"/>
<path d="M197.4 262.651C197.374 263.616 197.242 264.576 197.007 265.513C196.678 267.273 196.171 269.679 195.526 272.313C194.88 274.946 194.259 277.378 193.702 279.024C193.478 279.966 193.147 280.88 192.714 281.746C192.785 280.784 192.963 279.832 193.246 278.91C193.727 276.934 194.272 274.655 194.88 272.161C195.488 269.666 196.07 267.387 196.551 265.411C196.723 264.461 197.008 263.534 197.4 262.651Z" fill="#263238"/>
<path d="M142.051 290.977C139.121 290.525 136.23 289.852 133.402 288.964C130.512 288.288 127.677 287.4 124.918 286.305C127.846 286.765 130.737 287.438 133.567 288.318C136.457 288.992 139.293 289.88 142.051 290.977Z" fill="#263238"/>
<path d="M201.198 252.103C200.721 252.185 200.233 252.185 199.755 252.103C198.432 251.967 197.134 251.656 195.893 251.179C193.821 250.4 191.936 249.197 190.357 247.647C188.778 246.096 187.541 244.232 186.725 242.175C185.823 239.912 185.438 237.477 185.598 235.046C185.654 233.041 186.254 231.089 187.333 229.399C188.092 228.26 189.225 227.422 190.536 227.031C190.887 226.934 191.249 226.887 191.613 226.891C191.866 226.891 191.993 226.891 191.993 226.891C191.993 226.891 191.461 226.891 190.612 227.233C189.409 227.678 188.389 228.511 187.713 229.601C185.991 232.311 185.509 237.262 187.345 241.884C188.2 244.063 189.538 246.02 191.258 247.608C192.668 248.907 194.292 249.952 196.057 250.697C197.715 251.352 199.439 251.824 201.198 252.103Z" fill="#263238"/>
<path d="M230.715 253.192C230.399 249.309 230.297 245.411 230.411 241.517C230.312 237.626 230.431 233.732 230.766 229.854C231.083 233.733 231.184 237.627 231.07 241.517C231.176 245.412 231.058 249.31 230.715 253.192Z" fill="#263238"/>
<path d="M184.268 226.98C184.408 224.156 184.699 220.965 184.699 220.965C184.699 220.965 191.689 220.193 192.107 212.975C192.524 205.757 192.107 189.106 192.107 189.106L179.444 182.622L165.388 193.677L167.554 229.766L180.444 230.589C181.43 230.616 182.385 230.251 183.102 229.575C183.819 228.898 184.239 227.965 184.268 226.98Z" fill="#FFBE9D"/>
<path d="M185.522 207.264C185.522 207.264 185.522 207.403 185.408 207.568C185.314 207.687 185.192 207.782 185.053 207.844C184.914 207.906 184.762 207.933 184.61 207.922C183.8 207.922 183.015 206.985 182.736 205.896C182.604 205.369 182.604 204.816 182.736 204.288C182.762 204.058 182.845 203.838 182.978 203.647C183.111 203.457 183.289 203.303 183.496 203.199C183.666 203.129 183.857 203.129 184.028 203.199C184.154 203.262 184.256 203.364 184.319 203.49C184.408 203.706 184.319 203.845 184.319 203.832C184.319 203.82 184.319 203.706 184.192 203.579C184.126 203.488 184.029 203.425 183.919 203.402C183.809 203.379 183.695 203.397 183.597 203.453C183.442 203.546 183.313 203.678 183.222 203.835C183.131 203.992 183.082 204.17 183.078 204.352C182.971 204.823 182.971 205.311 183.078 205.782C183.331 206.77 184.015 207.568 184.623 207.644C184.742 207.66 184.863 207.651 184.978 207.619C185.094 207.586 185.201 207.53 185.294 207.454C185.446 207.353 185.497 207.251 185.522 207.264Z" fill="#EB996E"/>
<path d="M196.45 185.205C195.475 181.888 191.942 180.242 188.726 179.33C183.825 177.937 178.532 177.329 173.746 179.089C168.959 180.85 163.21 183.939 163.21 189.22C160.386 188.992 158.766 191.461 157.651 194.525C156.939 196.392 156.512 198.356 156.385 200.35C156.03 207.264 154.093 216.812 149.61 221.877C147.078 224.701 143.57 226.651 142.127 230.171C140.86 233.223 141.519 236.844 140.341 239.934C139.29 242.656 136.973 244.594 135.276 246.962C133.548 249.648 132.53 252.73 132.32 255.917C132.109 259.105 132.713 262.293 134.073 265.183C135.444 268 137.373 270.507 139.744 272.554C142.114 274.6 144.877 276.142 147.863 277.086C153.778 278.886 160.085 278.947 166.034 277.264C170.499 276.196 174.663 274.131 178.216 271.224C181.85 268.255 184.347 264.122 185.281 259.523C186.18 254.357 184.737 249.102 183.661 243.961C180.292 227.714 181.255 226.866 185.509 211.785C185.611 211.519 185.661 211.24 185.737 210.974C185.813 210.708 185.851 210.582 185.902 210.379C186.023 209.783 186.086 209.177 186.092 208.568C185.47 208.799 184.796 208.848 184.148 208.709C183.499 208.57 182.904 208.249 182.432 207.783C181.959 207.287 181.629 206.671 181.478 206.003C181.326 205.334 181.359 204.636 181.571 203.984C181.87 203.271 182.315 202.629 182.878 202.099C183.441 201.569 184.109 201.163 184.838 200.907C186.244 200.325 187.751 200.021 189.131 199.375C192.056 197.982 194.082 195.095 195.462 192.069C196.597 189.971 196.947 187.538 196.45 185.205Z" fill="#263238"/>
<path d="M186.029 207.606C186.296 208.001 186.517 208.426 186.687 208.872C187.067 209.67 187.573 210.797 188.131 212.101L188.232 212.342H187.966L186.7 212.456C185.826 212.456 185.091 212.62 184.23 212.608C184.155 212.591 184.086 212.555 184.028 212.504C183.971 212.454 183.927 212.389 183.901 212.317C183.863 212.201 183.863 212.077 183.901 211.962C183.931 211.791 183.969 211.622 184.015 211.455L184.243 210.556C184.358 209.957 184.536 209.371 184.775 208.809C184.751 209.42 184.662 210.027 184.509 210.62L184.332 211.519C184.268 211.823 184.154 212.291 184.332 212.253C184.965 212.253 185.864 212.114 186.7 212.063L187.966 211.949L187.801 212.228C187.257 210.962 186.801 209.771 186.535 208.948C186.302 208.528 186.131 208.076 186.029 207.606Z" fill="#0039CA"/>
<path d="M142.671 314.188L198.831 312.479L223.27 407.88L218.774 517.311H189.08L192.714 410.21L170.998 343.794L174.341 521.553L144.33 521.997L141.177 354.912C141.038 350.264 139.518 339.792 140.088 335.183L142.671 314.188Z" fill="#263238"/>
<path d="M178.469 345.149C177.55 345.206 176.627 345.151 175.721 344.984C174.024 344.781 171.707 344.427 169.162 343.92C166.617 343.414 164.337 342.831 162.691 342.363C161.811 342.169 160.96 341.863 160.159 341.451C160.159 341.261 164.287 342.249 169.352 343.275C174.417 344.3 178.494 344.959 178.469 345.149Z" fill="#455A64"/>
<path d="M218.471 511.309C218.471 511.487 211.747 511.638 203.453 511.638C195.158 511.638 188.422 511.487 188.422 511.309C188.422 511.132 195.146 510.98 203.453 510.98C211.759 510.98 218.471 511.119 218.471 511.309Z" fill="#455A64"/>
<path d="M174.075 516.932C174.075 517.121 167.541 517.261 159.487 517.261C151.434 517.261 144.913 517.121 144.913 516.932C144.913 516.742 151.447 516.602 159.487 516.602C167.528 516.602 174.075 516.754 174.075 516.932Z" fill="#455A64"/>
<path d="M170.2 516.476C170.023 516.476 169.238 477.639 168.44 429.736C167.642 381.833 167.174 342.971 167.338 342.971C167.503 342.971 168.313 381.795 169.098 429.723C169.883 477.652 170.39 516.476 170.2 516.476Z" fill="#455A64"/>
<path d="M214.482 511.309C214.468 511.136 214.468 510.963 214.482 510.79V509.27C214.482 507.903 214.583 505.94 214.659 503.446C214.836 498.38 215.09 491.023 215.406 482.007C216.09 463.874 217.052 438.878 218.103 411.286C218.103 411.02 218.103 410.767 218.103 410.539V410.627C211.455 384.036 205.441 359.901 201.072 342.439L196.007 321.786C195.424 319.367 194.981 317.48 194.665 316.163C194.513 315.543 194.411 315.062 194.323 314.694C194.273 314.53 194.244 314.36 194.234 314.188C194.3 314.348 194.351 314.513 194.386 314.682C194.487 315.036 194.614 315.518 194.791 316.125C195.133 317.392 195.627 319.316 196.26 321.722C197.526 326.61 199.312 333.651 201.54 342.325C205.947 359.774 212.025 383.846 218.762 410.476V410.564C218.762 410.792 218.762 411.058 218.762 411.311C217.635 438.903 216.609 463.887 215.862 482.02C215.469 491.049 215.14 498.355 214.912 503.446C214.786 505.978 214.684 507.903 214.621 509.27C214.621 509.916 214.545 510.423 214.532 510.79C214.534 510.964 214.517 511.138 214.482 511.309Z" fill="#455A64"/>
<path d="M204.795 408.311C202.662 409.012 200.465 409.5 198.235 409.767C195.5 410.235 193.17 410.565 192.119 410.615V410.362C192.461 410.463 192.638 410.527 192.638 410.577C192.638 410.628 192.423 410.577 192.069 410.577H191.309L192.069 410.349C193.056 410.058 195.386 409.577 198.121 409.083C200.315 408.607 202.55 408.348 204.795 408.311Z" fill="#455A64"/>
<path d="M204.276 411.945C202.3 412.035 200.321 411.946 198.362 411.679C196.384 411.638 194.414 411.422 192.474 411.033C196.431 410.71 200.415 411.018 204.276 411.945Z" fill="#455A64"/>
<path opacity="0.2" d="M142.431 316.202C143.096 317.056 143.933 317.76 144.889 318.268C145.845 318.777 146.897 319.078 147.977 319.152C150.239 319.42 152.527 319.377 154.777 319.025C169.276 317.417 184.636 315.936 198.831 312.479C180.457 313.504 161.045 313.163 142.671 314.188L142.481 315.758" fill="black"/>
<g opacity="0.2">
<path d="M161.361 342.097L171.72 382.289L170.998 343.794L161.361 342.097Z" fill="black"/>
</g>
</svg>
